<svg version="1.1" xmlns="http://www.w3.org/2000/svg" xmlns:xlink="http://www.w3.org/1999/xlink" width="7.65626" height="7.5" viewBox="0,0,7.65626,7.5"><defs><radialGradient cx="103.96251" cy="85.11725" r="0.00125" gradientUnits="userSpaceOnUse" id="color-1"><stop offset="0" stop-color="#f2ff7a"/><stop offset="1" stop-color="#ff0019"/></radialGradient><radialGradient cx="239.99998" cy="180" r="3.82813" gradientUnits="userSpaceOnUse" id="color-2"><stop offset="0" stop-color="#f2ff7a"/><stop offset="1" stop-color="#ffffff"/></radialGradient><radialGradient cx="239.96561" cy="180.078" r="2.39362" gradientUnits="userSpaceOnUse" id="color-3"><stop offset="0" stop-color="#f2ff7a"/><stop offset="1" stop-color="#ff0019"/></radialGradient></defs><g transform="translate(-236.17187,-176.25)"><g data-paper-data="{&quot;isPaintingLayer&quot;:true}" fill-rule="nonzero" stroke-linecap="butt" stroke-linejoin="miter" stroke-miterlimit="10" stroke-dasharray="" stroke-dashoffset="0" style="mix-blend-mode: normal"><path d="" fill="#b3efff" stroke="#ffffff" stroke-width="2.5"/><path d="" fill="#b3efff" stroke="#ffffff" stroke-width="2.5"/><path d="" fill="url(#color-1)" stroke="none" stroke-width="0"/><path d="M243.82811,180c0,2.07107 -1.71391,3.75 -3.82812,3.75c-2.11422,0 -3.82812,-1.67893 -3.82812,-3.75c0,-2.07107 1.71391,-3.75 3.82813,-3.75c2.11422,0 3.82813,1.67893 3.82813,3.75z" fill="url(#color-2)" stroke="none" stroke-width="0"/><path d="M242.35923,180.078c0,1.29441 -1.07166,2.34375 -2.39362,2.34375c-1.32196,0 -2.39362,-1.04934 -2.39362,-2.34375c0,-1.29441 1.07166,-2.34375 2.39362,-2.34375c1.32196,0 2.39362,1.04934 2.39362,2.34375z" fill="url(#color-3)" stroke="none" stroke-width="0"/></g></g></svg>