<svg version="1.1" xmlns="http://www.w3.org/2000/svg" xmlns:xlink="http://www.w3.org/1999/xlink" width="100.85149" height="80.23617" viewBox="0,0,100.85149,80.23617"><defs><radialGradient cx="233.18682" cy="141.05955" r="50.59894" gradientUnits="userSpaceOnUse" id="color-1"><stop offset="0" stop-color="#4d0a70"/><stop offset="1" stop-color="#334070"/></radialGradient><linearGradient x1="240.00001" y1="139.86797" x2="240.00001" y2="220.11809" gradientUnits="userSpaceOnUse" id="color-2"><stop offset="0" stop-color="#6d6670"/><stop offset="1" stop-color="#05223b"/></linearGradient></defs><g transform="translate(-189.57426,-139.88192)"><g data-paper-data="{&quot;isPaintingLayer&quot;:true}" fill-rule="nonzero" stroke="none" stroke-width="0.5" stroke-linecap="butt" stroke-linejoin="miter" stroke-miterlimit="10" stroke-dasharray="" stroke-dashoffset="0" style="mix-blend-mode: normal"><path d="" fill="url(#color-1)"/><path d="M256.85142,145.36722c0.60875,0.3801 1.25233,0.7416 1.92084,1.08794c1.28418,0.93081 2.635,1.7788 4.08386,2.50323c1.64026,0.82013 4.78587,1.65535 7.673,2.3921c1.89816,0.63425 4.60707,1.2836 6.5365,2.19272c1.32953,0.95874 2.71019,2.4425 4.15231,3.90797c1.75743,2.42637 2.9253,5.10025 3.8676,7.88845c-0.22543,3.63986 0.24453,9.9833 1.68726,12.86876c0.89912,1.79825 2.78778,3.47663 3.41666,5.40129c0.73253,2.24187 -0.45239,8.83943 -0.66666,10.97344c-0.09368,0.93301 -0.37412,1.8071 -0.79486,2.63198c-0.85741,1.2716 -1.84301,2.45206 -2.88005,3.59662c-2.86466,2.65006 -6.70196,4.80622 -8.91526,7.01142c-2.31414,2.30567 -3.24913,5.7842 -5.53719,7.91276c-0.31247,0.22715 -0.62641,0.44698 -0.94081,0.65816c-2.66086,1.46638 -8.56786,2.66453 -12.42196,3.65816c-12.06654,0.74768 -19.52809,-5.05963 -31.71851,-7.8125c-11.17368,-2.52326 -22.06115,-1.60891 -30.64875,-10.16858c-7.01425,-6.99143 -6.02932,-20.96241 -6.05917,-28.99113c-0.00426,-1.14535 0.32375,-3.73695 1.03462,-4.66329c3.8238,-4.98291 9.40196,-7.71331 13.92118,-12.21784c1.60481,-1.59959 2.08363,-4.30014 3.26451,-6.37876c5.42713,-2.60273 10.79092,-4.77737 16.19187,-7.1249c1.24595,-0.54156 2.61803,-1.38692 4.03791,-2.01136c1.30454,0.23963 3.1721,-0.21455 4.28481,-0.80194c5.04048,0.20456 7.75414,2.60116 12.75631,3.36122c3.63591,0.55247 7.20742,1.08118 10.80028,1.64007c0.47937,0.23218 0.85126,0.42003 0.95371,0.484z" fill="url(#color-2)"/><path d="M203.55689,164.34999c0.5,0 0.5,0.5 0.5,0.5v0.66666c-0.00009,0.68264 -0.01703,1.36546 -0.04959,2.04732c-0.5576,3.01864 -0.949,5.53422 -2.07706,7.85506c0.86469,-0.42927 1.81538,-0.71134 2.81931,-0.8134c0.32352,-0.07811 0.6631,-0.11526 1.02124,-0.10501c7.90139,0.22622 16.42225,11.22663 11.9787,17.89195c-1.77245,2.65867 -3.01446,2.30544 -6.04687,2.61487c-5.62081,0.57355 -5.48737,-1.55295 -9.42735,-4.56462c-0.09003,-0.06882 -0.18669,-0.13818 -0.28862,-0.20822c-0.55997,-0.27267 -1.08446,-0.60686 -1.56471,-0.99376c-1.87706,-1.51223 -3.078,-3.8298 -3.078,-6.42789c0,-1.48047 0.38996,-2.86986 1.07277,-4.07105c0.0049,-0.20446 0.15702,-0.35658 0.15702,-0.35658c0.05857,-0.05857 0.11621,-0.11715 0.17293,-0.17575c0.3416,-0.50711 0.73806,-0.97422 1.18085,-1.39281c2.01325,-2.74398 2.38832,-5.63292 3.08643,-9.36775c0.02938,-0.64361 0.04305,-1.28808 0.04296,-1.93236v-0.66666c0,0 0,-0.5 0.5,-0.5z" fill="#0f132a"/><path d="M255.08836,162.1389c0.10066,-0.04238 0.19943,-0.0857 0.2966,-0.12973c1.00524,-0.77281 2.19359,-1.3192 3.48876,-1.56292c0.58398,-0.15061 1.23152,-0.22975 1.9962,-0.19394c7.21927,0.33801 8.78781,4.60695 7.76628,8.91585c-0.15971,2.16924 -1.1582,4.1053 -2.67242,5.48514c-1.10872,1.44347 -2.41719,2.60533 -3.72093,3.22566c-1.18076,0.56181 -7.73739,0.70509 -8.3014,0.46119c-0.52555,-0.22726 -4.53823,-6.4194 -4.61189,-6.91783c-0.53065,-3.59056 2.54323,-7.09323 5.20126,-8.86525z" fill="#0f132a"/><path d="M260.16419,196.97299c-0.40585,5.27612 -3.8469,8.29789 -8.72468,9.7779c-2.85375,0.86588 -7.2542,0.11542 -7.34429,-3.70034c-0.10945,-4.63556 5.06714,-7.89952 8.84965,-9.13887c2.28562,-0.74889 5.83438,-0.83947 6.44043,2.19079z" fill="#0f132a"/><path d="M220.04763,160.40556c0,-2.34721 1.90279,-4.25 4.25,-4.25c2.34721,0 4.25,1.90279 4.25,4.25c0,2.34721 -1.90279,4.25 -4.25,4.25c-2.34721,0 -4.25,-1.90279 -4.25,-4.25z" fill="#0f132a"/><path d="M225.25104,189.02668c0,0.5 -0.5,0.5 -0.5,0.5l-0.58407,-0.00375c-3.28404,0.84269 -4.58493,2.35325 -7.20309,4.11332c0,0 -0.41602,0.27735 -0.69338,-0.13868c-0.27735,-0.41602 0.13868,-0.69337 0.13868,-0.69337c2.74281,-1.81048 4.17561,-3.42772 7.63561,-4.27378l0.70625,-0.00374c0,0 0.5,0 0.5,0.5z" fill="#0f132a"/><path d="M211.04136,169.33313c0.5,0 0.5,0.5 0.5,0.5v0.41935c0,3.23857 0.03681,7.82098 -3.34091,9.54399c0,0 -0.44722,0.22361 -0.67082,-0.2236c-0.2236,-0.44721 0.22361,-0.67083 0.22361,-0.67083c2.96398,-1.44487 2.78812,-5.9063 2.78812,-8.64956v-0.41935c0,0 0,-0.5 0.5,-0.5z" fill="#0f132a"/><path d="M221.37836,180.59826c0.04132,0.49829 -0.45697,0.53961 -0.45697,0.53961l-0.92509,0.07505c-1.91416,0.47553 -2.77347,1.47311 -3.87751,2.95246c0,0 -0.3,0.4 -0.7,0.1c-0.4,-0.3 -0.1,-0.7 -0.1,-0.7c1.28177,-1.69961 2.32937,-2.78997 4.51439,-3.33907l1.00558,-0.08503c0,0 0.49829,-0.04132 0.53961,0.45697z" fill="#0f132a"/><path d="M236.52036,201.98569c0.10551,-0.48874 0.59425,-0.38323 0.59425,-0.38323l0.76716,0.16562c3.14522,0.67917 5.82275,1.79225 8.57813,3.44276c0,0 0.42875,0.25725 0.1715,0.686c-0.25725,0.42874 -0.68599,0.1715 -0.68599,0.1715c-2.65824,-1.59743 -5.2374,-2.66728 -8.27465,-3.32278l-0.76716,-0.16561c0,0 -0.48874,-0.10551 -0.38323,-0.59425z" fill="#0f132a"/><path d="M259.38844,189.18677c0.48507,0.12127 0.3638,0.60634 0.3638,0.60634l-0.1501,0.58498c0.00904,2.14301 0.16132,4.26041 0.16503,6.39052c0,0 0,0.5 -0.5,0.5c-0.5,0 -0.5,-0.5 -0.5,-0.5c0.00412,-2.16993 -0.16593,-4.32541 -0.15755,-6.51271l0.17248,-0.70533c0,0 0.12127,-0.48507 0.60634,-0.3638z" fill="#0f132a"/><path d="M254.0749,190.44732c0.35356,-0.35356 0.70711,0 0.70711,0l0.27978,0.35c0.50852,1.4562 1.14572,2.9724 1.15699,4.51969c0,0 0,0.5 -0.5,0.5c-0.5,0 -0.5,-0.5 -0.5,-0.5c0.01256,-1.41375 -0.63628,-2.85901 -1.10108,-4.19l-0.0428,0.02741c0,0 -0.35356,-0.35355 0,-0.7071z" fill="#0f132a"/><path d="M241.37347,196.6105c0.15812,-0.47434 0.63245,-0.31622 0.63245,-0.31622l0.48387,0.16129c1.54005,0.51335 2.8753,1.26902 4.51931,1.26467c0,0 0.5,0 0.5,0.5c0,0.5 -0.5,0.5 -0.5,0.5c-1.7757,-0.00425 -3.18058,-0.76432 -4.83554,-1.31598l-0.48387,-0.16129c0,0 -0.47434,-0.15812 -0.31623,-0.63246z" fill="#0f132a"/><path d="M249.34532,195.32446c-0.14218,-0.02482 -0.41686,-0.12074 -0.41686,-0.49133c0,-0.5 0.5,-0.5 0.5,-0.5l0.80765,0.37874c0.11263,0.46061 0.17371,0.93741 0.17622,1.41159c0,0 0,0.5 -0.5,0.5c-0.5,0 -0.5,-0.5 -0.5,-0.5c0.00171,-0.26681 -0.02141,-0.5351 -0.06701,-0.79899z" fill="#0f132a"/><path d="M231.86394,159.34926c0,0.5 -0.5,0.5 -0.5,0.5h-0.32258c-1.3511,0 -2.90075,0.22731 -4.19037,-0.18695c0,0 -0.47434,-0.15811 -0.31623,-0.63245c0.15812,-0.47434 0.63245,-0.31623 0.63245,-0.31623c1.14149,0.39964 2.66555,0.13563 3.87414,0.13563h0.32258c0,0 0.5,0 0.5,0.5z" fill="#0f132a"/><path d="M225.23491,151.2686c0.5,0 0.5,0.5 0.5,0.5v0.29032c0,1.78412 0.38215,4.59565 -0.56785,6.11606c0,0 -0.27735,0.41603 -0.69337,0.13868c-0.41602,-0.27735 -0.13868,-0.69338 -0.13868,-0.69338c0.83362,-1.12644 0.39989,-4.15354 0.39989,-5.56136v-0.29032c0,0 0,-0.5 0.5,-0.5z" fill="#0f132a"/><path d="M215.11982,153.94622c0.24175,-0.43768 0.67942,-0.19593 0.67942,-0.19593l0.03675,0.0203c2.39475,1.32272 4.62127,3.12148 7.04189,4.325c0,0 0.44721,0.22361 0.2236,0.67082c-0.2236,0.44721 -0.67082,0.22361 -0.67082,0.22361c-2.4342,-1.22323 -4.66681,-3.01218 -7.07816,-4.34408l-0.03675,-0.0203c0,0 -0.43767,-0.24174 -0.19592,-0.67942z" fill="#0f132a"/><path d="M214.28112,162.42331c-0.17082,-0.46991 0.29909,-0.64074 0.29909,-0.64074l0.97438,-0.34929c1.82548,-0.14836 4.27475,-0.02803 5.97381,-0.62288c0,0 0.47434,-0.15812 0.63246,0.31623c0.15812,0.47434 -0.31623,0.63246 -0.31623,0.63246c-1.79558,0.57678 -4.17319,0.51454 -6.07892,0.65165l-0.84386,0.31166c0,0 -0.46991,0.17082 -0.64073,-0.29909z" fill="#0f132a"/><path d="M223.36488,168.71095c-0.49073,-0.09584 -0.39489,-0.58657 -0.39489,-0.58657l0.17952,-0.91888c0.19518,-1.19271 0.29509,-2.29559 0.29509,-3.50141c0,0 0,-0.5 0.5,-0.5c0.5,0 0.5,0.5 0.5,0.5c0,1.26386 -0.10621,2.42826 -0.31081,3.67803l-0.18234,0.93393c0,0 -0.09583,0.49074 -0.58656,0.39489z" fill="#0f132a"/><path d="M230.46245,165.14745c-0.31434,0.38884 -0.70317,0.07449 -0.70317,0.07449l-0.55115,-0.44762c-1.49472,-0.85192 -2.79767,-1.98417 -4.45392,-2.53139c0,0 -0.47434,-0.15812 -0.31623,-0.63246c0.15812,-0.47434 0.63245,-0.31622 0.63245,-0.31622c1.74779,0.58708 3.12398,1.75052 4.70192,2.65444l0.6156,0.49558c0,0 0.38884,0.31433 0.0745,0.70317z" fill="#0f132a"/><path d="M243.31799,174.93464c-0.23804,-0.4397 0.20166,-0.67774 0.20166,-0.67774l0.52594,-0.28259c1.59435,-0.53207 4.70762,-1.67114 5.13612,-3.48989c0,0 0.12127,-0.48507 0.60634,-0.3638c0.48507,0.12127 0.36381,0.60634 0.36381,0.60634c-0.57784,2.21389 -3.71189,3.49672 -5.70825,4.16474l-0.44787,0.24461c0,0 -0.4397,0.23803 -0.67774,-0.20166z" fill="#0f132a"/><path d="M255.45461,183.06046c-0.48507,-0.12127 -0.3638,-0.60634 -0.3638,-0.60634l0.15657,-0.62473c0.64108,-1.9214 0.80312,-4.55384 1.88217,-6.19801c0,0 0.27735,-0.41603 0.69338,-0.13868c0.41602,0.27735 0.13868,0.69338 0.13868,0.69338c-1.01719,1.49572 -1.15715,4.1379 -1.75419,5.9232l-0.14646,0.58738c0,0 -0.12127,0.48508 -0.60634,0.36381z" fill="#0f132a"/><path d="M270.77285,170.60569c0,0.5 -0.5,0.5 -0.5,0.5l-0.64838,-0.00179c-1.51099,-0.25768 -2.80486,-0.60427 -4.35162,-0.60427c0,0 -0.5,0 -0.5,-0.5c0,-0.5 0.5,-0.5 0.5,-0.5c1.57401,0 2.90347,0.34455 4.43626,0.60786l0.56374,-0.00179c0,0 0.5,0 0.5,0.5z" fill="#0f132a"/><path d="M273.48851,161.55924c0.10706,0.48841 -0.38135,0.59546 -0.38135,0.59546l-0.76789,0.16699c-2.56266,0.18629 -5.20947,0.01677 -7.74182,0.44387c0,0 -0.4932,0.0822 -0.5754,-0.411c-0.0822,-0.49319 0.411,-0.5754 0.411,-0.5754c2.54541,-0.41961 5.18923,-0.26683 7.76316,-0.44718l0.69683,-0.15408c0,0 0.48841,-0.10706 0.59546,0.38134z" fill="#0f132a"/><path d="M264.56072,160.45418c0,0.5 -0.5,0.5 -0.5,0.5l-0.848,-0.00374c-0.55679,0.14008 -0.8554,0.19073 -1.16021,0.69019c0,0 -0.27735,0.41603 -0.69338,0.13868c-0.41602,-0.27735 -0.13868,-0.69338 -0.13868,-0.69338c0.51954,-0.73889 1.00593,-0.9129 1.87009,-1.12799l0.97018,-0.00375c0,0 0.5,0 0.5,0.5z" fill="#0f132a"/><path d="M240.52528,162.75219c-0.35356,0.35356 -0.70711,0 -0.70711,0l-0.3159,-0.52301c0.00215,-0.25573 0.0043,-0.51146 0.00645,-0.76719c-0.6586,-1.88643 -1.84516,-2.91342 -2.6797,-4.63355c-0.51288,-1.05713 0.34307,-2.86087 -0.57912,-3.74524c-1.32092,-1.26675 -3.09591,-1.95078 -4.1529,-3.51307c-0.35272,-1.05818 -1.052,-2.06851 -1.38504,-3.12501c-0.76843,-2.43768 1.45174,-3.72678 -0.64215,-5.81356c0.3731,-0.06695 0.74393,-0.15947 1.09392,-0.26965c0.70408,0.83879 1.35118,1.94511 1.0137,3.03297c-0.23101,0.74465 -0.82569,1.88245 -0.50837,2.76045c0.35963,0.99506 0.98816,1.96112 1.32627,2.97544c0.94882,1.4604 2.80424,2.05455 3.98104,3.26521c1.156,1.18927 0.12615,2.8107 0.77654,4.04978c0.92398,1.76035 2.09724,2.85314 2.74292,4.85604c0.00215,0.30912 0.00431,0.61826 0.00646,0.92738l0.02301,-0.1841c0,0 0.35356,0.35356 0,0.70711z" fill="#120c1e"/><path d="M231.52942,156.12036c-0.5,0 -0.5,-0.5 -0.5,-0.5v-0.33891c0,-1.96799 2.03348,-2.76176 2.03348,-4.57534c0,0 0,-0.5 0.5,-0.5c0.5,0 0.5,0.5 0.5,0.5c0,1.97891 -2.03348,2.75934 -2.03348,4.57534v0.33891c0,0 0,0.5 -0.5,0.5z" fill="#120c1e"/><path d="M267.97106,193.57873c0,-0.5 0.5,-0.5 0.5,-0.5l0.29073,0.01493c0.85069,0.22115 2.00365,0.88479 2.9403,0.5191c1.18986,-0.46456 1.45934,-1.07487 2.94952,-0.86648c1.11825,0.15638 1.51846,1.25502 2.55631,1.52767c0.82003,0.21543 2.1826,-0.38356 3.17274,-0.49865c-0.05434,-0.10694 -0.10634,-0.21104 -0.15591,-0.31187c-0.72543,-1.47579 -0.42059,-3.20269 -2.22298,-3.80733c-2.87431,-0.58046 -3.76185,-1.95618 -5.96078,-3.73696l-0.35026,0.02566c0,0 -0.5,0 -0.5,-0.5c0,-0.5 0.5,-0.5 0.5,-0.5l0.66649,0.02566c2.3315,1.6574 3.04492,3.1525 5.90121,3.71915c1.91577,0.63496 2.12614,1.95496 2.56123,3.75751c0.43505,1.80234 3.65327,6.44798 5.43303,6.92719c0,0 0.47435,0.15811 0.31623,0.63245c-0.15812,0.47434 -0.63245,0.31623 -0.63245,0.31623c-1.96789,-0.72938 -3.85167,-3.445 -5.05673,-5.61003c-0.10945,0.04361 -0.20779,0.04361 -0.20779,0.04361c-1.13238,-0.00346 -2.57761,0.76024 -3.65315,0.49935c-1.04622,-0.25378 -1.52965,-1.41837 -2.5274,-1.52255c-1.41501,-0.14775 -1.26272,0.38631 -2.4731,0.82808c-1.17451,0.42868 -2.43262,-0.24455 -3.49907,-0.49765l-0.04819,0.01493c0,0 -0.5,0 -0.5,-0.5z" fill="#120c1e"/><path d="M231.85996,202.05159c0,0.5 -0.5,0.5 -0.5,0.5h-0.16945c-1.48836,-0.00789 -2.37274,1.06376 -3.95861,0.84354c-2.53966,-0.35267 -4.58459,-0.97004 -7.08122,-1.01094c-0.09257,0.10283 -0.18952,0.20275 -0.29191,0.2988c-0.61507,0.0141 -5.02484,0.83473 -5.19096,1.1603c-1.13308,2.22075 0.33088,4.9382 -3.03626,5.64633c0,0 -0.49029,0.09805 -0.58835,-0.39223c-0.09806,-0.49029 0.39223,-0.58835 0.39223,-0.58835c2.80174,-0.52433 1.14989,-3.42447 2.38637,-5.19892c0.49999,-0.71752 4.36287,-1.51192 5.5263,-1.55015c0.05713,-0.29186 0.31766,-0.35827 0.43326,-0.37338c0.55482,-0.74175 0.99542,-1.66223 1.59196,-2.25458c1.47019,-1.45985 2.67754,-1.67212 3.43704,-3.90892l0.37205,-0.56605c0,0 0.27735,-0.41603 0.69338,-0.13868c0.41602,0.27735 0.13867,0.69338 0.13867,0.69338l-0.30578,0.45069c-0.77086,2.36186 -2.16228,2.68812 -3.68015,4.22502c-0.38778,0.39264 -0.70126,0.8731 -1.02875,1.36128c0.49919,-0.07937 1.00145,-0.14402 1.47353,-0.02704c1.73924,0.43098 4.2629,1.86651 6.19993,1.19863c0.93314,-0.32174 1.38906,-0.86382 2.51729,-0.86874h0.16945c0,0 0.5,0 0.5,0.5z" fill="#120c1e"/><path d="M217.14021,202.03694c0.34197,0.34197 0.0224,0.68395 0.0011,0.70598c0.21361,0.49555 1.54704,0.96773 1.80186,1.48971c0.33839,0.6932 -0.26554,1.72121 -0.13785,2.48365c0.20213,1.20695 0.68428,2.19385 0.68428,3.46923c0,0 0,0.5 -0.5,0.5c-0.5,0 -0.5,-0.5 -0.5,-0.5c0,-1.37348 -0.67783,-2.56698 -0.67783,-3.89751c0,-0.24199 0.32585,-1.44769 0.20752,-1.67269c-0.53404,-1.01546 -1.79392,-0.55549 -1.90209,-2.05537l0.3159,-0.52301c0,0 0.35355,-0.35355 0.70711,0zM217.13955,202.73878l-0.02235,-0.17883c-0.01113,0.06003 -0.00243,0.1196 0.02235,0.17883z" fill="#120c1e"/></g></g></svg>