<svg version="1.1" xmlns="http://www.w3.org/2000/svg" xmlns:xlink="http://www.w3.org/1999/xlink" width="95.8248" height="80.31502" viewBox="0,0,95.8248,80.31502"><defs><radialGradient cx="233.18682" cy="141.05955" r="50.59894" gradientUnits="userSpaceOnUse" id="color-1"><stop offset="0" stop-color="#4d0a70"/><stop offset="1" stop-color="#334070"/></radialGradient><linearGradient x1="242.51333" y1="139.90741" x2="242.51333" y2="220.15753" gradientUnits="userSpaceOnUse" id="color-2"><stop offset="0" stop-color="#6d6670"/><stop offset="1" stop-color="#05223b"/></linearGradient><linearGradient x1="242.51333" y1="139.90741" x2="242.51333" y2="220.15753" gradientUnits="userSpaceOnUse" id="color-3"><stop offset="0" stop-color="#6d6670"/><stop offset="1" stop-color="#05223b"/></linearGradient><linearGradient x1="242.51333" y1="139.90741" x2="242.51333" y2="220.15753" gradientUnits="userSpaceOnUse" id="color-4"><stop offset="0" stop-color="#6d6670"/><stop offset="1" stop-color="#05223b"/></linearGradient><linearGradient x1="242.51333" y1="139.90741" x2="242.51333" y2="220.15753" gradientUnits="userSpaceOnUse" id="color-5"><stop offset="0" stop-color="#6d6670"/><stop offset="1" stop-color="#05223b"/></linearGradient><linearGradient x1="242.51333" y1="139.90741" x2="242.51333" y2="220.15753" gradientUnits="userSpaceOnUse" id="color-6"><stop offset="0" stop-color="#6d6670"/><stop offset="1" stop-color="#05223b"/></linearGradient><linearGradient x1="242.51333" y1="139.90741" x2="242.51333" y2="220.15753" gradientUnits="userSpaceOnUse" id="color-7"><stop offset="0" stop-color="#6d6670"/><stop offset="1" stop-color="#05223b"/></linearGradient><linearGradient x1="246.66403" y1="140.05246" x2="246.66403" y2="220.30258" gradientUnits="userSpaceOnUse" id="color-8"><stop offset="0" stop-color="#6d6670"/><stop offset="1" stop-color="#05223b"/></linearGradient><linearGradient x1="246.66403" y1="140.05246" x2="246.66403" y2="220.30258" gradientUnits="userSpaceOnUse" id="color-9"><stop offset="0" stop-color="#6d6670"/><stop offset="1" stop-color="#05223b"/></linearGradient><linearGradient x1="246.66403" y1="140.05246" x2="246.66403" y2="220.30258" gradientUnits="userSpaceOnUse" id="color-10"><stop offset="0" stop-color="#6d6670"/><stop offset="1" stop-color="#05223b"/></linearGradient><linearGradient x1="242.51333" y1="139.90741" x2="242.51333" y2="220.15753" gradientUnits="userSpaceOnUse" id="color-11"><stop offset="0" stop-color="#6d6670"/><stop offset="1" stop-color="#05223b"/></linearGradient></defs><g transform="translate(-192.0876,-139.84249)"><g data-paper-data="{&quot;isPaintingLayer&quot;:true}" fill-rule="nonzero" stroke="none" stroke-width="0.5" stroke-linecap="butt" stroke-linejoin="miter" stroke-miterlimit="10" stroke-dasharray="" stroke-dashoffset="0" style="mix-blend-mode: normal"><path d="" fill="url(#color-1)"/><path d="M259.36475,145.40666c0.60875,0.3801 1.25233,0.7416 1.92084,1.08794c1.28418,0.93081 2.635,1.7788 4.08386,2.50323c1.64026,0.82013 4.78587,1.65535 7.673,2.3921c1.89816,0.63425 4.60707,1.2836 6.5365,2.19272c1.32953,0.95874 2.71019,2.4425 4.15231,3.90797c1.75743,2.42637 2.9253,5.10025 3.8676,7.88845c-0.00415,0.06706 -0.00807,0.13504 -0.01175,0.2039c-0.52357,-0.01773 -0.93039,-0.00266 -1.1116,0.04264c-2.60347,0.65087 -0.93538,4.28163 -2.15791,4.85771c-1.31691,0.62056 -2.73656,1.29316 -3.63936,2.39027c-1.24329,1.51087 0.21051,4.78392 0.09949,6.51111c-0.54387,8.46149 0.66046,10.44101 5.20145,17.78848c0.24732,0.40018 0.68194,0.98514 1.21816,1.61824c-0.3077,1.08627 -0.69339,2.4641 -1.03912,3.89628c-2.416,1.85505 -5.03208,3.50083 -6.71227,5.17487c-2.31414,2.30567 -3.24913,5.7842 -5.53719,7.91276c-0.31247,0.22715 -0.62641,0.44698 -0.94081,0.65816c-2.66086,1.46638 -8.56786,2.66453 -12.42196,3.65816c-12.06654,0.74768 -19.52809,-5.05963 -31.71851,-7.8125c-2.21443,-0.50007 -4.41762,-0.86512 -6.59389,-1.19565c-0.42023,-1.06214 -0.60353,-2.06744 -1.13107,-3.12776c-0.26039,-0.52078 -0.65141,-0.91811 -0.93216,-1.39315c-0.21187,-0.35849 0.7486,-1.12215 0.61394,-1.58167c-0.12641,-0.43135 -0.95149,-0.78977 -1.58822,-0.95598c-0.16498,-0.16444 -0.40694,-0.29351 -0.76106,-0.33286c-1.24235,-0.13804 -1.38039,1.10432 -1.38039,1.10432l-0.04013,0.69456c-0.13505,0.16189 -0.20026,0.30535 -0.20026,0.30535c-0.5607,1.2339 -1.0793,2.46685 -1.54949,3.73547l-0.03526,0.03526c-0.02772,0.02772 -0.05414,0.05673 -0.07916,0.08694c-0.34902,-0.20977 -0.57517,-0.49019 -0.73898,-0.8065c-0.08132,-0.25193 -0.17934,-0.51272 -0.2913,-0.76548c-0.17815,-0.60001 -0.30813,-1.22801 -0.69309,-1.71001c-0.55546,-0.69548 -2.27428,-0.56757 -3.0841,-0.56769c-0.65647,0.00657 -1.41069,0.20605 -2.14232,0.4762c-0.02549,0.00453 -0.04878,0.00857 -0.0697,0.01205c-0.29111,0.04852 -1.76721,0.52659 -2.28037,1.04633c-2.7068,-1.1933 -5.27857,-2.84292 -7.67173,-5.2283c-7.01425,-6.99143 -6.02932,-20.96241 -6.05917,-28.99113c-0.00426,-1.14535 0.32375,-3.73695 1.03462,-4.66329c2.83047,-3.68848 6.62222,-6.14273 10.23418,-8.99594l0.89967,0.22492c0.20104,0.13806 0.44448,0.21886 0.70679,0.21886c0.07018,0 0.139,-0.00578 0.20603,-0.0169c0.57642,0.21554 1.12981,0.35006 1.67941,0.38769c0.20262,0.41694 0.63021,0.70434 1.12493,0.70434c0.04927,0 0.09788,-0.00285 0.14566,-0.0084c0.03269,0.00609 0.06518,0.0106 0.09733,0.01371c0.22101,0.1973 0.51257,0.31722 0.83214,0.31722c0.69036,0 1.25,-0.55964 1.25,-1.25c0,-0.03372 -0.00134,-0.06713 -0.00396,-0.10017l0.13107,-0.08884c0.06676,-0.10491 0.13352,-0.20982 0.20028,-0.31473c0.0887,0.01677 0.17445,0.03708 0.2532,0.06578l0.55406,0.14545c0,0 0.07942,0.01986 0.2027,0.02908c0.02611,0.07832 0.05222,0.15665 0.07832,0.23497l-0.01283,0.02846c0,0 0,0.25 0.25,0.25c0.25,0 0.25,-0.25 0.25,-0.25l-0.01283,-0.18657c-0.01373,-0.04118 -0.02746,-0.08237 -0.04118,-0.12355c0.32155,-0.09082 0.66038,-0.32674 0.80166,-0.89189c0.02691,-0.10763 0.04187,-0.2081 0.04681,-0.30182c0.09557,-0.00989 0.19375,-0.02319 0.29463,-0.04001c0.22586,0.32404 0.60127,0.53607 1.0262,0.53607c0.69036,0 1.25,-0.55964 1.25,-1.25c0,-0.48099 -0.27166,-0.89852 -0.66993,-1.10754c-0.13612,-1.69933 -0.20946,-3.34748 -0.11826,-5.01336c0.82574,-0.60204 1.517,-0.99276 2.18555,-1.50171c0.2043,0.05655 0.363,0.05655 0.363,0.05655l1.28063,-0.01701c2.8696,-0.64012 3.75517,-2.97554 3.46057,-5.57373c1.47583,-0.62941 2.95239,-1.25943 4.43173,-1.90243c2.1365,-0.92864 4.64388,-2.75057 7.12716,-2.82017c5.83554,-0.16354 8.56831,2.55007 13.95187,3.36809c3.63591,0.55247 7.20742,1.08118 10.80028,1.64007c0.47937,0.23218 0.85126,0.42003 0.95371,0.484z" fill="url(#color-2)"/><path d="M212.92199,208.96938c0.00831,0.02884 0.01678,0.05762 0.02539,0.08631c-0.01863,-0.00634 -0.03697,-0.01165 -0.05502,-0.01594c0.00998,-0.02244 0.01986,-0.04589 0.02963,-0.07037z" fill="url(#color-3)"/><path d="M209.03704,208.49081c0.00422,0.0072 0.00848,0.01433 0.01278,0.02138c0.00062,0.00791 0.00139,0.01576 0.00231,0.02356c-0.02121,-0.00667 -0.04241,-0.01336 -0.06361,-0.02007c0.01596,-0.00821 0.03214,-0.0165 0.04851,-0.02488z" fill="url(#color-4)"/><path d="M219.67192,204.55952c0.27736,0.11402 0.34495,0.29411 0.32059,0.51488c-0.05534,-0.1849 -0.16621,-0.36149 -0.32059,-0.51488z" fill="url(#color-5)"/><path d="M221.23321,210.74832c0.00415,0.00962 0.00835,0.01918 0.01261,0.02871l-0.0025,0.0025c-0.00588,-0.00839 -0.01186,-0.01686 -0.01792,-0.02539c0.00264,-0.00189 0.00525,-0.00383 0.00781,-0.00581z" fill="url(#color-6)"/><path d="M207.75019,157.73286c-0.02596,-0.00575 -0.05217,-0.01132 -0.07859,-0.01673c0.02214,-0.01698 0.04417,-0.03408 0.06608,-0.05129c0.00356,0.02288 0.00773,0.04556 0.01251,0.06802z" fill="url(#color-7)"/><path d="" fill="url(#color-8)"/><path d="" fill="url(#color-9)"/><path d="" fill="url(#color-10)"/><path d="M212.30082,154.77669c0.00157,-0.00057 0.00313,-0.00114 0.0047,-0.00171c0.00101,0.02455 0.00204,0.04911 0.00309,0.07368c-0.00264,-0.02377 -0.00523,-0.04776 -0.00778,-0.07197z" fill="url(#color-11)"/><path d="M205.95623,164.50341c0.5,0 0.5,0.5 0.5,0.5v0.66666c-0.00009,0.68264 -0.01703,1.36546 -0.04959,2.04732c-0.5576,3.01864 -0.949,5.53422 -2.07706,7.85506c0.86469,-0.42927 1.81538,-0.71134 2.81931,-0.8134c0.32352,-0.07811 0.6631,-0.11526 1.02124,-0.10501c7.90139,0.22622 16.42225,11.22663 11.9787,17.89195c-1.77245,2.65867 -3.01446,2.30544 -6.04687,2.61487c-5.62081,0.57355 -5.48737,-1.55295 -9.42735,-4.56462c-0.09003,-0.06882 -0.18669,-0.13818 -0.28862,-0.20822c-0.55997,-0.27267 -1.08446,-0.60686 -1.56471,-0.99376c-1.87706,-1.51223 -3.078,-3.8298 -3.078,-6.42789c0,-1.48047 0.38996,-2.86986 1.07277,-4.07105c0.0049,-0.20446 0.15702,-0.35658 0.15702,-0.35658c0.05857,-0.05857 0.11621,-0.11715 0.17293,-0.17575c0.3416,-0.50711 0.73806,-0.97422 1.18085,-1.39281c2.01325,-2.74398 2.38832,-5.63292 3.08643,-9.36775c0.02938,-0.64361 0.04305,-1.28808 0.04296,-1.93236v-0.66666c0,0 0,-0.5 0.5,-0.5z" fill="#0f132a"/><path d="M257.4877,162.29232c0.10066,-0.04238 0.19943,-0.0857 0.2966,-0.12973c1.00524,-0.77281 2.19359,-1.3192 3.48876,-1.56292c0.58398,-0.15061 1.23152,-0.22975 1.9962,-0.19394c7.21927,0.33801 8.78781,4.60695 7.76628,8.91585c-0.15971,2.16924 -1.1582,4.1053 -2.67242,5.48514c-1.10872,1.44347 -2.41719,2.60533 -3.72093,3.22566c-1.18076,0.56181 -7.73739,0.70509 -8.3014,0.46119c-0.52555,-0.22726 -4.53823,-6.4194 -4.61189,-6.91783c-0.53065,-3.59056 2.54323,-7.09323 5.20126,-8.86525z" fill="#0f132a"/><path d="M262.56353,197.12641c-0.40585,5.27612 -3.8469,8.29789 -8.72468,9.7779c-2.85375,0.86588 -7.2542,0.11542 -7.34429,-3.70034c-0.10945,-4.63556 5.06714,-7.89952 8.84965,-9.13887c2.28562,-0.74889 5.83438,-0.83947 6.44043,2.19079z" fill="#0f132a"/><path d="M222.44697,160.55898c0,-2.34721 1.90279,-4.25 4.25,-4.25c2.34721,0 4.25,1.90279 4.25,4.25c0,2.34721 -1.90279,4.25 -4.25,4.25c-2.34721,0 -4.25,-1.90279 -4.25,-4.25z" fill="#0f132a"/><path d="M227.65038,189.1801c0,0.5 -0.5,0.5 -0.5,0.5l-0.58407,-0.00375c-3.28404,0.84269 -4.58493,2.35325 -7.20309,4.11332c0,0 -0.41602,0.27735 -0.69338,-0.13868c-0.27735,-0.41602 0.13868,-0.69337 0.13868,-0.69337c2.74281,-1.81048 4.17561,-3.42772 7.63561,-4.27378l0.70625,-0.00374c0,0 0.5,0 0.5,0.5z" fill="#0f132a"/><path d="M213.4407,169.48655c0.5,0 0.5,0.5 0.5,0.5v0.41935c0,3.23857 0.03681,7.82098 -3.34091,9.54399c0,0 -0.44722,0.22361 -0.67082,-0.2236c-0.2236,-0.44721 0.22361,-0.67083 0.22361,-0.67083c2.96398,-1.44487 2.78812,-5.9063 2.78812,-8.64956v-0.41935c0,0 0,-0.5 0.5,-0.5z" fill="#0f132a"/><path d="M223.7777,180.75168c0.04132,0.49829 -0.45697,0.53961 -0.45697,0.53961l-0.92509,0.07505c-1.91416,0.47553 -2.77347,1.47311 -3.87751,2.95246c0,0 -0.3,0.4 -0.7,0.1c-0.4,-0.3 -0.1,-0.7 -0.1,-0.7c1.28177,-1.69961 2.32937,-2.78997 4.51439,-3.33907l1.00558,-0.08503c0,0 0.49829,-0.04132 0.53961,0.45697z" fill="#0f132a"/><path d="M238.9197,202.13911c0.10551,-0.48874 0.59425,-0.38323 0.59425,-0.38323l0.76716,0.16562c3.14522,0.67917 5.82275,1.79225 8.57813,3.44276c0,0 0.42875,0.25725 0.1715,0.686c-0.25725,0.42874 -0.68599,0.1715 -0.68599,0.1715c-2.65824,-1.59743 -5.2374,-2.66728 -8.27465,-3.32278l-0.76716,-0.16561c0,0 -0.48874,-0.10551 -0.38323,-0.59425z" fill="#0f132a"/><path d="M261.78778,189.34019c0.48507,0.12127 0.3638,0.60634 0.3638,0.60634l-0.1501,0.58498c0.00904,2.14301 0.16132,4.26041 0.16503,6.39052c0,0 0,0.5 -0.5,0.5c-0.5,0 -0.5,-0.5 -0.5,-0.5c0.00412,-2.16993 -0.16593,-4.32541 -0.15755,-6.51271l0.17248,-0.70533c0,0 0.12127,-0.48507 0.60634,-0.3638z" fill="#0f132a"/><path d="M256.47424,190.60074c0.35356,-0.35356 0.70711,0 0.70711,0l0.27978,0.35c0.50852,1.4562 1.14572,2.9724 1.15699,4.51969c0,0 0,0.5 -0.5,0.5c-0.5,0 -0.5,-0.5 -0.5,-0.5c0.01256,-1.41375 -0.63628,-2.85901 -1.10108,-4.19l-0.0428,0.02741c0,0 -0.35356,-0.35355 0,-0.7071z" fill="#0f132a"/><path d="M243.77281,196.76392c0.15812,-0.47434 0.63245,-0.31622 0.63245,-0.31622l0.48387,0.16129c1.54005,0.51335 2.8753,1.26902 4.51931,1.26467c0,0 0.5,0 0.5,0.5c0,0.5 -0.5,0.5 -0.5,0.5c-1.7757,-0.00425 -3.18058,-0.76432 -4.83554,-1.31598l-0.48387,-0.16129c0,0 -0.47434,-0.15812 -0.31623,-0.63246z" fill="#0f132a"/><path d="M251.74466,195.47788c-0.14218,-0.02482 -0.41686,-0.12074 -0.41686,-0.49133c0,-0.5 0.5,-0.5 0.5,-0.5l0.80765,0.37874c0.11263,0.46061 0.17371,0.93741 0.17622,1.41159c0,0 0,0.5 -0.5,0.5c-0.5,0 -0.5,-0.5 -0.5,-0.5c0.00171,-0.26681 -0.02141,-0.5351 -0.06701,-0.79899z" fill="#0f132a"/><path d="M234.26328,159.50268c0,0.5 -0.5,0.5 -0.5,0.5h-0.32258c-1.3511,0 -2.90075,0.22731 -4.19037,-0.18695c0,0 -0.47434,-0.15811 -0.31623,-0.63245c0.15812,-0.47434 0.63245,-0.31623 0.63245,-0.31623c1.14149,0.39964 2.66555,0.13563 3.87414,0.13563h0.32258c0,0 0.5,0 0.5,0.5z" fill="#0f132a"/><path d="M227.63425,151.42202c0.5,0 0.5,0.5 0.5,0.5v0.29032c0,1.78412 0.38215,4.59565 -0.56785,6.11606c0,0 -0.27735,0.41603 -0.69337,0.13868c-0.41602,-0.27735 -0.13868,-0.69338 -0.13868,-0.69338c0.83362,-1.12644 0.39989,-4.15354 0.39989,-5.56136v-0.29032c0,0 0,-0.5 0.5,-0.5z" fill="#0f132a"/><path d="M217.51916,154.09964c0.24175,-0.43768 0.67942,-0.19593 0.67942,-0.19593l0.03675,0.0203c2.39475,1.32272 4.62127,3.12148 7.04189,4.325c0,0 0.44721,0.22361 0.2236,0.67082c-0.2236,0.44721 -0.67082,0.22361 -0.67082,0.22361c-2.4342,-1.22323 -4.66681,-3.01218 -7.07816,-4.34408l-0.03675,-0.0203c0,0 -0.43767,-0.24174 -0.19592,-0.67942z" fill="#0f132a"/><path d="M216.68046,162.57673c-0.17082,-0.46991 0.29909,-0.64074 0.29909,-0.64074l0.97438,-0.34929c1.82548,-0.14836 4.27475,-0.02803 5.97381,-0.62288c0,0 0.47434,-0.15812 0.63246,0.31623c0.15812,0.47434 -0.31623,0.63246 -0.31623,0.63246c-1.79558,0.57678 -4.17319,0.51454 -6.07892,0.65165l-0.84386,0.31166c0,0 -0.46991,0.17082 -0.64073,-0.29909z" fill="#0f132a"/><path d="M225.76422,168.86437c-0.49073,-0.09584 -0.39489,-0.58657 -0.39489,-0.58657l0.17952,-0.91888c0.19518,-1.19271 0.29509,-2.29559 0.29509,-3.50141c0,0 0,-0.5 0.5,-0.5c0.5,0 0.5,0.5 0.5,0.5c0,1.26386 -0.10621,2.42826 -0.31081,3.67803l-0.18234,0.93393c0,0 -0.09583,0.49074 -0.58656,0.39489z" fill="#0f132a"/><path d="M232.86179,165.30087c-0.31434,0.38884 -0.70317,0.07449 -0.70317,0.07449l-0.55115,-0.44762c-1.49472,-0.85192 -2.79767,-1.98417 -4.45392,-2.53139c0,0 -0.47434,-0.15812 -0.31623,-0.63246c0.15812,-0.47434 0.63245,-0.31622 0.63245,-0.31622c1.74779,0.58708 3.12398,1.75052 4.70192,2.65444l0.6156,0.49558c0,0 0.38884,0.31433 0.0745,0.70317z" fill="#0f132a"/><path d="M245.71733,175.08806c-0.23804,-0.4397 0.20166,-0.67774 0.20166,-0.67774l0.52594,-0.28259c1.59435,-0.53207 4.70762,-1.67114 5.13612,-3.48989c0,0 0.12127,-0.48507 0.60634,-0.3638c0.48507,0.12127 0.36381,0.60634 0.36381,0.60634c-0.57784,2.21389 -3.71189,3.49672 -5.70825,4.16474l-0.44787,0.24461c0,0 -0.4397,0.23803 -0.67774,-0.20166z" fill="#0f132a"/><path d="M257.85395,183.21388c-0.48507,-0.12127 -0.3638,-0.60634 -0.3638,-0.60634l0.15657,-0.62473c0.64108,-1.9214 0.80312,-4.55384 1.88217,-6.19801c0,0 0.27735,-0.41603 0.69338,-0.13868c0.41602,0.27735 0.13868,0.69338 0.13868,0.69338c-1.01719,1.49572 -1.15715,4.1379 -1.75419,5.9232l-0.14646,0.58738c0,0 -0.12127,0.48508 -0.60634,0.36381z" fill="#0f132a"/><path d="M273.17219,170.75911c0,0.5 -0.5,0.5 -0.5,0.5l-0.64838,-0.00179c-1.51099,-0.25768 -2.80486,-0.60427 -4.35162,-0.60427c0,0 -0.5,0 -0.5,-0.5c0,-0.5 0.5,-0.5 0.5,-0.5c1.57401,0 2.90347,0.34455 4.43626,0.60786l0.56374,-0.00179c0,0 0.5,0 0.5,0.5z" fill="#0f132a"/><path d="M275.88785,161.71266c0.10706,0.48841 -0.38135,0.59546 -0.38135,0.59546l-0.76789,0.16699c-2.56266,0.18629 -5.20947,0.01677 -7.74182,0.44387c0,0 -0.4932,0.0822 -0.5754,-0.411c-0.0822,-0.49319 0.411,-0.5754 0.411,-0.5754c2.54541,-0.41961 5.18923,-0.26683 7.76316,-0.44718l0.69683,-0.15408c0,0 0.48841,-0.10706 0.59546,0.38134z" fill="#0f132a"/><path d="M266.96006,160.6076c0,0.5 -0.5,0.5 -0.5,0.5l-0.848,-0.00374c-0.55679,0.14008 -0.8554,0.19073 -1.16021,0.69019c0,0 -0.27735,0.41603 -0.69338,0.13868c-0.41602,-0.27735 -0.13868,-0.69338 -0.13868,-0.69338c0.51954,-0.73889 1.00593,-0.9129 1.87009,-1.12799l0.97018,-0.00375c0,0 0.5,0 0.5,0.5z" fill="#0f132a"/><path d="M242.92462,162.90561c-0.35356,0.35356 -0.70711,0 -0.70711,0l-0.3159,-0.52301c0.00215,-0.25573 0.0043,-0.51146 0.00645,-0.76719c-0.6586,-1.88643 -1.84516,-2.91342 -2.6797,-4.63355c-0.51288,-1.05713 0.34307,-2.86087 -0.57912,-3.74524c-1.32092,-1.26675 -3.09591,-1.95078 -4.1529,-3.51307c-0.35272,-1.05818 -1.052,-2.06851 -1.38504,-3.12501c-0.77799,-2.468 1.50743,-3.75867 -0.7223,-5.8918c0,0 -0.35356,-0.35355 0,-0.70711c0.35356,-0.35356 0.70711,0 0.70711,0c0.83539,0.86263 1.89301,2.21944 1.48065,3.54867c-0.23101,0.74465 -0.82569,1.88245 -0.50837,2.76045c0.35963,0.99506 0.98816,1.96112 1.32627,2.97544c0.94882,1.4604 2.80424,2.05455 3.98104,3.26521c1.156,1.18927 0.12615,2.8107 0.77654,4.04978c0.92398,1.76035 2.09724,2.85314 2.74292,4.85604c0.00215,0.30912 0.00431,0.61826 0.00646,0.92738l0.02301,-0.1841c0,0 0.35356,0.35356 0,0.70711z" fill="#120c1e"/><path d="M233.92876,156.27378c-0.5,0 -0.5,-0.5 -0.5,-0.5v-0.33891c0,-1.96799 2.03348,-2.76176 2.03348,-4.57534c0,0 0,-0.5 0.5,-0.5c0.5,0 0.5,0.5 0.5,0.5c0,1.97891 -2.03348,2.75934 -2.03348,4.57534v0.33891c0,0 0,0.5 -0.5,0.5z" fill="#120c1e"/><path d="M270.3704,193.73215c0,-0.5 0.5,-0.5 0.5,-0.5l0.29073,0.01493c0.85069,0.22115 2.00365,0.88479 2.9403,0.5191c1.18986,-0.46456 1.45934,-1.07487 2.94952,-0.86648c1.11825,0.15638 1.51846,1.25502 2.55631,1.52767c0.82003,0.21543 2.1826,-0.38356 3.17274,-0.49865c-0.05434,-0.10694 -0.10634,-0.21104 -0.15591,-0.31187c-0.72543,-1.47579 -0.42059,-3.20269 -2.22298,-3.80733c-2.87431,-0.58046 -3.76185,-1.95618 -5.96078,-3.73696l-0.35026,0.02566c0,0 -0.5,0 -0.5,-0.5c0,-0.5 0.5,-0.5 0.5,-0.5l0.66649,0.02566c2.3315,1.6574 3.04492,3.1525 5.90121,3.71915c0.42675,0.14144 0.76887,0.31687 1.04771,0.52405c0.38166,1.0222 0.87636,2.04356 1.4984,3.17062c0.00501,0.02088 0.01005,0.04182 0.01513,0.06283c0.27166,1.12545 1.62855,3.35958 3.04277,4.99562c0.24495,0.34579 0.56615,0.7591 0.93557,1.19526c-0.07664,0.27055 -0.15811,0.55919 -0.2426,0.86225c-1.44402,-1.16655 -2.75704,-3.13689 -3.67565,-4.78729c-0.10945,0.04361 -0.20779,0.04361 -0.20779,0.04361c-1.13238,-0.00346 -2.57761,0.76024 -3.65315,0.49935c-1.04622,-0.25378 -1.52965,-1.41837 -2.5274,-1.52255c-1.41501,-0.14775 -1.26272,0.38631 -2.4731,0.82808c-1.17451,0.42868 -2.43262,-0.24455 -3.49907,-0.49765l-0.04819,0.01493c0,0 -0.5,0 -0.5,-0.5z" fill="#120c1e"/><path d="M234.2593,202.20501c0,0.5 -0.5,0.5 -0.5,0.5h-0.16945c-1.48836,-0.00789 -2.37274,1.06376 -3.95861,0.84354c-2.53966,-0.35267 -4.58459,-0.97004 -7.08122,-1.01094c-0.09257,0.10283 -0.18952,0.20275 -0.29191,0.2988c-0.61507,0.0141 -5.02484,0.83473 -5.19096,1.1603c-0.41048,0.8045 -0.48013,1.67419 -0.5621,2.48992c-0.37659,0.85359 -0.7325,1.70999 -1.06564,2.58129c-0.17285,0.12716 -0.37607,0.24075 -0.61575,0.33873c-0.17441,-0.16512 -0.30639,-0.35464 -0.41231,-0.55916c-0.03285,-0.10178 -0.06843,-0.20501 -0.10656,-0.30858c2.13865,-0.75482 0.75627,-3.41054 1.91636,-5.07536c0.49999,-0.71752 4.36287,-1.51192 5.5263,-1.55015c0.05713,-0.29186 0.31766,-0.35827 0.43326,-0.37338c0.55482,-0.74175 0.99542,-1.66223 1.59196,-2.25458c1.47019,-1.45985 2.67754,-1.67212 3.43704,-3.90892l0.37205,-0.56605c0,0 0.27735,-0.41603 0.69338,-0.13868c0.41602,0.27735 0.13867,0.69338 0.13867,0.69338l-0.30578,0.45069c-0.77086,2.36186 -2.16228,2.68812 -3.68015,4.22502c-0.38778,0.39264 -0.70126,0.8731 -1.02875,1.36128c0.49919,-0.07937 1.00145,-0.14402 1.47353,-0.02704c1.73924,0.43098 4.2629,1.86651 6.19993,1.19863c0.93314,-0.32174 1.38906,-0.86382 2.51729,-0.86874h0.16945c0,0 0.5,0 0.5,0.5z" fill="#120c1e"/><path d="M219.53955,202.19036c0.34197,0.34197 0.0224,0.68395 0.0011,0.70598c0.21361,0.49555 1.54704,0.96773 1.80186,1.48971c0.33839,0.6932 -0.26554,1.72121 -0.13785,2.48365c0.18777,1.12123 0.6172,2.05255 0.67726,3.20166c-0.22231,-0.70315 -0.42174,-1.39673 -0.7794,-2.11561c-0.24659,-0.49317 -0.61031,-0.87563 -0.88661,-1.31822c-0.00314,-0.06506 -0.00479,-0.13042 -0.00479,-0.19611c0,-0.06158 0.0211,-0.18555 0.05061,-0.33989c0.2109,-0.36774 0.61285,-0.81252 0.52257,-1.12059c-0.07031,-0.23993 -0.35679,-0.4573 -0.70678,-0.63157c-0.60258,-0.49469 -1.47193,-0.40142 -1.56097,-1.636l0.3159,-0.52301c0,0 0.35355,-0.35355 0.70711,0zM219.53889,202.8922l-0.02235,-0.17883c-0.01113,0.06003 -0.00243,0.1196 0.02235,0.17883z" fill="#120c1e"/><path d="M221.23321,210.74832c0.00415,0.00962 0.00835,0.01918 0.01261,0.02871l-0.0025,0.0025c-0.00588,-0.00839 -0.01186,-0.01686 -0.01792,-0.02539c0.00264,-0.00189 0.00525,-0.00383 0.00781,-0.00581z" fill="#120c1e"/><path d="M236.44227,192.92865c-0.46884,1.92049 0.96641,3.34092 0.44241,5.25641c-0.26429,0.96612 -1.56794,1.70267 -2.27245,0.74723c-0.2789,-0.37822 0.19496,0.9267 0.19229,1.39662c-0.00561,0.98669 -0.13917,1.54589 -0.68088,2.36652c0,0 -0.27735,0.41603 -0.69338,0.13868c-0.41602,-0.27735 -0.13867,-0.69338 -0.13867,-0.69338c0.61791,-0.91584 0.00692,-3.42744 0.70522,-3.99665c0.33628,-0.27411 1.68378,0.35372 1.87081,0.24738c0.34673,-0.19717 0.02803,-0.79746 0.02608,-1.19632c-0.00832,-1.70287 -0.90481,-2.59674 -0.44393,-4.38867c-0.00459,-0.65671 0.02352,-1.31429 -0.0002,-1.96735c-1.157,0.27174 -2.75437,-0.46101 -3.84156,0.19875c-0.80485,0.48841 -0.07251,2.4248 -0.42299,3.06562c-0.73612,1.34592 -1.71311,0.5652 -2.72145,1.26928c0,0 -0.41602,0.27735 -0.69338,-0.13868c-0.27735,-0.41602 0.13867,-0.69338 0.13867,-0.69338c0.54934,-0.35447 2.14522,-0.2942 2.35227,-0.8199c0.39717,-1.00843 -0.42119,-2.67812 0.77083,-3.50036c1.66317,-1.14724 3.46396,0.16368 4.27473,-0.68615c-0.00006,-0.0003 -0.00013,-0.0006 -0.00019,-0.0009l-0.00971,-0.39651c0,0 0,-0.41878 0.38325,-0.48982c0.04263,-0.25222 0.06539,-0.55525 0.06598,-0.91854c-0.29485,-1.97549 -1.54455,-4.33309 -2.86382,-5.87461c-0.98163,-1.14701 -1.90344,-1.33544 -1.91299,-3.01369v-0.14923c0,0 0,-0.5 0.5,-0.5c0.5,0 0.5,0.5 0.5,0.5v0.14923c-0.01019,1.45761 1.38672,1.85999 2.15333,3.004c1.17921,1.75973 2.27487,3.7234 2.62038,5.80567c0.00086,0.57693 0.13562,1.17187 -0.00747,1.73078c-0.08372,0.32703 -0.19532,0.58698 -0.32976,0.79261c0.08477,0.91236 0.04183,1.83282 0.03658,2.75538z" fill="#000000"/><path d="M282.12897,190.55741l-0.41234,-0.1c-1.12819,-0.84614 -1.43235,-1.4286 -1.43579,-2.87158c0,-2.07904 -1.18849,-3.35664 -1.3457,-5.34326c-0.19856,-2.50926 1.93458,-4.37519 0.35274,-7.10584c-0.00959,-0.66047 -0.04617,-1.59931 0.16525,-2.38925c-0.29785,0.03937 -0.60113,0.05951 -0.90809,0.05951c-2.75548,0 -2.36187,2.20074 -3.65394,3.84231c-0.39267,0.49888 -1.36515,1.08906 -2.08723,1.48362c-0.02207,0.91492 -0.63307,1.85299 -1.49108,1.95344c-0.48655,-0.10877 -0.71204,0.91352 -1.19338,1.28361c0.20563,0.05271 0.39901,0.09605 0.53115,0.10557c0.56991,0.04108 1.1493,0.02801 1.70765,0.14937c2.9487,0.64094 2.88679,1.78131 2.88679,4.37821c0,0 0,0.5 -0.5,0.5c-0.5,0 -0.5,-0.5 -0.5,-0.5c0,-0.53145 0.30638,-1.97535 0.18287,-2.35656c-0.64624,-1.99455 -4.87556,-0.3289 -5.8794,-1.79145c-0.11158,-0.16257 -0.20535,-0.37034 -0.24899,-0.58112c-1.62088,-0.82736 -3.13636,1.14803 -5.17097,-0.37485c-1.23872,-0.92717 -0.04284,-1.41465 -0.35905,-2.53456l-0.01493,-0.41972c0,0 0,-0.5 0.5,-0.5c0.5,0 0.5,0.5 0.5,0.5l-0.01493,0.17719c0.20117,0.88012 -0.22167,1.135 -0.28998,1.8319c-0.01303,0.13296 1.71011,0.62945 1.71678,0.63058c1.7392,0.29665 2.10656,-1.15579 3.74426,-0.12351c0.32003,0.02738 0.68773,0.12228 0.89545,-0.07086c0.4864,-0.45225 0.84501,-1.24633 1.50668,-1.3038c0.18246,0.06681 0.31,-0.08686 0.38734,-0.32224c-0.08309,-0.01645 -0.17175,-0.06065 -0.26041,-0.14931l0.00002,-0.00001c-0.35355,-0.35355 0,-0.70711 0,-0.70711l0.28885,-0.26641c-0.22387,-0.4568 -1.80151,-0.30359 -2.17427,-0.91048c-0.37104,-0.60409 0.14519,-1.84607 -0.60118,-1.88232l-0.53074,-0.42998c0,0 -0.35355,-0.35355 0,-0.7071c0.35355,-0.35356 0.7071,0 0.7071,0l0.06617,0.16693c1.56477,0.5298 0.66047,1.17936 1.18954,2.29603c0.132,0.27859 1.48031,0.35865 1.6112,0.43429c0.2295,0.13261 0.40547,0.30383 0.5337,0.49909c2.34318,-1.67194 2.55718,-5.30075 6.01494,-5.30075c0.54982,0 1.0779,-0.06603 1.5753,-0.19668c0.10399,-0.08388 0.22063,-0.15545 0.35144,-0.21237c0.14739,-0.06413 0.34445,-0.09714 0.56626,-0.11879c0.97966,-0.45936 1.78999,-1.21494 2.34136,-2.25249c0.51432,-0.96783 -0.03777,-1.87815 0.2974,-2.83204c0.49073,-1.3966 2.68327,-1.34335 3.83039,-1.11859c0,0 0.44493,0.08899 0.40232,0.52127c-0.67683,-0.03682 -1.21708,-0.02592 -1.43402,0.02831c-0.88312,0.22078 -1.27474,0.78443 -1.45441,1.45542c-0.17138,0.30921 -0.26939,0.63854 -0.33307,0.98023c-0.01384,0.10331 -0.02998,0.20838 -0.04964,0.31472c-0.09075,0.68127 -0.09566,1.40074 -0.30645,2.10037c-0.00474,0.00237 -0.00952,0.00469 -0.01434,0.00696c-1.02851,0.48466 -2.11969,1.00106 -2.97838,1.72664c-0.22928,0.10413 -0.46553,0.19537 -0.70761,0.27314c-0.20964,0.24957 -0.30251,0.71087 -0.34397,1.17367c-0.45361,1.67018 0.58454,4.25849 0.49009,5.72791c-0.01373,0.21357 -0.02634,0.42302 -0.03782,0.62852c-0.01109,0.05413 -0.02248,0.10762 -0.03417,0.16042c-0.17929,0.81016 -0.87231,1.06562 -0.77547,1.9704c0.11341,1.05959 0.48746,1.92597 0.81322,2.82579c0.09692,1.14672 0.27701,2.16543 0.55217,3.14506c0.02821,0.37673 0.10218,0.62759 0.26831,0.85805c0.18093,0.52515 0.3911,1.04648 0.63243,1.57836c-0.04088,0.00612 -0.06743,0.00612 -0.06743,0.00612z" fill="#000000"/><path d="M229.3277,157.94843c0,-0.30197 0.18238,-0.42157 0.32684,-0.46894c0.10729,-0.54568 -0.22862,-1.94009 0.72054,-2.7254c1.47779,-1.22269 1.64324,0.6479 3.1833,0.60516c0,0 0.5,0 0.5,0.5c0,0.5 -0.5,0.5 -0.5,0.5c-0.76776,-0.01442 -2.15984,-1.19871 -2.32282,-1.20099c-1.14166,-0.01597 -0.65515,2.71213 -0.8426,3.06752l-0.56526,0.22265c0,0 -0.5,0 -0.5,-0.5zM229.56708,157.66595l-0.00617,0.00515c0.00209,-0.00166 0.00415,-0.00338 0.00617,-0.00515z" fill="#000000"/><path d="M253.75634,165.85748c0,0.5 -0.5,0.5 -0.5,0.5h-0.44768c-1.63763,0 -2.60608,0.65599 -3.69902,-0.96878c-0.34488,-0.8281 -1.67484,1.14776 -2.23519,1.38134c-0.9608,0.40051 -3.06413,0.1628 -4.05747,-0.19638c-2.39769,-0.867 -4.50836,-4.32771 -0.60344,-4.34994c0,0 0.5,0 0.5,0.5c0,0.5 -0.5,0.5 -0.5,0.5c-2.98514,-0.02087 0.18463,2.37791 1.56054,2.58614c0.69716,0.1055 2.10583,0.299 2.73216,0.03044c1.28875,-0.55257 1.96215,-2.88787 3.43544,-1.00629c0.79384,1.2037 1.56143,0.52348 2.86697,0.52348h0.44768c0,0 0.5,0 0.5,0.5z" fill="#000000"/><path d="M222.4643,148.28859c-0.44659,2.63973 -4.44797,2.86382 -6.38445,3.33909c-0.84457,0.14988 0.21221,5.29763 0.16262,6.39836c-0.0528,1.17223 0.25626,1.4047 -0.91162,1.65745c-0.58824,0.1273 -1.66914,-0.62357 -1.8052,-0.03729c-0.18206,0.78453 0.25696,1.90555 0.55032,2.63609c0,0 0.04563,0.11409 0.0351,0.25177c0.07795,0.10152 0.15046,0.19529 0.21692,0.27863c1.15862,2.23642 1.02703,3.26382 3.66646,3.92339c0.3423,0.08554 0.70463,0.54603 0.99861,0.35094c0.94177,-0.625 -0.06037,-1.74366 1.55158,-2.15541c1.2118,-0.30954 2.60742,0.99027 2.89535,-0.70996l-0.00243,-0.60634c0,0 0,-0.5 0.5,-0.5c0.5,0 0.5,0.5 0.5,0.5l-0.00243,0.70488c-0.56555,2.57915 -1.87438,1.30045 -3.66073,1.58467c-0.78915,0.12556 -0.62989,1.69028 -1.39865,2.10604c-0.15751,0.08518 -1.36576,-0.24013 -1.62383,-0.30467c-2.9094,-0.72768 -3.01279,-1.92197 -4.26267,-4.349c-0.41531,-0.51721 -1.95007,-2.71034 -2.68287,-2.54141c-1.03814,0.23932 -0.40165,1.65237 -2.35571,1.49012c-1.18269,-0.0982 -1.91244,-1.02018 -2.83514,-1.55199c-0.85401,-0.49222 -1.89869,-0.13937 -2.81556,-0.43404c0,0 -0.47434,-0.15811 -0.31623,-0.63246c0.13054,-0.39163 0.47665,-0.35214 0.59338,-0.32646c0.07686,0.03521 0.15791,0.06285 0.2422,0.08198l0.96869,0.24217c0.20104,0.13806 0.44448,0.21886 0.70679,0.21886c0.07018,0 0.139,-0.00578 0.20603,-0.0169c0.50839,0.1901 0.99886,0.31718 1.48462,0.37034c0.1242,0.09193 0.24508,0.18665 0.36628,0.2801c0.12999,0.15316 0.29623,0.27459 0.48545,0.35104c0.31079,0.20143 0.65143,0.36413 1.07367,0.43026c0.32045,0.05019 0.53095,0.03093 0.67581,-0.03413c0.59216,-0.09837 1.04363,-0.61299 1.04363,-1.23304c0,-0.03372 -0.00134,-0.06713 -0.00396,-0.10017l0.09818,-0.06655c0.02944,-0.00928 0.06011,-0.01803 0.09208,-0.02623c0.40411,-0.10362 0.81739,0.00226 1.22014,0.23009c0.01118,0.06964 0.05719,0.21285 0.24641,0.21285c0.02637,0 0.04996,-0.00278 0.07106,-0.00776c0.16535,0.11961 0.32795,0.25646 0.48637,0.40416c-0.06983,-0.39089 -0.09466,-0.77592 -0.03451,-1.10768c0.19845,-0.13608 0.37366,-0.35834 0.46834,-0.7159c0.19848,-0.06672 0.45758,-0.05107 0.73132,-0.00828c0.1878,0.1128 0.40768,0.17767 0.64271,0.17767c0.07169,0 0.14197,-0.00603 0.21035,-0.01762c0.41541,0.06426 0.74168,0.04707 0.77806,-0.29258c0.00681,-0.06357 0.01192,-0.12856 0.01547,-0.19487c0.15463,-0.20804 0.24612,-0.4658 0.24612,-0.74493c0,-0.3464 -0.1409,-0.65989 -0.36852,-0.88628c-0.13058,-0.85008 -0.32923,-1.76956 -0.44294,-2.64617c-0.02243,-0.71634 -0.02419,-1.42936 0.00279,-2.14451c0.04352,-0.19954 0.10425,-0.38796 0.18555,-0.56282c0.5607,-0.399 1.06029,-0.70695 1.53609,-1.03393c0.52779,-0.10126 1.07689,-0.18811 1.61722,-0.30258l0.5108,-0.00678c2.90435,-0.64787 3.77633,-3.03235 3.44935,-5.66823l0.10441,-0.02088c0.04171,-0.00749 0.08271,-0.01705 0.12287,-0.02857c0.05742,1.25181 0.35712,2.56081 0.14823,3.79546z" fill="#000000"/></g></g></svg>