<svg version="1.1" xmlns="http://www.w3.org/2000/svg" xmlns:xlink="http://www.w3.org/1999/xlink" width="95.10701" height="76.59214" viewBox="0,0,95.10701,76.59214"><defs><radialGradient cx="233.18682" cy="141.05955" r="50.59894" gradientUnits="userSpaceOnUse" id="color-1"><stop offset="0" stop-color="#4d0a70"/><stop offset="1" stop-color="#334070"/></radialGradient><linearGradient x1="242.15444" y1="138.04598" x2="242.15444" y2="218.2961" gradientUnits="userSpaceOnUse" id="color-2"><stop offset="0" stop-color="#6d6670"/><stop offset="1" stop-color="#05223b"/></linearGradient><linearGradient x1="242.15444" y1="138.04598" x2="242.15444" y2="218.2961" gradientUnits="userSpaceOnUse" id="color-3"><stop offset="0" stop-color="#6d6670"/><stop offset="1" stop-color="#05223b"/></linearGradient><linearGradient x1="242.15444" y1="138.04598" x2="242.15444" y2="218.2961" gradientUnits="userSpaceOnUse" id="color-4"><stop offset="0" stop-color="#6d6670"/><stop offset="1" stop-color="#05223b"/></linearGradient><linearGradient x1="242.15444" y1="138.04598" x2="242.15444" y2="218.2961" gradientUnits="userSpaceOnUse" id="color-5"><stop offset="0" stop-color="#6d6670"/><stop offset="1" stop-color="#05223b"/></linearGradient><linearGradient x1="242.15444" y1="138.04598" x2="242.15444" y2="218.2961" gradientUnits="userSpaceOnUse" id="color-6"><stop offset="0" stop-color="#6d6670"/><stop offset="1" stop-color="#05223b"/></linearGradient><linearGradient x1="242.15444" y1="138.04598" x2="242.15444" y2="218.2961" gradientUnits="userSpaceOnUse" id="color-7"><stop offset="0" stop-color="#6d6670"/><stop offset="1" stop-color="#05223b"/></linearGradient><linearGradient x1="246.66403" y1="140.05246" x2="246.66403" y2="220.30258" gradientUnits="userSpaceOnUse" id="color-8"><stop offset="0" stop-color="#6d6670"/><stop offset="1" stop-color="#05223b"/></linearGradient><linearGradient x1="246.66403" y1="140.05246" x2="246.66403" y2="220.30258" gradientUnits="userSpaceOnUse" id="color-9"><stop offset="0" stop-color="#6d6670"/><stop offset="1" stop-color="#05223b"/></linearGradient><linearGradient x1="246.66403" y1="140.05246" x2="246.66403" y2="220.30258" gradientUnits="userSpaceOnUse" id="color-10"><stop offset="0" stop-color="#6d6670"/><stop offset="1" stop-color="#05223b"/></linearGradient><linearGradient x1="246.66403" y1="140.05246" x2="246.66403" y2="220.30258" gradientUnits="userSpaceOnUse" id="color-11"><stop offset="0" stop-color="#6d6670"/><stop offset="1" stop-color="#05223b"/></linearGradient><linearGradient x1="246.66403" y1="140.05246" x2="246.66403" y2="220.30258" gradientUnits="userSpaceOnUse" id="color-12"><stop offset="0" stop-color="#6d6670"/><stop offset="1" stop-color="#05223b"/></linearGradient></defs><g transform="translate(-192.4465,-141.70393)"><g data-paper-data="{&quot;isPaintingLayer&quot;:true}" fill-rule="nonzero" stroke="none" stroke-width="0.5" stroke-linecap="butt" stroke-linejoin="miter" stroke-miterlimit="10" stroke-dasharray="" stroke-dashoffset="0" style="mix-blend-mode: normal"><path d="" fill="url(#color-1)"/><path d="M272.68356,149.5285c1.89816,0.63425 4.60707,1.2836 6.5365,2.19272c1.32953,0.95874 2.71019,2.4425 4.15231,3.90797c1.75743,2.42637 2.9253,5.10025 3.8676,7.88845c-0.00415,0.06706 -0.00807,0.13504 -0.01175,0.2039c-0.52357,-0.01773 -0.93039,-0.00266 -1.1116,0.04264c-2.60347,0.65087 -0.93538,4.28163 -2.15791,4.85771c-1.31691,0.62056 -2.73656,1.29316 -3.63936,2.39027c-1.24329,1.51087 0.21051,4.78392 0.09949,6.51111c-0.40903,6.36359 0.17073,9.06097 2.41496,13.13272c-0.09914,1.34482 -0.2331,2.55255 -1.59661,2.61532c-2.15633,0.09927 -4.68352,-2.26215 -6.33722,-1.31719c-1.65347,0.94484 -0.57771,3.27913 -1.76434,4.49965c-1.62038,1.66667 -1.19576,3.08669 -1.8675,5.08475c-0.07777,0.23132 -1.70706,1.42697 -2.01196,1.79136c-1.27165,1.51978 -1.34777,3.45475 -1.84687,5.24534c-0.39783,1.42729 -2.96461,0.2053 -3.63942,1.86988c-0.77924,1.92221 -0.99912,4.89802 -0.55024,7.03924c-1.0796,0.2608 -2.11434,0.50914 -3.03255,0.74586c-12.06654,0.74768 -19.52809,-5.05963 -31.71851,-7.8125c-2.21443,-0.50007 -4.41762,-0.86512 -6.59389,-1.19565c-0.42023,-1.06214 -0.60353,-2.06744 -1.13107,-3.12776c-0.26039,-0.52078 -0.65141,-0.91811 -0.93216,-1.39315c-0.21187,-0.35849 0.7486,-1.12215 0.61394,-1.58167c-0.12641,-0.43135 -0.95149,-0.78977 -1.58822,-0.95598c-0.16498,-0.16444 -0.40694,-0.29351 -0.76106,-0.33286c-1.24235,-0.13804 -1.38039,1.10432 -1.38039,1.10432l-0.04013,0.69456c-0.13505,0.16189 -0.20026,0.30535 -0.20026,0.30535c-0.5607,1.2339 -1.0793,2.46685 -1.54949,3.73547l-0.03526,0.03526c-0.02772,0.02772 -0.05414,0.05673 -0.07916,0.08694c-0.34902,-0.20977 -0.57517,-0.49019 -0.73898,-0.8065c-0.08132,-0.25193 -0.17934,-0.51272 -0.2913,-0.76548c-0.17815,-0.60001 -0.30813,-1.22801 -0.69309,-1.71001c-0.55546,-0.69548 -2.27428,-0.56757 -3.0841,-0.56769c-0.65647,0.00657 -1.41069,0.20605 -2.14232,0.4762c-0.02549,0.00453 -0.04878,0.00857 -0.0697,0.01205c-0.29111,0.04852 -1.76721,0.52659 -2.28037,1.04633c-2.7068,-1.1933 -5.27857,-2.84292 -7.67173,-5.2283c-3.07625,-3.06625 -4.6139,-7.47498 -5.37334,-12.13614c0.31706,-0.21431 0.60581,-0.52931 0.8544,-0.96433c0.16212,-0.2837 0.19898,-0.69411 0.1739,-1.16397c1.16884,-1.33722 1.91823,-3.59968 2.28477,-5.64077c1.49643,-0.83199 2.89946,-1.68425 3.22119,-3.63964c0.57148,-3.47329 -0.53127,-8.45001 1.32273,-11.72419c0.79977,-1.41239 2.32665,-1.21034 3.17283,-2.4796c0.84886,-1.27329 -1.12656,-2.82693 0.28142,-4.16226c0.14855,-0.14089 0.32408,-0.25429 0.51983,-0.3478c0.11352,0.03391 0.23382,0.05213 0.35836,0.05213c0.07018,0 0.139,-0.00578 0.20603,-0.0169c0.57642,0.21554 1.12981,0.35006 1.67941,0.38769c0.20262,0.41694 0.63021,0.70434 1.12493,0.70434c0.04927,0 0.09788,-0.00285 0.14566,-0.0084c0.03269,0.00609 0.06518,0.0106 0.09733,0.01371c0.22101,0.1973 0.51257,0.31722 0.83214,0.31722c0.69036,0 1.25,-0.55964 1.25,-1.25c0,-0.03372 -0.00134,-0.06713 -0.00396,-0.10017l0.13107,-0.08884c0.06676,-0.10491 0.13352,-0.20982 0.20028,-0.31473c0.0887,0.01677 0.17445,0.03708 0.2532,0.06578l0.55406,0.14545c0,0 0.07942,0.01986 0.2027,0.02908c0.02611,0.07832 0.05222,0.15665 0.07832,0.23497l-0.01283,0.02846c0,0 0,0.14643 0.11207,0.21516c0.76666,2.33196 1.78882,4.49357 2.49829,5.09686c3.27572,2.78548 5.5127,3.47875 9.56743,2.50398c0.22203,-0.05338 0.21097,0.40701 0.34527,0.5917c0.95746,1.31666 2.07939,1.5424 3.64254,1.06321c1.12207,-0.34398 0.75821,-2.06523 1.46739,-2.5425c0.95091,-0.63995 3.26584,0.071 3.74567,-1.4942c0.26204,-0.85478 0.44886,-1.89445 0.08176,-2.76079c-0.10676,-0.25195 -0.9048,-1.22813 -0.88981,-1.26043c0.47585,-1.02539 2.22019,-1.60537 2.70262,-3.19606c0.2918,-0.96215 0.11404,-1.79501 -0.04103,-2.61625c0.74707,-0.72826 1.40345,-1.55435 1.73412,-1.75278c1.16933,-0.70172 2.03534,-1.66622 2.75066,-2.71937c0.77169,-0.17194 1.46201,-0.45956 1.8981,-1.10618c0.05634,-0.08355 0.17199,-0.30737 0.2098,-0.41961c0.28586,-0.84842 1.28522,-1.16044 1.41389,-2.26661c0.02166,-0.18618 -0.01113,-1.18927 0.03111,-2.04217c0.24921,-0.26533 0.51655,-0.49948 0.80884,-0.69466c1.37483,-0.91807 3.65033,-0.84351 5.66676,-1.08559c2.3519,0.35503 4.68279,0.70393 7.01626,1.06153c0.33759,0.35176 0.62909,0.6993 0.71363,1.09851c0.31372,1.48143 -0.12423,3.29979 0.71824,4.62368c0.10235,0.16083 0.22998,0.30799 0.37472,0.43205c1.78559,1.5305 5.49507,1.45727 7.23563,-0.09885c0.20971,-0.18749 0.56401,-0.71724 0.92036,-1.21531c1.7403,0.66535 4.24735,1.32642 6.58495,1.92294z" fill="url(#color-2)"/><path d="" fill="url(#color-3)"/><path d="" fill="url(#color-4)"/><path d="" fill="url(#color-5)"/><path d="M219.31303,202.69809c0.27736,0.11402 0.34495,0.29411 0.32059,0.51488c-0.05534,-0.1849 -0.16621,-0.36149 -0.32059,-0.51488z" fill="url(#color-6)"/><path d="" fill="url(#color-7)"/><path d="" fill="url(#color-8)"/><path d="" fill="url(#color-9)"/><path d="" fill="url(#color-10)"/><path d="" fill="url(#color-11)"/><path d="" fill="url(#color-12)"/><path d="M205.59734,162.64198c0.5,0 0.5,0.5 0.5,0.5v0.66666c-0.00009,0.68264 -0.01703,1.36546 -0.04959,2.04732c-0.5576,3.01864 -0.949,5.53422 -2.07706,7.85506c0.86469,-0.42927 1.81538,-0.71134 2.81931,-0.8134c0.32352,-0.07811 0.6631,-0.11526 1.02124,-0.10501c7.90139,0.22622 16.42225,11.22663 11.9787,17.89195c-1.77245,2.65867 -3.01446,2.30544 -6.04687,2.61487c-5.62081,0.57355 -5.48737,-1.55295 -9.42735,-4.56462c-0.09003,-0.06882 -0.18669,-0.13818 -0.28862,-0.20822c-0.55997,-0.27267 -1.08446,-0.60686 -1.56471,-0.99376c-1.87706,-1.51223 -3.078,-3.8298 -3.078,-6.42789c0,-1.48047 0.38996,-2.86986 1.07277,-4.07105c0.0049,-0.20446 0.15702,-0.35658 0.15702,-0.35658c0.05857,-0.05857 0.11621,-0.11715 0.17293,-0.17575c0.3416,-0.50711 0.73806,-0.97422 1.18085,-1.39281c2.01325,-2.74398 2.38832,-5.63292 3.08643,-9.36775c0.02938,-0.64361 0.04305,-1.28808 0.04296,-1.93236v-0.66666c0,0 0,-0.5 0.5,-0.5z" fill="#0f132a"/><path d="M257.12881,160.43089c0.10066,-0.04238 0.19943,-0.0857 0.2966,-0.12973c1.00524,-0.77281 2.19359,-1.3192 3.48876,-1.56292c0.58398,-0.15061 1.23152,-0.22975 1.9962,-0.19394c7.21927,0.33801 8.78781,4.60695 7.76628,8.91585c-0.15971,2.16924 -1.1582,4.1053 -2.67242,5.48514c-1.10872,1.44347 -2.41719,2.60533 -3.72093,3.22566c-1.18076,0.56181 -7.73739,0.70509 -8.3014,0.46119c-0.52555,-0.22726 -4.53823,-6.4194 -4.61189,-6.91783c-0.53065,-3.59056 2.54323,-7.09323 5.20126,-8.86525z" fill="#0f132a"/><path d="M262.20464,195.26498c-0.40585,5.27612 -3.8469,8.29789 -8.72468,9.7779c-2.85375,0.86588 -7.2542,0.11542 -7.34429,-3.70034c-0.10945,-4.63556 5.06714,-7.89952 8.84965,-9.13887c2.28562,-0.74889 5.83438,-0.83947 6.44043,2.19079z" fill="#0f132a"/><path d="" fill="#0f132a"/><path d="M227.29149,187.31867c0,0.5 -0.5,0.5 -0.5,0.5l-0.58407,-0.00375c-3.28404,0.84269 -4.58493,2.35325 -7.20309,4.11332c0,0 -0.41602,0.27735 -0.69338,-0.13868c-0.27735,-0.41602 0.13868,-0.69337 0.13868,-0.69337c2.74281,-1.81048 4.17561,-3.42772 7.63561,-4.27378l0.70625,-0.00374c0,0 0.5,0 0.5,0.5z" fill="#0f132a"/><path d="M213.08181,167.62512c0.5,0 0.5,0.5 0.5,0.5v0.41935c0,3.23857 0.03681,7.82098 -3.34091,9.54399c0,0 -0.44722,0.22361 -0.67082,-0.2236c-0.2236,-0.44721 0.22361,-0.67083 0.22361,-0.67083c2.96398,-1.44487 2.78812,-5.9063 2.78812,-8.64956v-0.41935c0,0 0,-0.5 0.5,-0.5z" fill="#0f132a"/><path d="M223.41881,178.89025c0.04132,0.49829 -0.45697,0.53961 -0.45697,0.53961l-0.92509,0.07505c-1.91416,0.47553 -2.77347,1.47311 -3.87751,2.95246c0,0 -0.3,0.4 -0.7,0.1c-0.4,-0.3 -0.1,-0.7 -0.1,-0.7c1.28177,-1.69961 2.32937,-2.78997 4.51439,-3.33907l1.00558,-0.08503c0,0 0.49829,-0.04132 0.53961,0.45697z" fill="#0f132a"/><path d="M238.56081,200.27768c0.10551,-0.48874 0.59425,-0.38323 0.59425,-0.38323l0.76716,0.16562c3.14522,0.67917 5.82275,1.79225 8.57813,3.44276c0,0 0.42875,0.25725 0.1715,0.686c-0.25725,0.42874 -0.68599,0.1715 -0.68599,0.1715c-2.65824,-1.59743 -5.2374,-2.66728 -8.27465,-3.32278l-0.76716,-0.16561c0,0 -0.48874,-0.10551 -0.38323,-0.59425z" fill="#0f132a"/><path d="M261.42889,187.47876c0.48507,0.12127 0.3638,0.60634 0.3638,0.60634l-0.1501,0.58498c0.00904,2.14301 0.16132,4.26041 0.16503,6.39052c0,0 0,0.5 -0.5,0.5c-0.5,0 -0.5,-0.5 -0.5,-0.5c0.00412,-2.16993 -0.16593,-4.32541 -0.15755,-6.51271l0.17248,-0.70533c0,0 0.12127,-0.48507 0.60634,-0.3638z" fill="#0f132a"/><path d="M256.11535,188.73931c0.35356,-0.35356 0.70711,0 0.70711,0l0.27978,0.35c0.50852,1.4562 1.14572,2.9724 1.15699,4.51969c0,0 0,0.5 -0.5,0.5c-0.5,0 -0.5,-0.5 -0.5,-0.5c0.01256,-1.41375 -0.63628,-2.85901 -1.10108,-4.19l-0.0428,0.02741c0,0 -0.35356,-0.35355 0,-0.7071z" fill="#0f132a"/><path d="M243.41392,194.90249c0.15812,-0.47434 0.63245,-0.31622 0.63245,-0.31622l0.48387,0.16129c1.54005,0.51335 2.8753,1.26902 4.51931,1.26467c0,0 0.5,0 0.5,0.5c0,0.5 -0.5,0.5 -0.5,0.5c-1.7757,-0.00425 -3.18058,-0.76432 -4.83554,-1.31598l-0.48387,-0.16129c0,0 -0.47434,-0.15812 -0.31623,-0.63246z" fill="#0f132a"/><path d="M251.38577,193.61645c-0.14218,-0.02482 -0.41686,-0.12074 -0.41686,-0.49133c0,-0.5 0.5,-0.5 0.5,-0.5l0.80765,0.37874c0.11263,0.46061 0.17371,0.93741 0.17622,1.41159c0,0 0,0.5 -0.5,0.5c-0.5,0 -0.5,-0.5 -0.5,-0.5c0.00171,-0.26681 -0.02141,-0.5351 -0.06701,-0.79899z" fill="#0f132a"/><path d="M233.40439,158.14125h-0.02203c0.17922,-0.155 0.35678,-0.31837 0.52202,-0.49625c-0.00249,0.49625 -0.49999,0.49625 -0.49999,0.49625z" fill="#0f132a"/><path d="" fill="#0f132a"/><path d="" fill="#0f132a"/><path d="" fill="#0f132a"/><path d="" fill="#0f132a"/><path d="" fill="#0f132a"/><path d="M245.35844,173.22663c-0.23804,-0.4397 0.20166,-0.67774 0.20166,-0.67774l0.52594,-0.28259c1.59435,-0.53207 4.70762,-1.67114 5.13612,-3.48989c0,0 0.12127,-0.48507 0.60634,-0.3638c0.48507,0.12127 0.36381,0.60634 0.36381,0.60634c-0.57784,2.21389 -3.71189,3.49672 -5.70825,4.16474l-0.44787,0.24461c0,0 -0.4397,0.23803 -0.67774,-0.20166z" fill="#0f132a"/><path d="M257.49506,181.35245c-0.48507,-0.12127 -0.3638,-0.60634 -0.3638,-0.60634l0.15657,-0.62473c0.64108,-1.9214 0.80312,-4.55384 1.88217,-6.19801c0,0 0.27735,-0.41603 0.69338,-0.13868c0.41602,0.27735 0.13868,0.69338 0.13868,0.69338c-1.01719,1.49572 -1.15715,4.1379 -1.75419,5.9232l-0.14646,0.58738c0,0 -0.12127,0.48508 -0.60634,0.36381z" fill="#0f132a"/><path d="M272.8133,168.89768c0,0.5 -0.5,0.5 -0.5,0.5l-0.64838,-0.00179c-1.51099,-0.25768 -2.80486,-0.60427 -4.35162,-0.60427c0,0 -0.5,0 -0.5,-0.5c0,-0.5 0.5,-0.5 0.5,-0.5c1.57401,0 2.90347,0.34455 4.43626,0.60786l0.56374,-0.00179c0,0 0.5,0 0.5,0.5z" fill="#0f132a"/><path d="M275.52896,159.85123c0.10706,0.48841 -0.38135,0.59546 -0.38135,0.59546l-0.76789,0.16699c-2.56266,0.18629 -5.20947,0.01677 -7.74182,0.44387c0,0 -0.4932,0.0822 -0.5754,-0.411c-0.0822,-0.49319 0.411,-0.5754 0.411,-0.5754c2.54541,-0.41961 5.18923,-0.26683 7.76316,-0.44718l0.69683,-0.15408c0,0 0.48841,-0.10706 0.59546,0.38134z" fill="#0f132a"/><path d="M266.60117,158.74617c0,0.5 -0.5,0.5 -0.5,0.5l-0.848,-0.00374c-0.55679,0.14008 -0.8554,0.19073 -1.16021,0.69019c0,0 -0.27735,0.41603 -0.69338,0.13868c-0.41602,-0.27735 -0.13868,-0.69338 -0.13868,-0.69338c0.51954,-0.73889 1.00593,-0.9129 1.87009,-1.12799l0.97018,-0.00375c0,0 0.5,0 0.5,0.5z" fill="#0f132a"/><path d="M242.56573,161.04418c-0.35356,0.35356 -0.70711,0 -0.70711,0l-0.3159,-0.52301c0.00215,-0.25573 0.0043,-0.51146 0.00645,-0.76719c-0.6586,-1.88643 -1.84516,-2.91342 -2.6797,-4.63355c-0.51288,-1.05713 0.34307,-2.86087 -0.57912,-3.74524c-0.16584,-0.15904 -0.33884,-0.30889 -0.51667,-0.45245c0.24005,-0.23568 0.46432,-0.48372 0.6755,-0.74107c0.20083,0.1583 0.39181,0.32542 0.56763,0.50631c1.156,1.18927 0.12615,2.8107 0.77654,4.04978c0.92398,1.76035 2.09724,2.85314 2.74292,4.85604c0.00215,0.30912 0.00431,0.61826 0.00646,0.92738l0.02301,-0.1841c0,0 0.35356,0.35356 0,0.70711z" fill="#120c1e"/><path d="" fill="#120c1e"/><path d="M270.51151,191.37072l0.29073,0.01493c0.85069,0.22115 2.00365,0.88479 2.9403,0.5191c1.18986,-0.46456 1.45934,-1.07487 2.94952,-0.86648c1.11825,0.15638 1.51846,1.25502 2.55631,1.52767c0.82003,0.21543 2.1826,-0.38356 3.17274,-0.49865c-0.05434,-0.10694 -0.10634,-0.21104 -0.15591,-0.31187c-0.72543,-1.47579 -0.42059,-3.20269 -2.22298,-3.80733c-2.87431,-0.58046 -3.76185,-1.95618 -5.96078,-3.73696l-0.35026,0.02566c0,0 -0.5,0 -0.5,-0.5c0,-0.5 0.5,-0.5 0.5,-0.5l0.66649,0.02566c2.3315,1.6574 3.04492,3.1525 5.90121,3.71915c0.42675,0.14144 0.76887,0.31687 1.04771,0.52405c0.37937,1.01606 0.87042,2.0313 1.48721,3.15033c-0.08472,1.14916 -0.19485,2.19822 -1.07587,2.51833c-0.11385,0.02527 -0.2288,0.05295 -0.34432,0.08171c-0.0564,0.00735 -0.11517,0.01248 -0.17642,0.0153c-2.15633,0.09927 -4.68352,-2.26215 -6.33722,-1.31719c-0.39399,0.22514 -0.63302,0.52916 -0.78462,0.87822c-0.01852,0.00705 -0.03738,0.01408 -0.05657,0.02109c-1.17451,0.42868 -2.43262,-0.24455 -3.49907,-0.49765l-0.04819,0.01493c0,0 -0.49999,0 -0.5,-0.49999v-0.00001c0.00001,-0.49999 0.5,-0.49999 0.5,-0.49999z" fill="#120c1e"/><path d="M233.90041,200.34358c0,0.5 -0.5,0.5 -0.5,0.5h-0.16945c-1.48836,-0.00789 -2.37274,1.06376 -3.95861,0.84354c-2.53966,-0.35267 -4.58459,-0.97004 -7.08122,-1.01094c-0.09257,0.10283 -0.18952,0.20275 -0.29191,0.2988c-0.61507,0.0141 -5.02484,0.83473 -5.19096,1.1603c-0.41048,0.8045 -0.48013,1.67419 -0.5621,2.48992c-0.37659,0.85359 -0.7325,1.70999 -1.06564,2.58129c-0.17285,0.12716 -0.37607,0.24075 -0.61575,0.33873c-0.17441,-0.16512 -0.30639,-0.35464 -0.41231,-0.55916c-0.03285,-0.10178 -0.06843,-0.20501 -0.10656,-0.30858c2.13865,-0.75482 0.75627,-3.41054 1.91636,-5.07536c0.49999,-0.71752 4.36287,-1.51192 5.5263,-1.55015c0.05713,-0.29186 0.31766,-0.35827 0.43326,-0.37338c0.55482,-0.74175 0.99542,-1.66223 1.59196,-2.25458c1.47019,-1.45985 2.67754,-1.67212 3.43704,-3.90892l0.37205,-0.56605c0,0 0.27735,-0.41603 0.69338,-0.13868c0.41602,0.27735 0.13867,0.69338 0.13867,0.69338l-0.30578,0.45069c-0.77086,2.36186 -2.16228,2.68812 -3.68015,4.22502c-0.38778,0.39264 -0.70126,0.8731 -1.02875,1.36128c0.49919,-0.07937 1.00145,-0.14402 1.47353,-0.02704c1.73924,0.43098 4.2629,1.86651 6.19993,1.19863c0.93314,-0.32174 1.38906,-0.86382 2.51729,-0.86874h0.16945c0,0 0.5,0 0.5,0.5z" fill="#120c1e"/><path d="M219.18066,200.32893c0.34197,0.34197 0.0224,0.68395 0.0011,0.70598c0.21361,0.49555 1.54704,0.96773 1.80186,1.48971c0.33839,0.6932 -0.26554,1.72121 -0.13785,2.48365c0.18777,1.12123 0.6172,2.05255 0.67726,3.20166c-0.22231,-0.70315 -0.42174,-1.39673 -0.7794,-2.11561c-0.24659,-0.49317 -0.61031,-0.87563 -0.88661,-1.31822c-0.00314,-0.06506 -0.00479,-0.13042 -0.00479,-0.19611c0,-0.06158 0.0211,-0.18555 0.05061,-0.33989c0.2109,-0.36774 0.61285,-0.81252 0.52257,-1.12059c-0.07031,-0.23993 -0.35679,-0.4573 -0.70678,-0.63157c-0.60258,-0.49469 -1.47193,-0.40142 -1.56097,-1.636l0.3159,-0.52301c0,0 0.35355,-0.35355 0.70711,0zM219.18,201.03077l-0.02235,-0.17883c-0.01113,0.06003 -0.00243,0.1196 0.02235,0.17883z" fill="#120c1e"/><path d="" fill="#120c1e"/><path d="M236.08338,191.06722c-0.46884,1.92049 0.96641,3.34092 0.44241,5.25641c-0.26429,0.96612 -1.56794,1.70267 -2.27245,0.74723c-0.2789,-0.37822 0.19496,0.9267 0.19229,1.39662c-0.00561,0.98669 -0.13917,1.54589 -0.68088,2.36652c0,0 -0.27735,0.41603 -0.69338,0.13868c-0.41602,-0.27735 -0.13867,-0.69338 -0.13867,-0.69338c0.61791,-0.91584 0.00692,-3.42744 0.70522,-3.99665c0.33628,-0.27411 1.68378,0.35372 1.87081,0.24738c0.34673,-0.19717 0.02803,-0.79746 0.02608,-1.19632c-0.00832,-1.70287 -0.90481,-2.59674 -0.44393,-4.38867c-0.00459,-0.65671 0.02352,-1.31429 -0.0002,-1.96735c-1.157,0.27174 -2.75437,-0.46101 -3.84156,0.19875c-0.80485,0.48841 -0.07251,2.4248 -0.42299,3.06562c-0.73612,1.34592 -1.71311,0.5652 -2.72145,1.26928c0,0 -0.41602,0.27735 -0.69338,-0.13868c-0.27735,-0.41602 0.13867,-0.69338 0.13867,-0.69338c0.54934,-0.35447 2.14522,-0.2942 2.35227,-0.8199c0.39717,-1.00843 -0.42119,-2.67812 0.77083,-3.50036c1.66317,-1.14724 3.46396,0.16368 4.27473,-0.68615c-0.00006,-0.0003 -0.00013,-0.0006 -0.00019,-0.0009l-0.00971,-0.39651c0,0 0,-0.41878 0.38325,-0.48982c0.04263,-0.25222 0.06539,-0.55525 0.06598,-0.91854c-0.29485,-1.97549 -1.54455,-4.33309 -2.86382,-5.87461c-0.98163,-1.14701 -1.90344,-1.33544 -1.91299,-3.01369v-0.14923c0,0 0,-0.5 0.5,-0.5c0.5,0 0.5,0.5 0.5,0.5v0.14923c-0.01019,1.45761 1.38672,1.85999 2.15333,3.004c1.17921,1.75973 2.27487,3.7234 2.62038,5.80567c0.00086,0.57693 0.13562,1.17187 -0.00747,1.73078c-0.08372,0.32703 -0.19532,0.58698 -0.32976,0.79261c0.08477,0.91236 0.04183,1.83282 0.03658,2.75538z" fill="#000000"/><path d="M281.77008,188.69598l-0.41234,-0.1c-1.12819,-0.84614 -1.43235,-1.4286 -1.43579,-2.87158c0,-2.07904 -1.18849,-3.35664 -1.3457,-5.34326c-0.19856,-2.50926 1.93458,-4.37519 0.35274,-7.10584c-0.00959,-0.66047 -0.04617,-1.59931 0.16525,-2.38925c-0.29785,0.03937 -0.60113,0.05951 -0.90809,0.05951c-2.75548,0 -2.36187,2.20074 -3.65394,3.84231c-0.39267,0.49888 -1.36515,1.08906 -2.08723,1.48362c-0.02207,0.91492 -0.63307,1.85299 -1.49108,1.95344c-0.48655,-0.10877 -0.71204,0.91352 -1.19338,1.28361c0.20563,0.05271 0.39901,0.09605 0.53115,0.10557c0.56991,0.04108 1.1493,0.02801 1.70765,0.14937c2.9487,0.64094 2.88679,1.78131 2.88679,4.37821c0,0 0,0.5 -0.5,0.5c-0.5,0 -0.5,-0.5 -0.5,-0.5c0,-0.53145 0.30638,-1.97535 0.18287,-2.35656c-0.64624,-1.99455 -4.87556,-0.3289 -5.8794,-1.79145c-0.11158,-0.16257 -0.20535,-0.37034 -0.24899,-0.58112c-1.62088,-0.82736 -3.13636,1.14803 -5.17097,-0.37485c-1.23872,-0.92717 -0.04284,-1.41465 -0.35905,-2.53456l-0.01493,-0.41972c0,0 0,-0.5 0.5,-0.5c0.5,0 0.5,0.5 0.5,0.5l-0.01493,0.17719c0.20117,0.88012 -0.22167,1.135 -0.28998,1.8319c-0.01303,0.13296 1.71011,0.62945 1.71678,0.63058c1.7392,0.29665 2.10656,-1.15579 3.74426,-0.12351c0.32003,0.02738 0.68773,0.12228 0.89545,-0.07086c0.4864,-0.45225 0.84501,-1.24633 1.50668,-1.3038c0.18246,0.06681 0.31,-0.08686 0.38734,-0.32224c-0.08309,-0.01645 -0.17175,-0.06065 -0.26041,-0.14931l0.00002,-0.00001c-0.35355,-0.35355 0,-0.70711 0,-0.70711l0.28885,-0.26641c-0.22387,-0.4568 -1.80151,-0.30359 -2.17427,-0.91048c-0.37104,-0.60409 0.14519,-1.84607 -0.60118,-1.88232l-0.53074,-0.42998c0,0 -0.35355,-0.35355 0,-0.7071c0.35355,-0.35356 0.7071,0 0.7071,0l0.06617,0.16693c1.56477,0.5298 0.66047,1.17936 1.18954,2.29603c0.132,0.27859 1.48031,0.35865 1.6112,0.43429c0.2295,0.13261 0.40547,0.30383 0.5337,0.49909c2.34318,-1.67194 2.55718,-5.30075 6.01494,-5.30075c0.54982,0 1.0779,-0.06603 1.5753,-0.19668c0.10399,-0.08388 0.22063,-0.15545 0.35144,-0.21237c0.14739,-0.06413 0.34445,-0.09714 0.56626,-0.11879c0.97966,-0.45936 1.78999,-1.21494 2.34136,-2.25249c0.51432,-0.96783 -0.03777,-1.87815 0.2974,-2.83204c0.49073,-1.3966 2.68327,-1.34335 3.83039,-1.11859c0,0 0.44493,0.08899 0.40232,0.52127c-0.67683,-0.03682 -1.21708,-0.02592 -1.43402,0.02831c-0.88312,0.22078 -1.27474,0.78443 -1.45441,1.45542c-0.17138,0.30921 -0.26939,0.63854 -0.33307,0.98023c-0.01384,0.10331 -0.02998,0.20838 -0.04964,0.31472c-0.09075,0.68127 -0.09566,1.40074 -0.30645,2.10037c-0.00474,0.00237 -0.00952,0.00469 -0.01434,0.00696c-1.02851,0.48466 -2.11969,1.00106 -2.97838,1.72664c-0.22928,0.10413 -0.46553,0.19537 -0.70761,0.27314c-0.20964,0.24957 -0.30251,0.71087 -0.34397,1.17367c-0.45361,1.67018 0.58454,4.25849 0.49009,5.72791c-0.01373,0.21357 -0.02634,0.42302 -0.03782,0.62852c-0.01109,0.05413 -0.02248,0.10762 -0.03417,0.16042c-0.17929,0.81016 -0.87231,1.06562 -0.77547,1.9704c0.11341,1.05959 0.48746,1.92597 0.81322,2.82579c0.09692,1.14672 0.27701,2.16543 0.55217,3.14506c0.02821,0.37673 0.10218,0.62759 0.26831,0.85805c0.18093,0.52515 0.3911,1.04648 0.63243,1.57836c-0.04088,0.00612 -0.06743,0.00612 -0.06743,0.00612z" fill="#000000"/><path d="" fill="#000000"/><path d="" fill="#000000"/><path d="M253.39745,163.99605c0,0.5 -0.5,0.5 -0.5,0.5h-0.44768c-1.63763,0 -2.60608,0.65599 -3.69902,-0.96878c-0.34488,-0.8281 -1.67484,1.14776 -2.23519,1.38134c-0.9608,0.40051 -3.06413,0.1628 -4.05747,-0.19638c-2.39769,-0.867 -4.50836,-4.32771 -0.60344,-4.34994c0,0 0.5,0 0.5,0.5c0,0.5 -0.5,0.5 -0.5,0.5c-2.98514,-0.02087 0.18463,2.37791 1.56054,2.58614c0.69716,0.1055 2.10583,0.299 2.73216,0.03044c1.28875,-0.55257 1.96215,-2.88787 3.43544,-1.00629c0.79384,1.2037 1.56143,0.52348 2.86697,0.52348h0.44768c0,0 0.5,0 0.5,0.5z" fill="#000000"/><path d="M209.27801,203.55908c-0.35356,0.35356 -0.70711,0 -0.70711,0l-0.28534,-0.3861c-0.52352,-2.14088 -0.91458,-6.63604 -3.36201,-7.41168c-0.31897,0.38661 -0.67139,0.72297 -0.73134,1.34079c-0.21006,2.16499 0.80226,3.65587 -0.9332,5.39928c-0.36523,0.2889 -0.74067,0.59087 -0.99416,0.98151l0.185,-0.19332c0,0 0.22361,0.44722 -0.2236,0.67082c-0.44721,0.2236 -0.67082,-0.22361 -0.67082,-0.22361l-0.12263,-0.80859c0.30907,-0.45432 0.73193,-0.82655 1.15929,-1.17194c1.44014,-1.43182 0.38137,-2.9164 0.60498,-4.75269c0.13966,-1.14689 0.97649,-1.41021 1.24149,-2.37288c0.39496,-1.4348 -2.3625,-5.10277 -3.36818,-6.11262c-1.61238,-1.07492 -3.81334,-3.7443 -2.90817,-5.82056c0.27459,-0.62984 1.03378,-1.06462 1.20037,-1.75661c0.26376,-1.09562 -0.08573,-2.05332 0.0714,-3.03017c-1.06577,1.16136 -2.93526,2.66998 -3.75575,2.85842c0.02894,-0.14254 0.05605,-0.28441 0.08134,-0.42522c1.42112,-0.79012 2.758,-1.59851 3.16453,-3.35265c0.16179,-0.1848 0.27238,-0.33602 0.30934,-0.43375c0.5056,-1.33687 0.13009,-3.42803 -0.07627,-5.16992c0.00105,-1.52613 0.05711,-3.06015 0.39401,-4.44571c0.08944,1.03809 0.31638,2.12711 0.48663,2.82408c0.00305,1.79629 0.8143,4.89657 0.26413,6.77903c0.09208,-0.00176 0.19646,0.0273 0.30871,0.11149c0.4,0.3 0.1,0.7 0.1,0.7c-0.85706,1.04806 -0.05436,2.56229 -0.37483,3.81414c-0.20822,0.81339 -0.93539,1.22266 -1.26071,1.93502c-0.72837,1.59494 1.45917,3.85899 2.62926,4.63905c1.32998,1.32575 4.17268,5.15514 3.70744,7.11571c-0.00349,0.0147 -0.00713,0.02925 -0.01092,0.04363c2.8124,1.22825 3.1664,5.32261 3.85481,8.02638l0.0223,-0.07847c0,0 0.35356,0.35355 0,0.7071z" fill="#000000"/><path d="M204.63591,158.04257c0.07018,0 0.139,-0.00578 0.20603,-0.0169c0.50839,0.1901 0.99886,0.31718 1.48462,0.37034c0.1242,0.09193 0.24508,0.18665 0.36628,0.2801c0.12999,0.15316 0.29623,0.27459 0.48545,0.35104c0.31079,0.20143 0.65143,0.36413 1.07367,0.43026c0.32045,0.05019 0.53095,0.03093 0.67581,-0.03413c0.59216,-0.09837 1.04363,-0.61299 1.04363,-1.23304c0,-0.03372 -0.00134,-0.06713 -0.00396,-0.10017l0.09818,-0.06655c0.02944,-0.00928 0.06011,-0.01803 0.09208,-0.02623c0.40411,-0.10362 0.81739,0.00226 1.22014,0.23009c0.00772,0.04806 0.03202,0.13115 0.10852,0.17804c0.2118,0.64423 0.4431,1.27546 0.68191,1.86442c-0.59209,-0.70789 -1.29305,-1.41405 -1.72078,-1.31544c-1.03814,0.23932 -0.40165,1.65237 -2.35571,1.49012c-1.18269,-0.0982 -1.91244,-1.02018 -2.83514,-1.55199c-0.52828,-0.30448 -1.12951,-0.2856 -1.72832,-0.29664c0.06382,-0.08668 0.13977,-0.1726 0.22943,-0.25764c0.14855,-0.14088 0.32408,-0.25429 0.51982,-0.34779c0.11352,0.03391 0.2338,0.05212 0.35835,0.05212z" fill="#000000"/><path d="" fill="#000000"/><path d="M203.73273,162.42215c-0.24358,0.9912 -1.18656,1.20692 -2.10872,1.38749c0.66469,-0.33957 1.36938,-0.58472 1.85233,-1.30914c0.09259,-0.13889 0.15158,-0.28111 0.18502,-0.42602c0.07029,0.10476 0.10323,0.21803 0.07137,0.34767z" fill="#000000"/><path d="M217.39303,165.8448c-1.83245,-0.45832 -2.55177,-1.10174 -3.1455,-2.12168c1.28249,1.06401 2.4126,1.7983 3.5705,2.22963c-0.1901,-0.04718 -0.34888,-0.08891 -0.425,-0.10794z" fill="#000000"/><path d="" fill="#000000"/><path d="M262.91448,217.39531c-0.5,0 -0.5,-0.5 -0.5,-0.5v-0.30763c0,-0.43054 0.00136,-0.8611 0.00375,-1.29164c0.42987,-1.7195 0.02902,-3.69585 0.64959,-5.36005c0.62309,-1.67099 3.09218,-0.90565 3.80001,-1.70039c0.27508,-0.30884 0.06276,-0.83501 0.20333,-1.22398c0.56256,-1.55661 1.68042,-3.19083 1.99555,-4.76651c0.51511,-0.77221 1.05342,-0.65583 1.58608,-1.1657c0.09378,-0.08977 -0.0185,-2.03171 0.09891,-2.35424c0.62579,-1.71911 1.42115,-2.75732 2.53317,-4.12994c0.48399,-0.59742 0.1972,-1.8652 0.37324,-2.58584c0,0 0.12127,-0.48508 0.60634,-0.36381c0.32916,0.08229 0.37912,0.3321 0.37722,0.48419c-1.27931,1.03306 -0.38741,3.17343 -1.50604,4.32401c-0.6714,0.69058 -0.99171,1.33881 -1.18439,2.00337c-0.09018,0.19373 -0.1774,0.39775 -0.26166,0.61495c-0.10551,0.27197 -0.09417,0.64502 -0.06822,1.03071c-0.081,0.44988 -0.18113,0.92383 -0.35323,1.43572c-0.03085,0.09175 -0.3058,0.33522 -0.64538,0.61836c-0.2368,0.09872 -0.46467,0.21933 -0.63217,0.47089c-0.00394,0.01969 -0.00801,0.0394 -0.0122,0.05912c-0.32386,0.26681 -0.61104,0.51014 -0.7222,0.64299c-1.27165,1.51978 -1.34777,3.45475 -1.84687,5.24534c-0.11406,0.40923 -0.40643,0.60067 -0.78138,0.7048c-0.4225,0.06639 -0.90901,0.10524 -1.3501,0.19127c-0.63424,0.09333 -1.23073,0.29002 -1.50793,0.97382c-0.76032,1.87554 -0.98812,4.75416 -0.58175,6.88185c-0.06844,0.04139 -0.15757,0.06834 -0.27366,0.06834z" fill="#000000"/><path d="M243.08909,146.43785c-0.30391,1.0247 -1.09478,0.667 -1.50935,0.97775c-0.28817,0.216 0.09528,0.74977 -0.05011,1.07926c-0.42105,0.95423 -1.47106,1.29433 -2.3958,1.52452c-0.18536,0.00103 -0.37073,0.00186 -0.55609,0.00248c0.18018,-0.22842 0.35075,-0.46347 0.51353,-0.70312c0.77169,-0.17194 1.46201,-0.45956 1.8981,-1.10618c0.05634,-0.08355 0.17199,-0.30737 0.2098,-0.41961c0.28586,-0.84842 1.28522,-1.16044 1.41389,-2.26661c0.02166,-0.18618 -0.01113,-1.18927 0.03111,-2.04217c0.17789,-0.18939 0.36501,-0.3629 0.56385,-0.51768c-0.06391,1.13568 0.14643,2.57668 -0.11892,3.47135z" fill="#000000"/></g></g></svg>