<svg version="1.1" xmlns="http://www.w3.org/2000/svg" xmlns:xlink="http://www.w3.org/1999/xlink" width="31.46667" height="30.78331" viewBox="0,0,31.46667,30.78331"><defs><radialGradient cx="228.18682" cy="136.05953" r="50.59894" gradientUnits="userSpaceOnUse" id="color-1"><stop offset="0" stop-color="#4d0a70"/><stop offset="1" stop-color="#334070"/></radialGradient><linearGradient x1="238.96712" y1="161.36043" x2="238.96712" y2="198.04675" gradientUnits="userSpaceOnUse" id="color-2"><stop offset="0" stop-color="#3b3050"/><stop offset="1" stop-color="#443846"/></linearGradient></defs><g transform="translate(-224.26667,-164.60834)"><g data-paper-data="{&quot;isPaintingLayer&quot;:true}" fill-rule="nonzero" stroke="none" stroke-width="0.5" stroke-linecap="butt" stroke-linejoin="miter" stroke-miterlimit="10" stroke-dasharray="" stroke-dashoffset="0" style="mix-blend-mode: normal"><path d="" fill="url(#color-1)"/><path d="M254.7243,175.72152c0.85067,1.57256 -0.49735,4.51256 -0.93669,5.95045c-0.83966,2.74812 -0.3892,3.59717 -1.81545,6.30454c-0.69037,1.31049 -3.08366,1.65265 -4.14797,2.29123c-1.91695,1.15017 -2.84474,2.51284 -4.02247,4.41845c-0.00676,0.01094 -0.01348,0.02181 -0.02017,0.03261c-2.63385,-0.21029 -5.71167,-0.30827 -6.19873,-0.02994c-0.0199,0.01137 -0.03956,0.02298 -0.059,0.03482c-0.24214,-0.16707 -0.4776,-0.32429 -0.70549,-0.46931c-7.31856,-4.65726 -10.69386,-3.8359 -12.07107,-13.80414c-0.2196,-1.58948 4.01364,-4.26745 4.90385,-6.04787c0.85381,-1.70762 0.11756,-5.47842 2.12137,-6.35239c2.32718,-1.015 5.3355,-2.83982 8.09388,-2.79234c2.64455,0.04552 4.32645,2.96936 7.74762,2.66857c0.42547,-0.03741 0.82589,-0.08697 1.20451,-0.1477c1.82724,2.70696 4.47928,5.3059 5.90581,7.94301z" fill="url(#color-2)"/><path d="" fill="#0f132a"/><path d="" fill="#0f132a"/><path d="" fill="#0f132a"/><path d="M240.00722,180.21597c0,-2.34721 1.90279,-4.25 4.25,-4.25c2.34721,0 4.25,1.90279 4.25,4.25c0,2.34721 -1.90279,4.25 -4.25,4.25c-2.34721,0 -4.25,-1.90279 -4.25,-4.25z" fill="#0f132a"/><path d="" fill="#0f132a"/><path d="M231.00095,189.14354c0.5,0 0.5,0.5 0.5,0.5v0.41935c0,0.37698 0.0005,0.77218 -0.00395,1.17895c-0.34614,-0.18888 -0.67747,-0.37399 -0.99455,-0.56003c-0.00059,-0.21407 -0.0015,-0.42097 -0.0015,-0.61892v-0.41935c0,0 0,-0.5 0.5,-0.5z" fill="#0f132a"/><path d="" fill="#0f132a"/><path d="" fill="#0f132a"/><path d="" fill="#0f132a"/><path d="" fill="#0f132a"/><path d="" fill="#0f132a"/><path d="" fill="#0f132a"/><path d="M251.82353,179.15967c0,0.5 -0.5,0.5 -0.5,0.5h-0.32258c-1.3511,0 -2.90075,0.22731 -4.19037,-0.18695c0,0 -0.47434,-0.15811 -0.31623,-0.63245c0.15812,-0.47434 0.63245,-0.31623 0.63245,-0.31623c1.14149,0.39964 2.66555,0.13563 3.87414,0.13563h0.32258c0,0 0.5,0 0.5,0.5z" fill="#0f132a"/><path d="M245.1945,171.07902c0.5,0 0.5,0.5 0.5,0.5v0.29032c0,1.78412 0.38215,4.59565 -0.56785,6.11606c0,0 -0.27735,0.41603 -0.69337,0.13868c-0.41602,-0.27735 -0.13868,-0.69338 -0.13868,-0.69338c0.83362,-1.12644 0.39989,-4.15354 0.39989,-5.56136v-0.29032c0,0 0,-0.5 0.5,-0.5z" fill="#0f132a"/><path d="M235.07941,173.75663c0.24175,-0.43768 0.67942,-0.19593 0.67942,-0.19593l0.03675,0.0203c2.39475,1.32272 4.62127,3.12148 7.04189,4.325c0,0 0.44721,0.22361 0.2236,0.67082c-0.2236,0.44721 -0.67082,0.22361 -0.67082,0.22361c-2.4342,-1.22323 -4.66681,-3.01218 -7.07816,-4.34408l-0.03675,-0.0203c0,0 -0.43767,-0.24174 -0.19592,-0.67942z" fill="#0f132a"/><path d="M234.24071,182.23372c-0.17082,-0.46991 0.29909,-0.64074 0.29909,-0.64074l0.97438,-0.34929c1.82548,-0.14836 4.27475,-0.02803 5.97381,-0.62288c0,0 0.47434,-0.15812 0.63246,0.31623c0.15812,0.47434 -0.31623,0.63246 -0.31623,0.63246c-1.79558,0.57678 -4.17319,0.51454 -6.07892,0.65165l-0.84386,0.31166c0,0 -0.46991,0.17082 -0.64073,-0.29909z" fill="#0f132a"/><path d="M243.32447,188.52136c-0.49073,-0.09584 -0.39489,-0.58657 -0.39489,-0.58657l0.17952,-0.91888c0.19518,-1.19271 0.29509,-2.29559 0.29509,-3.50141c0,0 0,-0.5 0.5,-0.5c0.5,0 0.5,0.5 0.5,0.5c0,1.26386 -0.10621,2.42826 -0.31081,3.67803l-0.18234,0.93393c0,0 -0.09583,0.49074 -0.58656,0.39489z" fill="#0f132a"/><path d="M250.42204,184.95788c-0.31434,0.38884 -0.70317,0.07449 -0.70317,0.07449l-0.55115,-0.44762c-1.49472,-0.85192 -2.79767,-1.98417 -4.45392,-2.53139c0,0 -0.47434,-0.15812 -0.31623,-0.63246c0.15812,-0.47434 0.63245,-0.31622 0.63245,-0.31622c1.74779,0.58708 3.12398,1.75052 4.70192,2.65444l0.6156,0.49558c0,0 0.38884,0.31433 0.0745,0.70317z" fill="#0f132a"/><path d="" fill="#0f132a"/><path d="" fill="#0f132a"/><path d="" fill="#0f132a"/><path d="" fill="#0f132a"/><path d="" fill="#0f132a"/><path d="M246.16449,168.25251c-0.65162,-0.03185 -1.28709,-0.13822 -1.8551,-0.41866c-2.01914,-0.99691 -3.59411,-2.23717 -5.9636,-2.2255c-1.48621,-0.02987 -5.38042,1.61655 -6.65238,2.50555c-0.92824,0.64877 -0.91956,3.1122 -1.23394,4.0793c-0.81411,4.07057 -5.97246,5.88148 -5.11267,10.16398c1.4631,3.70806 3.8528,7.50974 7.53816,9.35445c3.21493,1.07164 4.91861,2.56266 8.45504,2.24698c0.98486,-0.08791 2.21902,0.18132 3.03114,-0.46084c3.83518,-2.30111 6.39996,-4.489 8.06059,-8.64059c0.49075,-2.45376 3.14946,-5.90844 2.07813,-8.48158c-0.45501,-1.09286 -1.44288,-1.81719 -2.13288,-2.74352c-0.62652,-1.25635 -2.12722,-4.1798 -3.31952,-4.94856c-0.85862,-0.55361 -1.86607,-0.29854 -2.89298,-0.43102zM249.04956,167.58323c0.18034,0.06078 0.36064,0.14297 0.54108,0.25429c1.35421,0.83546 2.93925,3.87694 3.637,5.26883c0.73592,0.9731 1.75628,1.72925 2.21495,2.90865c1.16014,2.98311 -1.48856,6.30836 -2.05231,9.12712c-1.75429,4.38572 -4.41826,6.75976 -8.46115,9.18549c-3.77907,2.72565 -8.86996,-0.50648 -12.42686,-1.69211c-4.00045,-1.99839 -6.49602,-5.98552 -8.11402,-9.99338c-0.97706,-4.89859 4.22899,-6.32693 5.10472,-10.70559c0.44236,-1.29 0.41163,-2.80791 1.13432,-4.02967c0.81459,-1.3771 6.15835,-3.27646 7.71849,-3.29852c3.77187,0.01548 6.36305,2.6087 10.21739,2.6087c0,0 0.40625,0 0.48637,0.36619z" fill="#ffffff"/></g></g></svg>