<svg version="1.1" xmlns="http://www.w3.org/2000/svg" xmlns:xlink="http://www.w3.org/1999/xlink" width="34.96065" height="37.60231" viewBox="0,0,34.96065,37.60231"><g transform="translate(-220.2749,-156.88996)"><g data-paper-data="{&quot;isPaintingLayer&quot;:true}" fill-rule="nonzero" stroke-linecap="butt" stroke-linejoin="miter" stroke-miterlimit="10" stroke-dasharray="" stroke-dashoffset="0" style="mix-blend-mode: normal"><path d="M236.40625,182.40389v-4.23636h17.32898c0.1125,1.17209 0.24981,2.33951 0.1648,3.44469l0.0483,0.05398c-0.01921,0.24979 -0.03498,0.49554 -0.04727,0.73769z" fill="#b3efff" stroke="#ffffff" stroke-width="2.5"/><path d="M220.2749,156.88996z" fill="#b2ffbd" stroke="#000000" stroke-width="0.5"/><path d="M253.70959,180c0,7.72772 -6.13799,13.99227 -13.70959,13.99227c-7.5716,0 -13.7096,-6.26455 -13.7096,-13.99227c0,-7.72772 6.138,-13.99227 13.7096,-13.99227c7.5716,0 13.70959,6.26455 13.70959,13.99227z" fill="#717171" stroke="#ffffff" stroke-width="1"/><path d="M227.39855,177.39807c0,-0.51518 0.41763,-0.93282 0.93282,-0.93282c0.51518,0 0.93282,0.41763 0.93282,0.93282c0,0.51518 -0.41763,0.93282 -0.93282,0.93282c-0.51518,0 -0.93282,-0.41763 -0.93282,-0.93282z" fill="#f9ffdc" stroke="none" stroke-width="0.5"/><path d="M229.46241,172.91583c0,-0.51518 0.41763,-0.93282 0.93282,-0.93282c0.51518,0 0.93282,0.41763 0.93282,0.93282c0,0.51518 -0.41763,0.93282 -0.93282,0.93282c-0.51518,0 -0.93282,-0.41763 -0.93282,-0.93282z" fill="#f9ffdc" stroke="none" stroke-width="0.5"/><path d="M233.26281,169.54276c0,-0.51518 0.41763,-0.93282 0.93282,-0.93282c0.51518,0 0.93282,0.41763 0.93282,0.93282c0,0.51518 -0.41763,0.93282 -0.93282,0.93282c-0.51518,0 -0.93282,-0.41763 -0.93282,-0.93282z" fill="#f9ffdc" stroke="none" stroke-width="0.5"/><path d="M238.33604,168.08202c0,-0.51518 0.41763,-0.93282 0.93282,-0.93282c0.51518,0 0.93282,0.41763 0.93282,0.93282c0,0.51518 -0.41763,0.93282 -0.93282,0.93282c-0.51518,0 -0.93282,-0.41763 -0.93282,-0.93282z" fill="#f9ffdc" stroke="none" stroke-width="0.5"/><path d="M243.68507,169.03672c0,-0.51518 0.41763,-0.93282 0.93282,-0.93282c0.51518,0 0.93282,0.41763 0.93282,0.93282c0,0.51518 -0.41763,0.93282 -0.93282,0.93282c-0.51518,0 -0.93282,-0.41763 -0.93282,-0.93282z" fill="#f9ffdc" stroke="none" stroke-width="0.5"/><path d="M248.24306,172.23401c0,-0.51518 0.41763,-0.93282 0.93282,-0.93282c0.51518,0 0.93282,0.41763 0.93282,0.93282c0,0.51518 -0.41763,0.93282 -0.93282,0.93282c-0.51518,0 -0.93282,-0.41763 -0.93282,-0.93282z" fill="#f9ffdc" stroke="none" stroke-width="0.5"/><path d="M250.59782,177.96184c0,-0.51518 0.41763,-0.93282 0.93282,-0.93282c0.51518,0 0.93282,0.41763 0.93282,0.93282c0,0.51518 -0.41763,0.93282 -0.93282,0.93282c-0.51518,0 -0.93282,-0.41763 -0.93282,-0.93282z" fill="#f9ffdc" stroke="none" stroke-width="0.5"/><path d="M250.00683,184.33215c0,-0.51518 0.41763,-0.93282 0.93282,-0.93282c0.51518,0 0.93282,0.41763 0.93282,0.93282c0,0.51518 -0.41763,0.93282 -0.93282,0.93282c-0.51518,0 -0.93282,-0.41763 -0.93282,-0.93282z" fill="#f9ffdc" stroke="none" stroke-width="0.5"/><path d="M246.4701,189.38109c0,-0.51518 0.41763,-0.93282 0.93282,-0.93282c0.51518,0 0.93282,0.41763 0.93282,0.93282c0,0.51518 -0.41763,0.93282 -0.93282,0.93282c-0.51518,0 -0.93282,-0.41763 -0.93282,-0.93282z" fill="#f9ffdc" stroke="none" stroke-width="0.5"/><path d="M241.19388,191.84801c0,-0.51518 0.41764,-0.93282 0.93282,-0.93282c0.51518,0 0.93282,0.41764 0.93282,0.93282c0,0.51518 -0.41764,0.93282 -0.93282,0.93282c-0.51518,0 -0.93282,-0.41764 -0.93282,-0.93282z" fill="#f9ffdc" stroke="none" stroke-width="0.5"/><path d="M234.87506,191.49643c0,-0.51518 0.41764,-0.93282 0.93282,-0.93282c0.51518,0 0.93282,0.41764 0.93282,0.93282c0,0.51518 -0.41764,0.93282 -0.93282,0.93282c-0.51518,0 -0.93282,-0.41764 -0.93282,-0.93282z" fill="#f9ffdc" stroke="none" stroke-width="0.5"/><path d="M229.91695,187.73243c0,-0.51518 0.41764,-0.93282 0.93282,-0.93282c0.51518,0 0.93282,0.41764 0.93282,0.93282c0,0.51518 -0.41764,0.93282 -0.93282,0.93282c-0.51518,0 -0.93282,-0.41764 -0.93282,-0.93282z" fill="#f9ffdc" stroke="none" stroke-width="0.5"/><path d="M227.37427,182.81073c0,-0.51518 0.41764,-0.93282 0.93282,-0.93282c0.51518,0 0.93282,0.41764 0.93282,0.93282c0,0.51518 -0.41764,0.93282 -0.93282,0.93282c-0.51518,0 -0.93282,-0.41764 -0.93282,-0.93282z" fill="#f9ffdc" stroke="none" stroke-width="0.5"/><path d="M250.45887,180c0,5.77628 -4.68259,10.45887 -10.45887,10.45887c-5.77628,0 -10.45887,-4.68259 -10.45887,-10.45887c0,-5.77628 4.68259,-10.45887 10.45887,-10.45887c5.77628,0 10.45887,4.68259 10.45887,10.45887z" fill="#b3efff" stroke="none" stroke-width="0"/></g></g></svg>