<svg version="1.1" xmlns="http://www.w3.org/2000/svg" xmlns:xlink="http://www.w3.org/1999/xlink" width="68.72226" height="74.32272" viewBox="0,0,68.72226,74.32272"><defs><radialGradient cx="228.18682" cy="136.05953" r="50.59894" gradientUnits="userSpaceOnUse" id="color-1"><stop offset="0" stop-color="#4d0a70"/><stop offset="1" stop-color="#334070"/></radialGradient><linearGradient x1="228.17235" y1="138.31378" x2="228.17235" y2="218.56391" gradientUnits="userSpaceOnUse" id="color-2"><stop offset="0" stop-color="#6d6670"/><stop offset="1" stop-color="#05223b"/></linearGradient></defs><g transform="translate(-205.63887,-142.83864)"><g data-paper-data="{&quot;isPaintingLayer&quot;:true}" fill-rule="nonzero" stroke="none" stroke-width="0.5" stroke-linecap="butt" stroke-linejoin="miter" stroke-miterlimit="10" stroke-dasharray="" stroke-dashoffset="0" style="mix-blend-mode: normal"><path d="" fill="url(#color-1)"/><path d="M245.02377,143.81304c0.60875,0.3801 1.25233,0.7416 1.92084,1.08794c1.28418,0.93081 2.635,1.7788 4.08386,2.50323c1.64026,0.82013 4.78587,1.65535 7.673,2.3921c1.89816,0.63425 4.60707,1.2836 6.5365,2.19272c1.32953,0.95874 2.71019,2.4425 4.15231,3.90797c1.35635,1.87262 2.36153,3.89267 3.18287,5.99893c-0.2072,0.38985 -0.34284,0.82352 -0.38941,1.28352c-2.12907,0.53227 -5.30238,2.77087 -5.86058,5.00364c-0.16341,0.65365 -0.2364,1.38328 -0.18949,2.09258c-0.13064,0.33516 -0.24297,0.68624 -0.33511,1.05482c-1.53171,6.12682 3.87812,17.73509 8.02892,25.893c-0.77624,1.29569 -1.41957,2.60161 -1.82357,3.72653c-2.46699,1.91417 -5.17537,3.60169 -6.89894,5.31895c-1.61706,1.61114 -2.5607,3.79498 -3.76317,5.69071c-3.5483,1.38674 -7.10878,2.82086 -10.10274,4.96777c-1.16316,-0.83171 -2.44326,-1.4999 -3.78438,-1.94422c-0.07604,-0.16437 -0.15882,-0.32472 -0.26187,-0.47323c-1.85956,-2.67994 -4.79971,-5.59285 -8.33148,-5.86453c-5.83341,-0.44872 -11.33944,2.37631 -16.94712,4.18759c-1.66794,-0.57297 -3.40276,-1.12229 -5.24118,-1.61014c-1.63888,-4.25701 -4.57899,-9.15013 -6.78813,-12.78624c-1.7744,-2.92056 -2.00681,-6.04492 -3.19419,-9.14298c-0.12832,-0.3348 -0.70765,-0.71999 -0.45519,-0.9746c4.38504,-4.42226 13.60536,-7.82444 14.68167,-14.35651c0.04966,-0.30137 0.76343,-4.49445 0.39528,-5.1387c-0.221,-0.38676 -0.52769,-0.74099 -0.87342,-1.07857c1.08024,-1.23836 2.10516,-2.88662 3.14614,-4.96858c0.46644,-0.93288 0.12212,-3.34849 -0.41862,-5.62435c3.3702,-3.62342 7.17845,-6.66302 10.50279,-10.32591c1.75335,-0.43458 3.55485,-0.90068 5.41494,-1.62734c1.25017,-0.48839 2.33976,-1.23669 3.32557,-2.12659c0.55309,0.08491 1.10638,0.17034 1.66017,0.25648c0.47937,0.23218 0.85126,0.42003 0.95371,0.484z" fill="url(#color-2)"/><path d="M219.72721,185.05776c0.23768,-0.2397 0.48957,-0.4764 0.7536,-0.71077c-0.05457,0.54757 -0.1649,1.08487 -0.33597,1.60636c-0.17591,-0.31497 -0.65044,-0.6608 -0.41763,-0.89559z" fill="#0f132a"/><path d="M246.79319,155.46831c0.10066,-0.04238 0.19943,-0.0857 0.2966,-0.12973c1.00524,-0.77281 2.19359,-1.3192 3.48876,-1.56292c0.58398,-0.15061 1.23152,-0.22975 1.9962,-0.19394c7.21927,0.33801 8.78781,4.60695 7.76628,8.91585c-0.15971,2.16924 -1.1582,4.1053 -2.67242,5.48514c-1.10872,1.44347 -2.41719,2.60533 -3.72093,3.22566c-1.18076,0.56181 -7.73739,0.70509 -8.3014,0.46119c-0.52555,-0.22726 -4.53823,-6.4194 -4.61189,-6.91783c-0.53065,-3.59056 2.54323,-7.09323 5.20126,-8.86525z" fill="#0f132a"/><path d="M238.74207,192.92779c-0.40585,5.27612 -3.8469,8.29789 -8.72468,9.7779c-2.85375,0.86588 -7.2542,0.11542 -7.34429,-3.70034c-0.10945,-4.63556 5.06714,-7.89952 8.84965,-9.13887c2.28562,-0.74889 5.83438,-0.83947 6.44043,2.19079z" fill="#0f132a"/><path d="" fill="#0f132a"/><path d="" fill="#0f132a"/><path d="" fill="#0f132a"/><path d="M236.70221,191.12732c0.10551,-0.48874 0.59425,-0.38323 0.59425,-0.38323l0.76716,0.16562c3.14522,0.67917 5.82275,1.79225 8.57813,3.44276c0,0 0.42875,0.25725 0.1715,0.686c-0.25725,0.42874 -0.68599,0.1715 -0.68599,0.1715c-2.65824,-1.59743 -5.2374,-2.66728 -8.27465,-3.32278l-0.76716,-0.16561c0,0 -0.48874,-0.10551 -0.38323,-0.59425z" fill="#0f132a"/><path d="M223.99751,200.90343c0.48507,0.12127 0.3638,0.60634 0.3638,0.60634l-0.1501,0.58498c0.00904,2.14301 0.16132,4.26041 0.16503,6.39052c0,0 0,0.5 -0.5,0.5c-0.5,0 -0.5,-0.5 -0.5,-0.5c0.00412,-2.16993 -0.16593,-4.32541 -0.15755,-6.51271l0.17248,-0.70533c0,0 0.12127,-0.48507 0.60634,-0.3638z" fill="#0f132a"/><path d="M237.4965,196.00715c0.35356,-0.35356 0.70711,0 0.70711,0l0.27978,0.35c0.50852,1.4562 1.14572,2.9724 1.15699,4.51969c0,0 0,0.5 -0.5,0.5c-0.5,0 -0.5,-0.5 -0.5,-0.5c0.01256,-1.41375 -0.63628,-2.85901 -1.10108,-4.19l-0.0428,0.02741c0,0 -0.35356,-0.35355 0,-0.7071z" fill="#0f132a"/><path d="M234.03031,201.48624c0.15812,-0.47434 0.63245,-0.31622 0.63245,-0.31622l0.48387,0.16129c1.54005,0.51335 2.8753,1.26902 4.51931,1.26467c0,0 0.5,0 0.5,0.5c0,0.5 -0.5,0.5 -0.5,0.5c-1.7757,-0.00425 -3.18058,-0.76432 -4.83554,-1.31598l-0.48387,-0.16129c0,0 -0.47434,-0.15812 -0.31623,-0.63246z" fill="#0f132a"/><path d="M228.66237,203.9627c-0.14218,-0.02482 -0.41686,-0.12074 -0.41686,-0.49133c0,-0.5 0.5,-0.5 0.5,-0.5l0.80765,0.37874c0.11263,0.46061 0.17371,0.93741 0.17622,1.41159c0,0 0,0.5 -0.5,0.5c-0.5,0 -0.5,-0.5 -0.5,-0.5c0.00171,-0.26681 -0.02141,-0.5351 -0.06701,-0.79899z" fill="#0f132a"/><path d="" fill="#0f132a"/><path d="" fill="#0f132a"/><path d="" fill="#0f132a"/><path d="" fill="#0f132a"/><path d="" fill="#0f132a"/><path d="" fill="#0f132a"/><path d="M244.86803,170.2331c-0.23804,-0.4397 0.20166,-0.67774 0.20166,-0.67774l0.52594,-0.28259c1.59435,-0.53207 4.70762,-1.67114 5.13612,-3.48989c0,0 0.12127,-0.48507 0.60634,-0.3638c0.48507,0.12127 0.36381,0.60634 0.36381,0.60634c-0.57784,2.21389 -3.71189,3.49672 -5.70825,4.16474l-0.44787,0.24461c0,0 -0.4397,0.23803 -0.67774,-0.20166z" fill="#0f132a"/><path d="M246.05918,179.04301c-0.48507,-0.12127 -0.3638,-0.60634 -0.3638,-0.60634l0.15657,-0.62473c0.64108,-1.9214 0.80312,-4.55384 1.88217,-6.19801c0,0 0.27735,-0.41603 0.69338,-0.13868c0.41602,0.27735 0.13868,0.69338 0.13868,0.69338c-1.01719,1.49572 -1.15715,4.1379 -1.75419,5.9232l-0.14646,0.58738c0,0 -0.12127,0.48508 -0.60634,0.36381z" fill="#0f132a"/><path d="M262.40355,168.98256c0,0.5 -0.5,0.5 -0.5,0.5l-0.64838,-0.00179c-1.51099,-0.25768 -2.80486,-0.60427 -4.35162,-0.60427c0,0 -0.5,0 -0.5,-0.5c0,-0.5 0.5,-0.5 0.5,-0.5c1.57401,0 2.90347,0.34455 4.43626,0.60786l0.56374,-0.00179c0,0 0.5,0 0.5,0.5z" fill="#0f132a"/><path d="M269.90786,160.96224c0.10706,0.48841 -0.38135,0.59546 -0.38135,0.59546l-0.76789,0.16699c-2.56266,0.18629 -5.20947,0.01677 -7.74182,0.44387c0,0 -0.4932,0.0822 -0.5754,-0.411c-0.0822,-0.49319 0.411,-0.5754 0.411,-0.5754c2.54541,-0.41961 5.18923,-0.26683 7.76316,-0.44718l0.69683,-0.15408c0,0 0.48841,-0.10706 0.59546,0.38134z" fill="#0f132a"/><path d="M259.95393,154.04241c0,0.5 -0.5,0.5 -0.5,0.5l-0.848,-0.00374c-0.55679,0.14008 -0.8554,0.19073 -1.16021,0.69019c0,0 -0.27735,0.41603 -0.69338,0.13868c-0.41602,-0.27735 -0.13868,-0.69338 -0.13868,-0.69338c0.51954,-0.73889 1.00593,-0.9129 1.87009,-1.12799l0.97018,-0.00375c0,0 0.5,0 0.5,0.5z" fill="#0f132a"/><path d="M220.80747,167.83864l0.02566,-0.32478c0.05553,-0.15892 0.10903,-0.32439 0.16176,-0.49457c-0.00462,-0.16368 -0.00477,-0.32771 0.0007,-0.49221c0.0881,-0.13961 0.17888,-0.27934 0.27147,-0.4193c0.30765,-1.03221 0.66219,-2.11281 1.30145,-2.89483c0.26416,-0.32315 0.68309,-0.71229 1.06512,-1.13204c0.47967,-1.3818 0.44897,-2.8483 -0.74219,-4.46492c0,0 -0.27735,-0.41603 0.13868,-0.69338c0.32244,-0.21496 0.56158,-0.01341 0.65285,0.08815c0.49413,-3.96656 5.97717,-6.65039 7.71633,-9.62757c1.23704,-1.60315 3.60949,-1.52526 5.45996,-2.03117c2.34106,-0.64003 4.08907,-2.51338 6.61488,-2.51338c3.41455,0 4.75635,1.79841 7.57968,3.39823c1.41183,0.8 3.45579,1.05396 5.06011,1.45504c4.36087,1.45362 7.98881,3.45359 12.05155,5.35145c2.90241,1.09644 4.63928,5.02881 5.14981,8.25024c-0.36267,0.49104 -0.60003,1.08028 -0.66484,1.72049c-2.12907,0.53227 -5.30238,2.77087 -5.86058,5.00364c-0.29174,1.16695 -0.29528,2.57608 0.15714,3.67934c0.04922,1.3516 0.19388,2.70185 0.19005,3.9138c1.12959,4.41382 2.75547,8.41881 4.47906,12.73926c0.68875,2.67999 2.63193,5.89096 2.74501,8.59682c-0.21868,0.36132 -0.42726,0.72385 -0.62341,1.08346c0.02844,-0.08574 0.0539,-0.17618 0.07621,-0.27187c0.12444,-0.53386 -0.65344,-1.28641 -0.81834,-1.77502c-0.80885,-2.39671 -1.68556,-4.79418 -2.3301,-7.32306c-1.75721,-4.3809 -3.41787,-8.43112 -4.52094,-12.92741c-0.01064,-3.57689 -1.05342,-8.07779 1.80937,-10.91465c0.96041,-0.95171 2.42268,-1.25198 3.54199,-1.95833c0.21496,-0.00715 0.42993,-0.0143 0.64489,-0.02145l-0.02022,-0.18689c0,0 0.13697,-0.13697 0.32566,-0.15515c-0.22345,-2.88641 -1.78845,-7.77266 -4.66345,-8.52936c-3.99316,-2.08237 -7.60343,-3.86687 -11.94845,-5.31521c-1.68243,-0.42061 -3.79254,-0.69304 -5.27322,-1.54496c-2.65628,-1.52831 -3.9089,-3.26843 -7.08698,-3.26843c-2.35515,0 -4.17728,1.83556 -6.38512,2.48662c-1.50767,0.44459 -3.91338,0.30434 -4.87337,1.6355c-1.47693,2.05205 -3.65149,3.80881 -5.35483,5.86154c-0.76399,0.92071 -2.22646,2.33427 -2.22646,3.60291c0.36892,1.08737 1.15097,2.29469 0.82641,3.5283c-0.15495,0.58894 -0.5817,1.16768 -1.0419,1.69711c-0.48275,1.33008 -1.34624,2.59439 -2.26096,3.87873c-0.0633,0.22246 -0.12379,0.44234 -0.18397,0.65533c0.25899,4.71056 -0.13555,7.25898 -2.91711,11.4313c-1.59859,2.39626 -3.56351,3.9658 -5.98649,5.48131c-1.44996,0.90691 -3.52089,1.48499 -4.52694,2.84885c-0.88554,0.03431 -1.76738,0.78022 -1.9026,1.72583c-0.02968,0.20756 1.04496,0.98952 1.10177,1.08698c1.326,2.27486 1.30542,5.0135 2.84739,7.36001c0.60841,1.78085 1.99005,3.15576 2.83333,4.83333c1.06184,2.11235 1.64446,4.66051 2.96687,6.60899c1.60665,2.41168 4.90655,4.9605 8.10575,4.13214c1.46294,-0.3788 2.04973,-2.09331 3.63809,-2.4904c2.59545,-1.29772 6.98025,-1.53106 9.84014,-1.53106c1.21209,0 2.44651,-0.21601 3.47823,0.52145c1.05493,0 1.90649,0.95093 2.6721,1.59187c2.19341,1.83625 5.05155,5.33183 7.92179,5.39569c1.19291,-0.48887 2.05549,-1.38316 3.20821,-1.95818c2.34992,-1.17222 5.75134,-0.90284 7.28722,-3.30181c1.31434,-2.62867 2.60233,-5.29078 4.74195,-7.43227c1.38356,-1.38476 3.17011,-2.1667 4.54018,-3.53677c0.60796,-0.40287 1.15171,-0.70213 1.53374,-1.19734c-0.34139,0.67732 -0.6315,1.33359 -0.85411,1.93967c-0.01511,0.01037 -0.03032,0.02071 -0.04564,0.03101c-1.348,1.348 -3.10384,2.10866 -4.45982,3.46323c-2.08412,2.08194 -3.3109,4.67344 -4.59138,7.2344c-1.84217,2.69282 -5.04958,2.36266 -7.71278,3.69819c-1.24342,0.62355 -2.1391,1.52226 -3.45454,2.04028c-1.67777,-1.31343 -3.63469,-2.28432 -5.68558,-2.71271c-0.69627,-0.59316 -1.31543,-1.21602 -1.79957,-1.79306c-0.73976,-0.88172 -2.37012,-2.50512 -3.59155,-2.50512c-2.5707,-1.62226 -10.04725,-0.3268 -12.68163,0.9904c-1.56573,0.39143 -2.15192,2.04498 -3.69525,2.5096c-3.5614,1.07217 -7.43694,-1.85038 -9.22758,-4.53453c-1.32524,-2.0167 -1.95757,-4.55942 -3.03313,-6.72434c-0.8331,-1.67689 -2.25477,-3.04042 -2.83333,-4.83333c-1.58367,-2.33343 -1.5467,-5.00632 -2.81928,-7.30666c-0.41151,-0.74385 -1.17466,-0.49928 -1.23157,-1.57968c-0.06177,-1.17275 1.35537,-2.65733 2.43074,-2.6075c0.77476,-1.33083 3.1484,-1.99057 4.47306,-2.81782c2.30865,-1.44176 4.16062,-2.90441 5.68017,-5.18536c1.23132,-1.84698 2.76308,-3.6874 3.08915,-5.96941c0.18549,-1.29812 -0.05574,-2.54225 -0.21071,-3.78778c-0.29575,-0.11315 -0.29575,-0.46546 -0.29575,-0.46546z" fill="#ffffff"/><path d="M228.1946,173.4599l-0.46049,-0.05279c-2.09951,0.99845 -4.53244,2.09046 -6.99382,2.44208c0,0 -0.49497,0.07071 -0.56569,-0.42426c-0.07071,-0.49497 0.42426,-0.56569 0.42426,-0.56569c1.84693,-0.26385 3.67995,-0.92055 5.33589,-1.68358c-0.11869,-0.01997 -0.22838,-0.05079 -0.32583,-0.09587c-2.3096,-1.06842 0.2257,-3.9293 -1.01787,-4.96533c-0.47145,-0.39278 -2.0538,-0.3792 -2.6355,-0.47615c0,0 -0.4932,-0.0822 -0.411,-0.5754c0.0822,-0.4932 0.5754,-0.411 0.5754,-0.411c0.84066,0.14011 2.57557,0.15958 3.21418,0.79333c0.87628,0.86961 -0.54917,4.33999 0.65747,4.71066c0.7559,0.23221 1.84491,-0.21063 2.63015,-0.02552c1.36629,0.32208 3.40607,2.48388 3.65088,3.78598c0.30338,2.1538 2.55345,1.3495 4.02572,2.44352c1.20565,0.89591 1.62664,1.97347 1.63147,3.46706v0.36818c0,0 0,0.5 -0.5,0.5c-0.5,0 -0.5,-0.5 -0.5,-0.5v-0.36818c0.00321,-0.88142 -0.24582,-1.48201 -0.64149,-1.92241c-0.06805,0.03467 -0.14508,0.05422 -0.22669,0.05422c-0.27614,0 -0.5,-0.22386 -0.5,-0.5c0,-0.04225 0.00524,-0.08328 0.01511,-0.12246c-1.52959,-0.90758 -3.86342,-0.96029 -4.2905,-3.25554c-0.11525,-0.83591 -1.68763,-2.51431 -2.63237,-2.90133c-0.11922,0.28046 -0.45929,0.28046 -0.45929,0.28046z" fill="#000000"/><path d="M240.69218,172.06606c-0.47434,-0.15811 -0.31623,-0.63246 -0.31623,-0.63246l0.02582,-0.07745c0.83468,-2.49573 0.63262,-5.03112 0.63262,-7.63149c0,0 0,-0.5 0.5,-0.5c0.5,0 0.5,0.5 0.5,0.5c0,2.7157 0.18312,5.33841 -0.68393,7.94772l-0.02582,0.07745c0,0 -0.15811,0.47434 -0.63246,0.31623z" fill="#000000"/><path d="M266.72736,180.37974c0.44721,0.22361 0.22361,0.67082 0.22361,0.67082l-0.31123,0.60707c-0.22042,1.54946 -1.32027,1.99849 -2.11428,3.20918c0,0 -0.09534,0.14301 -0.25807,0.20544v0.22744c-0.00521,1.31771 0.52757,2.41176 0.68048,3.70251c0.1925,1.62499 -1.2421,4.35793 0.62556,5.33937c1.48279,-0.28394 3.01626,-0.99424 4.46708,-0.66111c1.74961,0.40174 1.83595,2.60236 3.46228,3.09036c0,0 0.47434,0.15811 0.31623,0.63246c-0.15811,0.47434 -0.63246,0.31623 -0.63246,0.31623c-1.47928,-0.52954 -1.995,-2.82433 -3.37864,-3.06647c-1.32455,-0.23179 -2.65034,0.26595 -3.97372,0.55679c-0.18692,0.20687 -0.4427,0.14089 -0.54022,0.1049c-0.92597,0.15204 -1.85052,0.14022 -2.77241,-0.35677c-1.38892,-0.74877 -2.23152,-2.43723 -3.62611,-3.26471c-0.05127,-0.90994 -0.81347,-2.19964 -0.75828,-3.02131c0.03749,-0.55809 0.80254,-0.79344 1.10032,-1.26693c0.23347,-0.37123 -0.41015,-1.55048 -0.65947,-2.12661l0.05865,0.15311c0,0 -0.5,0 -0.5,-0.5c0,-0.5 0.5,-0.5 0.5,-0.5l0.82219,0.36051c0.28685,0.99581 1.12594,2.04 0.62927,3.13872c-0.05882,0.13013 -0.99173,0.35014 -0.95195,0.78535c0.08203,0.89738 0.69019,1.43969 0.60991,2.45142c1.42492,0.51527 1.9601,2.18437 3.21481,2.89212c0.40224,0.2269 0.81578,0.34056 1.23727,0.378c-1.09054,-1.44839 -0.01195,-3.44634 -0.24311,-5.31544c-0.16478,-1.33234 -0.68292,-2.45505 -0.6877,-3.8225v-0.71023c0,0 0,-0.5 0.5,-0.5c0.02936,0 0.057,0.00172 0.08302,0.00497c0.73793,-0.96247 1.67583,-1.43013 1.83327,-2.72997l0.37286,-0.76111c0,0 0.22361,-0.44721 0.67082,-0.22361z" fill="#000000"/></g></g></svg>