<svg version="1.1" xmlns="http://www.w3.org/2000/svg" xmlns:xlink="http://www.w3.org/1999/xlink" width="68.54416" height="74.32272" viewBox="0,0,68.54416,74.32272"><defs><radialGradient cx="228.18682" cy="136.05953" r="50.59894" gradientUnits="userSpaceOnUse" id="color-1"><stop offset="0" stop-color="#4d0a70"/><stop offset="1" stop-color="#334070"/></radialGradient><linearGradient x1="228.17235" y1="138.31378" x2="228.17235" y2="218.56391" gradientUnits="userSpaceOnUse" id="color-2"><stop offset="0" stop-color="#6d6670"/><stop offset="1" stop-color="#05223b"/></linearGradient><linearGradient x1="228.17235" y1="138.31378" x2="228.17235" y2="218.56391" gradientUnits="userSpaceOnUse" id="color-3"><stop offset="0" stop-color="#6d6670"/><stop offset="1" stop-color="#05223b"/></linearGradient></defs><g transform="translate(-205.63887,-142.83864)"><g data-paper-data="{&quot;isPaintingLayer&quot;:true}" fill-rule="nonzero" stroke="none" stroke-width="0.5" stroke-linecap="butt" stroke-linejoin="miter" stroke-miterlimit="10" stroke-dasharray="" stroke-dashoffset="0" style="mix-blend-mode: normal"><path d="" fill="url(#color-1)"/><path d="M245.02377,143.81304c0.60875,0.3801 1.25233,0.7416 1.92084,1.08794c1.28418,0.93081 2.635,1.7788 4.08386,2.50323c1.64026,0.82013 4.78587,1.65535 7.673,2.3921c1.89816,0.63425 4.60707,1.2836 6.5365,2.19272c1.32953,0.95874 2.71019,2.4425 4.15231,3.90797c1.35635,1.87262 2.36153,3.89267 3.18287,5.99893c-0.2072,0.38985 -0.34284,0.82352 -0.38941,1.28352c-2.12907,0.53227 -5.30238,2.77087 -5.86058,5.00364c-0.16341,0.65365 -0.2364,1.38328 -0.18949,2.09258c-0.13064,0.33516 -0.24297,0.68624 -0.33511,1.05482c-0.63891,2.55566 -0.07004,6.06506 1.11144,9.87994c-0.03389,0.05632 -0.06509,0.11444 -0.09341,0.17418l-0.02609,0.05217l-0.97562,0.45522c-0.37438,0.13836 -0.50307,1.11903 -0.58951,1.87418c-1.05514,1.7979 -2.05706,4.31253 -0.34949,4.69762c-0.09659,2.29588 -0.15335,4.74631 -0.04588,4.83991c1.95032,1.69867 3.6273,-0.3666 5.77202,0.61629c0.75941,0.34802 1.76593,1.51683 2.89949,2.66074c0.10941,0.21648 0.21812,0.43078 0.32597,0.64275c-0.77624,1.29569 -1.41957,2.60161 -1.82357,3.72653c-2.46699,1.91417 -5.17537,3.60169 -6.89894,5.31895c-1.61706,1.61114 -2.5607,3.79498 -3.76317,5.69071c-3.45908,1.35187 -6.92973,2.74877 -9.87582,4.80716c-1.03508,-1.10815 -2.76484,-2.08941 -4.42626,-2.47453c-1.86578,-2.61773 -4.74204,-5.3825 -8.17838,-5.64684c-5.83341,-0.44872 -11.33944,2.37631 -16.94712,4.18759c-0.86284,-0.2964 -1.74359,-0.58648 -2.64731,-0.86499c-0.96783,-0.84952 -2.18649,-1.66194 -3.14656,-2.09515c-1.69127,-3.91358 -4.2566,-8.1792 -6.23544,-11.43624c-1.7744,-2.92056 -2.00681,-6.04492 -3.19419,-9.14298c-0.12832,-0.3348 -0.70765,-0.71999 -0.45519,-0.9746c1.69395,-1.70832 4.10945,-3.26442 6.4983,-4.90753c0.08644,0.09352 0.19164,0.17244 0.31715,0.2352c1.14451,0.57226 1.84706,-0.0027 2.34787,-0.78262c0.63519,-0.9892 1.66319,-2.34856 2.75784,-3.81539c0.77952,-0.82566 1.44372,-1.70229 1.93562,-2.64812c0.29998,-0.4251 0.58992,-0.84643 0.86244,-1.25803c0.56452,-0.10034 1.19627,-0.29925 1.79476,-0.56007c0.15507,0.27185 0.50014,0.22256 0.50014,0.22256c0.98094,-0.14447 1.68322,-0.67215 2.61159,-0.89302l0.30178,-0.09904c0,0 0.47434,-0.15811 0.31622,-0.63245c-0.07263,-0.21788 -0.21198,-0.30233 -0.34143,-0.32994c-0.08064,-0.36519 -0.48615,-0.36519 -0.48615,-0.36519c-0.03624,0 -0.28514,0 -0.41669,0c0.36137,-0.85001 0.31661,-2.01829 0.06597,-2.85635c0.32259,-0.30516 0.03467,-0.66507 0.03467,-0.66507l-0.24476,-0.29325c0.07371,-0.29641 -0.19892,-0.50089 -0.19892,-0.50089l-0.65324,-0.36494c-0.17663,0 -0.35325,0 -0.52987,0c0,0 -0.12274,0 -0.24659,0.06081c-0.48539,-0.30019 -1.03333,-0.47851 -1.5998,-0.51051c-0.27019,-0.20959 -0.43854,-0.48526 -0.43032,-0.8837c0.72565,-1.03075 1.43556,-2.25976 2.15309,-3.69483c0.16965,-0.3393 0.23205,-0.87476 0.21675,-1.5283c0.08216,-0.19701 0.15711,-0.39519 0.22269,-0.5948c0.40685,-1.23836 0.16521,-2.86612 -0.03859,-4.36305c2.79996,-2.88385 5.84188,-5.44409 8.62622,-8.33472c0.71683,0.41683 1.52681,0.97998 2.34692,0.97869c0.1935,-0.0003 0.48502,-0.05203 0.84272,-0.14345l0.28295,0.04716c0.02966,0.00548 0.06024,0.00835 0.09149,0.00835c0.20516,0 0.38146,-0.12356 0.45854,-0.30033c2.11773,-0.68737 5.28098,-2.12356 5.80126,-2.94923c0.38356,-0.60871 0.24537,-1.76972 0.24537,-2.46081c0,0 0,-0.00805 -0.00102,-0.02212c0.46295,0.07121 0.92607,0.1428 1.38955,0.21489c0.47937,0.23218 0.85126,0.42003 0.95371,0.484z" fill="url(#color-2)"/><path d="" fill="url(#color-3)"/><path d="M219.72721,185.05776c0.23768,-0.2397 0.48957,-0.4764 0.7536,-0.71077c-0.05457,0.54757 -0.1649,1.08487 -0.33597,1.60636c-0.17591,-0.31497 -0.65044,-0.6608 -0.41763,-0.89559z" fill="#0f132a"/><path d="M246.79319,155.46831c0.10066,-0.04238 0.19943,-0.0857 0.2966,-0.12973c1.00524,-0.77281 2.19359,-1.3192 3.48876,-1.56292c0.58398,-0.15061 1.23152,-0.22975 1.9962,-0.19394c7.21927,0.33801 8.78781,4.60695 7.76628,8.91585c-0.15971,2.16924 -1.1582,4.1053 -2.67242,5.48514c-1.10872,1.44347 -2.41719,2.60533 -3.72093,3.22566c-1.18076,0.56181 -7.73739,0.70509 -8.3014,0.46119c-0.52555,-0.22726 -4.53823,-6.4194 -4.61189,-6.91783c-0.53065,-3.59056 2.54323,-7.09323 5.20126,-8.86525z" fill="#0f132a"/><path d="M238.74207,192.92779c-0.40585,5.27612 -3.8469,8.29789 -8.72468,9.7779c-2.85375,0.86588 -7.2542,0.11542 -7.34429,-3.70034c-0.10945,-4.63556 5.06714,-7.89952 8.84965,-9.13887c2.28562,-0.74889 5.83438,-0.83947 6.44043,2.19079z" fill="#0f132a"/><path d="" fill="#0f132a"/><path d="" fill="#0f132a"/><path d="" fill="#0f132a"/><path d="M236.70221,191.12732c0.10551,-0.48874 0.59425,-0.38323 0.59425,-0.38323l0.76716,0.16562c3.14522,0.67917 5.82275,1.79225 8.57813,3.44276c0,0 0.42875,0.25725 0.1715,0.686c-0.25725,0.42874 -0.68599,0.1715 -0.68599,0.1715c-2.65824,-1.59743 -5.2374,-2.66728 -8.27465,-3.32278l-0.76716,-0.16561c0,0 -0.48874,-0.10551 -0.38323,-0.59425z" fill="#0f132a"/><path d="M223.99751,200.90343c0.48507,0.12127 0.3638,0.60634 0.3638,0.60634l-0.1501,0.58498c0.00904,2.14301 0.16132,4.26041 0.16503,6.39052c0,0 0,0.5 -0.5,0.5c-0.5,0 -0.5,-0.5 -0.5,-0.5c0.00412,-2.16993 -0.16593,-4.32541 -0.15755,-6.51271l0.17248,-0.70533c0,0 0.12127,-0.48507 0.60634,-0.3638z" fill="#0f132a"/><path d="M237.4965,196.00715c0.35356,-0.35356 0.70711,0 0.70711,0l0.27978,0.35c0.50852,1.4562 1.14572,2.9724 1.15699,4.51969c0,0 0,0.5 -0.5,0.5c-0.5,0 -0.5,-0.5 -0.5,-0.5c0.01256,-1.41375 -0.63628,-2.85901 -1.10108,-4.19l-0.0428,0.02741c0,0 -0.35356,-0.35355 0,-0.7071z" fill="#0f132a"/><path d="M234.03031,201.48624c0.15812,-0.47434 0.63245,-0.31622 0.63245,-0.31622l0.48387,0.16129c1.54005,0.51335 2.8753,1.26902 4.51931,1.26467c0,0 0.5,0 0.5,0.5c0,0.5 -0.5,0.5 -0.5,0.5c-1.7757,-0.00425 -3.18058,-0.76432 -4.83554,-1.31598l-0.48387,-0.16129c0,0 -0.47434,-0.15812 -0.31623,-0.63246z" fill="#0f132a"/><path d="M228.66237,203.9627c-0.14218,-0.02482 -0.41686,-0.12074 -0.41686,-0.49133c0,-0.5 0.5,-0.5 0.5,-0.5l0.80765,0.37874c0.11263,0.46061 0.17371,0.93741 0.17622,1.41159c0,0 0,0.5 -0.5,0.5c-0.5,0 -0.5,-0.5 -0.5,-0.5c0.00171,-0.26681 -0.02141,-0.5351 -0.06701,-0.79899z" fill="#0f132a"/><path d="" fill="#0f132a"/><path d="" fill="#0f132a"/><path d="" fill="#0f132a"/><path d="" fill="#0f132a"/><path d="" fill="#0f132a"/><path d="" fill="#0f132a"/><path d="M244.86803,170.2331c-0.23804,-0.4397 0.20166,-0.67774 0.20166,-0.67774l0.52594,-0.28259c1.59435,-0.53207 4.70762,-1.67114 5.13612,-3.48989c0,0 0.12127,-0.48507 0.60634,-0.3638c0.48507,0.12127 0.36381,0.60634 0.36381,0.60634c-0.57784,2.21389 -3.71189,3.49672 -5.70825,4.16474l-0.44787,0.24461c0,0 -0.4397,0.23803 -0.67774,-0.20166z" fill="#0f132a"/><path d="M246.05918,179.04301c-0.48507,-0.12127 -0.3638,-0.60634 -0.3638,-0.60634l0.15657,-0.62473c0.64108,-1.9214 0.80312,-4.55384 1.88217,-6.19801c0,0 0.27735,-0.41603 0.69338,-0.13868c0.41602,0.27735 0.13868,0.69338 0.13868,0.69338c-1.01719,1.49572 -1.15715,4.1379 -1.75419,5.9232l-0.14646,0.58738c0,0 -0.12127,0.48508 -0.60634,0.36381z" fill="#0f132a"/><path d="M262.40355,168.98256c0,0.5 -0.5,0.5 -0.5,0.5l-0.64838,-0.00179c-1.51099,-0.25768 -2.80486,-0.60427 -4.35162,-0.60427c0,0 -0.5,0 -0.5,-0.5c0,-0.5 0.5,-0.5 0.5,-0.5c1.57401,0 2.90347,0.34455 4.43626,0.60786l0.56374,-0.00179c0,0 0.5,0 0.5,0.5z" fill="#0f132a"/><path d="M269.90786,160.96224c0.10706,0.48841 -0.38135,0.59546 -0.38135,0.59546l-0.76789,0.16699c-2.56266,0.18629 -5.20947,0.01677 -7.74182,0.44387c0,0 -0.4932,0.0822 -0.5754,-0.411c-0.0822,-0.49319 0.411,-0.5754 0.411,-0.5754c2.54541,-0.41961 5.18923,-0.26683 7.76316,-0.44718l0.69683,-0.15408c0,0 0.48841,-0.10706 0.59546,0.38134z" fill="#0f132a"/><path d="M259.95393,154.04241c0,0.5 -0.5,0.5 -0.5,0.5l-0.848,-0.00374c-0.55679,0.14008 -0.8554,0.19073 -1.16021,0.69019c0,0 -0.27735,0.41603 -0.69338,0.13868c-0.41602,-0.27735 -0.13868,-0.69338 -0.13868,-0.69338c0.51954,-0.73889 1.00593,-0.9129 1.87009,-1.12799l0.97018,-0.00375c0,0 0.5,0 0.5,0.5z" fill="#0f132a"/><path d="M213.07034,184.09727c-1.44996,0.90691 -3.52089,1.48499 -4.52694,2.84885c-0.88554,0.03431 -1.76738,0.78022 -1.9026,1.72583c-0.02968,0.20756 1.04496,0.98952 1.10177,1.08698c1.326,2.27486 1.30542,5.0135 2.84739,7.36001c0.60841,1.78085 1.99005,3.15576 2.83333,4.83333c1.06184,2.11235 1.64446,4.66051 2.96687,6.60899c1.60665,2.41168 4.90655,4.9605 8.10575,4.13214c1.46294,-0.3788 2.04973,-2.09331 3.63809,-2.4904c2.59545,-1.29772 6.98025,-1.53106 9.84014,-1.53106c1.21209,0 2.44651,-0.21601 3.47823,0.52145c1.05493,0 1.90649,0.95093 2.6721,1.59187c1.37473,1.15087 3.01057,2.95357 4.74686,4.15465c-0.86369,-0.40919 -1.78905,-0.69638 -2.65777,-0.78882c-0.55799,-0.50117 -1.05565,-1.01427 -1.45941,-1.49551c-0.73976,-0.88172 -2.37012,-2.50512 -3.59155,-2.50512c-2.5707,-1.62226 -10.04725,-0.3268 -12.68163,0.9904c-1.56573,0.39143 -2.15192,2.04498 -3.69525,2.5096c-1.42571,0.42921 -2.90177,0.21824 -4.27426,-0.36135c-0.86127,-1.21409 -2.93537,-2.76202 -4.4008,-3.42056c-0.20096,-0.25066 -0.38578,-0.50267 -0.55253,-0.75262c-1.32524,-2.0167 -1.95757,-4.55942 -3.03313,-6.72434c-0.8331,-1.67689 -2.25477,-3.04042 -2.83333,-4.83333c-1.58367,-2.33343 -1.5467,-5.00632 -2.81928,-7.30666c-0.41151,-0.74385 -1.17466,-0.49928 -1.23157,-1.57968c-0.06177,-1.17275 1.35537,-2.65733 2.43074,-2.6075c0.77476,-1.33083 3.1484,-1.99057 4.47306,-2.81782c0.01579,-0.00986 0.03156,-0.01973 0.04731,-0.02959c0.10337,0.18175 0.25414,0.3273 0.45904,0.42975c0.15957,0.07979 0.31055,0.13727 0.45359,0.17501c-0.14308,0.09214 -0.28782,0.18391 -0.43423,0.27549z" fill="#ffffff"/><path d="M252.04626,216.18095c1.19291,-0.48887 2.05549,-1.38316 3.20821,-1.95818c2.34992,-1.17222 5.75134,-0.90284 7.28722,-3.30181c1.31434,-2.62867 2.60233,-5.29078 4.74195,-7.43227c1.38356,-1.38476 3.17011,-2.1667 4.54018,-3.53677c0.60796,-0.40287 1.15171,-0.70213 1.53374,-1.19734c-0.34139,0.67732 -0.6315,1.33359 -0.85411,1.93967c-0.01511,0.01037 -0.03032,0.02071 -0.04564,0.03101c-1.348,1.348 -3.10384,2.10866 -4.45982,3.46323c-2.08412,2.08194 -3.3109,4.67344 -4.59138,7.2344c-1.84217,2.69282 -5.04958,2.36266 -7.71278,3.69819c-1.24342,0.62355 -2.1391,1.52226 -3.45454,2.04028c-0.43829,-0.34311 -0.89563,-0.66285 -1.36872,-0.95565c-0.19182,-0.16084 -0.39685,-0.3168 -0.61232,-0.4662c0.59153,0.26559 1.18951,0.42812 1.78802,0.44143z" fill="#ffffff"/><path d="M219.05683,178.61596c-0.9119,1.36693 -1.94301,2.46484 -3.11035,3.43716c1.31562,-1.87732 3.44761,-4.55338 5.00827,-6.9105c0.0111,-0.00197 0.02222,-0.00398 0.03337,-0.00603c-0.4537,1.08014 -1.08096,2.20388 -1.9313,3.47938z" fill="#ffffff"/><path d="M243.47414,142.83864c3.41455,0 4.75635,1.79841 7.57968,3.39823c1.41183,0.8 3.45579,1.05396 5.06011,1.45504c4.36087,1.45362 7.98881,3.45359 12.05155,5.35145c2.90241,1.09644 4.63928,5.02881 5.14981,8.25024c-0.36267,0.49104 -0.60003,1.08028 -0.66484,1.72049c-2.12907,0.53227 -5.30238,2.77087 -5.86058,5.00364c-0.29174,1.16695 -0.29528,2.57608 0.15714,3.67934c0.04922,1.3516 0.19388,2.70185 0.19005,3.9138c0.40575,1.58547 0.87554,3.11819 1.3909,4.63172c-0.35355,0.01686 -0.68305,0.12552 -0.96518,0.30266c-0.53273,-1.56955 -1.01309,-3.16079 -1.41823,-4.81221c-0.01064,-3.57689 -1.05342,-8.07779 1.80937,-10.91465c0.96041,-0.95171 2.42268,-1.25198 3.54199,-1.95833c0.21496,-0.00715 0.42993,-0.0143 0.64489,-0.02145l-0.02022,-0.18689c0,0 0.13697,-0.13697 0.32566,-0.15515c-0.22345,-2.88641 -1.78845,-7.77266 -4.66345,-8.52936c-3.99316,-2.08237 -7.60343,-3.86687 -11.94845,-5.31521c-1.68243,-0.42061 -3.79254,-0.69304 -5.27322,-1.54496c-2.65628,-1.52831 -3.9089,-3.26843 -7.08698,-3.26843c-0.26357,0 -0.52046,0.02299 -0.77197,0.06473c-0.00674,-0.28124 -0.02066,-0.54782 -0.02066,-0.7671c0,0 0,-0.11055 -0.05198,-0.22769c0.2726,-0.04503 0.55343,-0.06993 0.84461,-0.06993z" fill="#ffffff"/><path d="M223.63363,162.08091c0.11854,-0.34149 0.20591,-0.68815 0.2523,-1.04097c0.04977,-0.12821 0.0962,-0.25696 0.13869,-0.3863c0.43831,-1.33414 0.12395,-3.12024 -0.08487,-4.70777c1.21588,-3.39868 5.88062,-5.85979 7.45955,-8.56268c0.01571,-0.02036 0.0316,-0.04045 0.04768,-0.06027c0.02777,0.02242 0.05799,0.04192 0.0902,0.05805l0.78374,0.41249c0.00669,0.00352 0.0134,0.00707 0.02011,0.01064c-0.04412,0.04983 -0.08596,0.10199 -0.12537,0.15664c-1.47693,2.05205 -3.65149,3.80881 -5.35483,5.86154c-0.76399,0.92071 -2.22646,2.33427 -2.22646,3.60291c0.36892,1.08737 1.15097,2.29469 0.82641,3.5283c-0.15495,0.58894 -0.5817,1.16768 -1.0419,1.69711c-0.48275,1.33008 -1.34624,2.59439 -2.26096,3.87873c-0.0633,0.22246 -0.12379,0.44234 -0.18397,0.65533c0.00331,0.06025 0.00652,0.12015 0.00961,0.1797c-0.04028,-0.00377 -0.08066,-0.00681 -0.12114,-0.00909c-0.36388,-0.28227 -0.54303,-0.68437 -0.35497,-1.34481c0.3289,-1.15502 1.02466,-2.27746 1.64046,-3.42047c0.15898,-0.16258 0.32559,-0.33314 0.48572,-0.50908z" fill="#ffffff"/><path d="" fill="#ffffff"/><path d="M232.42008,146.51216c0.15201,-0.08594 0.31022,-0.16235 0.47339,-0.23091c-0.05532,0.0916 -0.10473,0.18238 -0.14732,0.27166z" fill="#ffffff"/><path d="M270.83771,186.39774c-0.09585,-0.05689 -0.19662,-0.11497 -0.30191,-0.17562c0.05892,-0.05122 0.11481,-0.10583 0.16737,-0.16353c0.04473,0.11291 0.08958,0.22596 0.13454,0.33916z" fill="#ffffff"/><path d="M271.62576,189.99646c0.09544,-0.30604 0.17188,-0.5816 0.23043,-0.83079c0.1632,0.49884 0.357,1.01149 0.56349,1.53195c-0.49546,-0.14997 -0.91591,-0.31001 -0.79392,-0.70115z" fill="#ffffff"/><path d="M273.73772,198.03041c0.02844,-0.08574 0.0539,-0.17618 0.07621,-0.27187c0.11307,-0.48509 -0.51884,-1.15074 -0.75896,-1.63487c0.3619,0.37442 0.73935,0.7584 1.12805,1.12161c-0.15438,0.26219 -0.30311,0.52443 -0.44531,0.78513z" fill="#ffffff"/><path d="M240.69219,172.06606c-0.47434,-0.15812 -0.31623,-0.63245 -0.31623,-0.63245l0.02582,-0.07746c0.83468,-2.49572 0.63262,-5.03112 0.63262,-7.63149c0,0 0,-0.5 0.5,-0.5c0.5,0 0.5,0.5 0.5,0.5c0,2.7157 0.18312,5.33841 -0.68393,7.94772l-0.02582,0.07746c0,0 -0.15811,0.47434 -0.63245,0.31623z" fill="#000000"/><path d="M254.64281,181.26854c0,-0.5 0.5,-0.5 0.5,-0.5h0.37569c2.05119,0.00946 2.27016,1.42629 3.90176,2.08773c1.40561,0.56982 3.07056,0.37126 4.62097,1.00389c0.70009,-0.81321 1.49831,-1.30573 1.64245,-2.4957l0.37286,-0.76111c0,0 0.2236,-0.44721 0.67082,-0.2236c0.44722,0.2236 0.22361,0.67082 0.22361,0.67082l-0.20981,0.40924l-0.92627,0.43219c-0.37438,0.13836 -0.50307,1.11903 -0.58951,1.87418c-0.11879,0.20242 -0.23691,0.41392 -0.35056,0.63044c-0.1203,0.14515 -0.23785,0.30016 -0.34937,0.4702c0,0 -0.09534,0.14301 -0.25807,0.20543v0.22745c-0.00054,0.13843 0.00484,0.27438 0.01511,0.40836c-0.47751,1.29689 -0.54141,2.48983 0.57941,2.75253c0.00393,0.02014 0.00779,0.0403 0.01159,0.06051c-0.0325,0.77871 -0.0603,1.57277 -0.07858,2.28448c-0.23412,1.38902 -0.49248,2.86809 0.77853,3.53599c0.4866,-0.09318 0.97866,-0.23228 1.47147,-0.36534c1.12385,-0.12547 2.25417,-0.65335 3.55713,-0.05623c0.07659,0.0351 0.15569,0.07855 0.23719,0.12948c1.03129,0.76636 1.32865,2.32079 2.66358,2.72135c0,0 0.47434,0.15811 0.31622,0.63245c-0.15812,0.47434 -0.63245,0.31623 -0.63245,0.31623c-1.47928,-0.52954 -1.995,-2.82433 -3.37864,-3.06646c-1.32455,-0.2318 -2.65033,0.26595 -3.97373,0.55679c-0.18692,0.20687 -0.4427,0.1409 -0.54021,0.1049c-0.92597,0.15204 -1.85052,0.14022 -2.77241,-0.35677c-1.38892,-0.74876 -2.23152,-2.43723 -3.6261,-3.2647c-0.05127,-0.90994 -0.81348,-2.19965 -0.75828,-3.02132c0.03749,-0.55809 0.80253,-0.79344 1.10032,-1.26692c0.20682,-0.32885 -0.27463,-1.29177 -0.56056,-1.90783c-0.01201,-0.01641 -0.01817,-0.02669 -0.01817,-0.02669c-0.00772,-0.01291 -0.01553,-0.02592 -0.02342,-0.039c-0.02832,-0.00044 -0.49867,-0.01504 -0.49867,-0.49999c0,-0.08501 0.01445,-0.15558 0.03845,-0.21414c-1.10879,-1.60551 -2.97743,-3.50492 -4.70576,-1.44893c-0.78206,0.93033 -0.85551,1.98238 -1.47957,2.97354l-0.19472,0.2054c-0.48638,2.33151 -2.81342,2.06002 -4.98572,1.891c-2.76493,-0.57581 -2.53176,-2.72224 -4.38295,-4.23827c-1.70672,-1.39772 -1.95729,1.29552 -2.81361,1.92251c-0.69315,0.50752 -2.81697,-0.47079 -3.16278,-1.02c-0.12353,-0.19618 0.15981,-2.04929 0.15981,-2.41916c0,0 0,-0.37133 0.32,-0.47398v-0.28251c0.00321,-0.88142 -0.24582,-1.48201 -0.6415,-1.9224c-0.06805,0.03467 -0.14508,0.05423 -0.22669,0.05423c-0.27614,0 -0.5,-0.22386 -0.5,-0.5c0,-0.04225 0.00524,-0.08328 0.01511,-0.12247c-1.52959,-0.90759 -3.86342,-0.96029 -4.2905,-3.25554c-0.11525,-0.8359 -1.68764,-2.51432 -2.63237,-2.90133c-0.11923,0.28045 -0.45929,0.28046 -0.45929,0.28046l-0.46049,-0.05279c-2.09951,0.99845 -4.53244,2.09046 -6.99381,2.44209c0,0 -0.11805,0.01686 -0.24708,-0.02353c0.15825,-0.22994 0.3125,-0.45795 0.46154,-0.68305c0.56452,-0.10034 1.19627,-0.29925 1.79475,-0.56006c0.15507,0.27185 0.50014,0.22256 0.50014,0.22256c0.98094,-0.14447 1.68322,-0.67215 2.61159,-0.89302l0.30178,-0.09904c0,0 0.47434,-0.15811 0.31622,-0.63245c-0.07263,-0.21788 -0.21198,-0.30233 -0.34143,-0.32994c-0.08064,-0.36519 -0.48615,-0.36519 -0.48615,-0.36519c-0.03624,0 -0.28514,0 -0.41669,0c0.1543,-0.36293 0.23455,-0.78389 0.25635,-1.21239c0.03721,0.44835 0.17035,0.78148 0.5003,0.88284c0.7559,0.2322 1.84491,-0.21063 2.63016,-0.02552c1.36629,0.32208 3.40607,2.48387 3.65088,3.78598c0.30338,2.1538 2.55346,1.3495 4.02572,2.44352c1.20566,0.8959 1.62664,1.97347 1.63147,3.46706v0.36819c0,0 0,0.37372 -0.3231,0.47496c-0.04742,0.68102 -0.61797,1.46709 -0.21277,2.00241c0.35961,0.4751 1.35748,0.95476 1.72114,0.48275c1.00626,-1.30608 1.67412,-3.54969 3.92727,-1.84295c1.71098,1.29605 1.48968,3.57856 3.90364,4.03543c1.70937,0.12988 4.02071,0.74985 3.93992,-1.75881l0.51214,-0.29242c0.44028,-0.83703 0.61381,-1.88718 1.28561,-2.64669c0.65577,-0.7414 1.32481,-1.11178 1.98131,-1.21383c-0.0141,-0.04843 -0.02218,-0.1039 -0.02218,-0.16745zM259.13047,183.81337c-0.26453,-0.10384 -0.49061,-0.2312 -0.6925,-0.37113c0.36145,0.42781 0.68554,0.88314 0.96164,1.32379l0.05927,0.02599c0.01368,0.04748 0.02861,0.09507 0.0446,0.14278c0.00428,0.00707 0.00853,0.01415 0.01278,0.02121c0,0 0.05243,0.08738 0.0705,0.20691c0.34573,0.88347 0.93677,1.8047 0.50139,2.76783c-0.05883,0.13013 -0.99173,0.35014 -0.95195,0.78536c0.08203,0.89739 0.69019,1.43968 0.6099,2.45142c1.42492,0.51526 1.9601,2.18437 3.21481,2.89212c0.40224,0.2269 0.81579,0.34056 1.23728,0.378c-1.09055,-1.44839 -0.01195,-3.44634 -0.24311,-5.31544c-0.16478,-1.33235 -0.68291,-2.45504 -0.6877,-3.8225v-0.66645c-1.40807,-0.46886 -2.82905,-0.30648 -4.13691,-0.81988z" fill="#000000"/><path d="M225.3356,168.96405l-0.24476,-0.29325c0.07371,-0.29641 -0.19892,-0.50089 -0.19892,-0.50089l-0.65324,-0.36494c-0.17663,0 -0.35325,0 -0.52987,0c0,0 -0.02083,0 -0.05398,0.00426c-0.12108,-0.01834 -0.2462,-0.03377 -0.3718,-0.04719c-0.43931,-0.23752 -0.9228,-0.37864 -1.4206,-0.40676c-0.12748,-0.09889 -0.23229,-0.21249 -0.30658,-0.34676c0.10816,-0.43259 0.56414,-0.35659 0.56414,-0.35659c0.84067,0.14011 2.57557,0.15959 3.21418,0.79334c0.54092,0.53681 0.20476,2.06467 0.15207,3.24266c-0.025,-0.37681 -0.09038,-0.74148 -0.18528,-1.0588c0.32259,-0.30516 0.03467,-0.66507 0.03467,-0.66507z" fill="#000000"/><path d="" fill="#000000"/><path d="" fill="#000000"/><path d="M258.64831,200.42857c0,0.5 -0.5,0.5 -0.5,0.5h-0.56353c-0.44373,-0.00189 -3.0405,0.13654 -3.10708,0.63056c-0.30014,2.22675 -0.88677,3.96231 -3.54148,4.06227c-0.03251,0.08202 -0.06994,0.15232 -0.113,0.20798c-0.7164,0.92591 -3.24464,0.42385 -4.1816,1.1759c-0.45185,0.36267 -0.45499,1.07528 -0.78851,1.54906c-0.37442,0.53188 -0.84521,0.61698 -0.74065,1.34932c0.11674,0.8176 2.46967,2.73262 3.05802,3.3204c0,0 0.35356,0.35356 0,0.70711c-0.35356,0.35356 -0.70711,0 -0.70711,0c-2.24523,-2.24731 -4.88173,-4.89473 -1.47662,-7.68163c0.60791,-0.49755 3.79292,-0.61951 4.08351,-1.07822c0.19716,-0.31123 0.06458,-2.03248 0.06432,-2.36156c0,-1.98621 0.23642,-3.81645 0.02146,-5.80532l-0.34436,-0.67266c0,0 -0.2236,-0.44721 0.22361,-0.67082c0.44721,-0.2236 0.67082,0.2236 0.67082,0.2236l0.40702,0.83009c0.28655,2.08868 0.02145,4.01389 0.02145,6.0951c-0.00027,0.37261 0.03123,1.13356 -0.01784,1.81561c2.34421,-0.06408 1.85376,-1.85573 2.43708,-3.44891c0.42696,-1.16611 3.02085,-1.24409 4.03096,-1.24788h0.56353c0,0 0.5,0 0.5,0.5z" fill="#000000"/><path d="M229.61824,154.00912c-0.35356,-0.35356 0,-0.70711 0,-0.70711l0.30392,-0.285c0.35727,-0.78654 2.93645,-2.91388 3.97348,-3.22025c1.18192,-0.34916 2.17224,0.23618 3.43178,-0.18456c0,0 0.11249,-0.0375 0.24617,-0.02119c1.46349,-2.1884 5.75136,-1.7093 5.11749,-4.96145c0.01581,-0.21786 0.01676,-0.44344 0.0125,-0.66179c0.05571,-0.08102 0.14741,-0.1523 0.29599,-0.18944c0.48507,-0.12127 0.60634,0.3638 0.60634,0.3638c0.8736,3.56221 -2.5726,4.3098 -5.08097,5.78959c-1.81646,1.0716 1.38582,4.5278 -0.21706,6.2305c-0.79986,1.5401 -1.58184,2.67471 -1.6375,4.45972l0.09956,-0.27554c0,0 0.44721,0.2236 0.2236,0.67082c-0.2236,0.44721 -0.67082,0.22361 -0.67082,0.22361l-0.65182,-0.65123c0.0668,-1.99689 0.91839,-3.31342 1.83221,-5.02098c1.3211,-1.22332 -0.49622,-3.05904 -0.33029,-4.86595c-2.17656,0.58745 -3.33903,-0.02842 -5.11308,1.94149c-0.67385,0.74825 -1.19013,0.15636 -1.28693,0.89859l-0.44746,0.46637c0,0 -0.35355,0.35356 -0.70711,0z" fill="#000000"/></g></g></svg>