<svg version="1.1" xmlns="http://www.w3.org/2000/svg" xmlns:xlink="http://www.w3.org/1999/xlink" width="152.21154" height="153.91153" viewBox="0,0,152.21154,153.91153"><g transform="translate(-129,-67.30001)"><g data-paper-data="{&quot;isPaintingLayer&quot;:true}" fill-rule="nonzero" stroke="#000303" stroke-width="0.5" stroke-linecap="butt" stroke-linejoin="miter" stroke-miterlimit="10" stroke-dasharray="" stroke-dashoffset="0" style="mix-blend-mode: normal"><path d="M129,67.30001v0v0v0z" fill="none"/><path d="M202.16511,180c0,-20.89564 16.93926,-37.83489 37.83489,-37.83489c20.89564,0 37.83489,16.93925 37.83489,37.83489c0,20.89563 -16.93925,37.83489 -37.83489,37.83489c-20.89563,0 -37.83489,-16.93926 -37.83489,-37.83489z" fill="#ffffff"/><path d="M199.03846,180c0,-22.62243 18.3391,-40.96154 40.96154,-40.96154c22.62243,0 40.96154,18.3391 40.96154,40.96154c0,22.62243 -18.3391,40.96154 -40.96154,40.96154c-22.62243,0 -40.96154,-18.3391 -40.96154,-40.96154z" fill="none"/></g></g></svg>