<svg version="1.1" xmlns="http://www.w3.org/2000/svg" xmlns:xlink="http://www.w3.org/1999/xlink" width="361.05784" height="291.83886" viewBox="0,0,361.05784,291.83886"><g transform="translate(29.07087,-34.25)"><g data-paper-data="{&quot;isPaintingLayer&quot;:true}" fill-rule="nonzero" stroke-linejoin="miter" stroke-miterlimit="10" stroke-dasharray="" stroke-dashoffset="0" style="mix-blend-mode: normal"><path d="M123.75,35c0,-0.41421 0.33579,-0.75 0.75,-0.75c0.41421,0 0.75,0.33579 0.75,0.75c0,0.41421 -0.33579,0.75 -0.75,0.75c-0.41421,0 -0.75,-0.33579 -0.75,-0.75z" fill="#9966ff" stroke="none" stroke-width="0.5" stroke-linecap="butt"/><path d="M92.72728,257.20779v-150l214.93506,71.42857v0.64935z" fill="#2c1d49" stroke="#301e52" stroke-width="8" stroke-linecap="butt"/><path d="M91.42857,107.20779l214.28572,71.42858l-212.33766,77.27272" fill="none" stroke="#000000" stroke-width="0.5" stroke-linecap="round"/><path d="M67.4026,139.67532v0" fill="none" stroke="#301e52" stroke-width="0.5" stroke-linecap="round"/><path d="M46.82384,124.47779l49.79954,14.54818" fill="none" stroke="#301e52" stroke-width="8" stroke-linecap="round"/><path d="M45.72643,177.09585l48.29955,-19.88806" fill="none" stroke="#301e52" stroke-width="8" stroke-linecap="round"/><path d="M45.16603,195.56085l44.96384,15.54305" fill="none" stroke="#301e52" stroke-width="8" stroke-linecap="round"/><path d="M88.18182,233.83117l-44.6729,17.43333" fill="none" stroke="#301e52" stroke-width="8" stroke-linecap="round"/><path d="M99.22728,150.06494l-6.5,8.44805c-3.60275,-0.09731 -6.96465,1.18331 -10.33782,2.28211c-2.40657,0.78394 -5.00886,0.77887 -7.46413,1.39352c-5.87672,1.47116 -11.68012,4.10667 -16.47782,7.90977c-2.98012,2.36232 -6.46375,6.11948 -10.79014,6.03038c-0.49318,0.82291 -1.16325,1.52768 -1.95766,2.06171c0.37855,-15.29138 0.53256,-30.59583 0.58832,-45.90186c0.27513,-2.66873 0.44343,-5.34579 0.54413,-8.0285c0.90246,0.21431 1.73206,0.61679 2.44505,1.16369l2.54488,1.90866c1.38871,0.52183 1.91813,2.54268 3.35028,2.92966c0.56482,0.15262 1.14401,-0.3559 1.7274,-0.31141c1.65998,0.12659 3.30881,0.42694 4.92682,0.81887c8.99664,2.17924 18.31679,2.81616 27.41293,5.4453l0.41987,0.50529l0.13062,-0.26123l2.47146,1.23573c2.19859,1.04224 3.71906,3.28194 3.71906,5.87676c0,0.23381 -0.01234,0.46474 -0.03642,0.69217c3.28318,1.67878 3.28318,5.80133 3.28318,5.80133z" fill="#2c1d49" stroke="none" stroke-width="0.5" stroke-linecap="butt"/><path d="M92.53211,227.14878c-0.83313,4.38649 -3.69102,8.69119 -8.59469,8.437c-0.11407,-0.00591 -0.22759,-0.01385 -0.34054,-0.02373c-1.18536,0.62479 -2.31056,1.40216 -3.59191,1.78348c-2.07205,0.61662 -7.07001,2.24507 -12.17279,2.86604c-4.30837,2.5016 -10.80546,5.8669 -14.06594,5.3144c-1.16564,-0.19752 -2.46359,-0.35961 -3.71109,-0.63361c-0.0947,0.05903 -0.18803,0.11562 -0.27993,0.16969c-0.23853,0.14033 -0.48154,0.27026 -0.72848,0.39108c-1.07314,1.90912 -3.08257,3.2214 -5.40577,3.31432c0.01882,-0.41126 0.03256,-0.76265 0.04033,-1.04279c0.38736,-13.95361 -0.52368,-14.51076 0.04963,-29.87942c0.21762,-5.83357 1.0085,-11.63567 1.24729,-17.46841c0.05548,-1.35512 0.10871,-2.71039 0.15978,-4.0658c1.2435,0.53449 2.48705,1.08712 3.62814,1.32388c0.76174,0.15805 1.57451,-0.22865 2.33321,-0.0566c1.39366,0.31604 2.66004,1.04978 4.0174,1.49672c5.33827,1.75774 11.21098,1.96558 16.48907,3.98455c4.23355,1.61942 7.48514,4.77602 11.68831,6.49351c4.5054,1.84099 9.22862,3.29894 13.63875,5.47728c0,0 5.81378,2.90689 2.90689,8.72066c-2.00691,4.01381 -5.39937,3.87094 -7.30764,3.39773z" fill="#2c1d49" stroke="none" stroke-width="0.5" stroke-linecap="butt"/><path d="M184.92857,206.55844c0,-3.58985 2.91015,-6.5 6.5,-6.5c3.58985,0 6.5,2.91015 6.5,6.5c0,3.58985 -2.91015,6.5 -6.5,6.5c-3.58985,0 -6.5,-2.91015 -6.5,-6.5z" fill="#6bc8ea" stroke="none" stroke-width="0.5" stroke-linecap="butt"/><path d="M260.9026,178.63637c0,-3.58985 2.91015,-6.5 6.5,-6.5c3.58985,0 6.5,2.91015 6.5,6.5c0,3.58985 -2.91015,6.5 -6.5,6.5c-3.58985,0 -6.5,-2.91015 -6.5,-6.5z" fill="#6bc8ea" stroke="none" stroke-width="0.5" stroke-linecap="butt"/><path d="M186.22728,152.01298c0,-3.58985 2.91015,-6.5 6.5,-6.5c3.58985,0 6.5,2.91015 6.5,6.5c0,3.58985 -2.91015,6.5 -6.5,6.5c-3.58985,0 -6.5,-2.91015 -6.5,-6.5z" fill="#6bc8ea" stroke="none" stroke-width="0.5" stroke-linecap="butt"/><path d="M192.72728,213.05844c-6.5,0 -6.5,-6.5 -6.5,-6.5v-2.5974c0,-17.2636 0.95657,-34.82244 -0.62266,-52.00892c0,0 -0.58848,-6.47331 5.88483,-7.06179c6.47331,-0.58848 7.06179,5.88483 7.06179,5.88483c1.58338,17.59169 0.67604,35.5196 0.67604,53.18588v2.5974c0,0 0,6.5 -6.5,6.5z" fill="#6bc8ea" stroke="none" stroke-width="0.5" stroke-linecap="butt"/><path d="M265.71273,171.49824c1.20779,0.08232 6.24181,0.76854 6.24181,6.48878c0,6.5 -6.5,6.5 -6.5,6.5l-4.20559,-0.68623c-0.8658,-0.4329 -1.7316,-0.8658 -2.5974,-1.2987c-3.3031,-1.65155 -6.57303,-3.56322 -9.97017,-5.00337c-3.70511,-1.5707 -7.44188,-1.64738 -11.08668,-3.5855c-2.5692,-1.36617 -4.80389,-2.9725 -7.40121,-4.34283c-1.84473,-0.97326 -4.06148,-0.99736 -6.00996,-1.74146c-10.49391,-4.00747 -20.80577,-8.07666 -31.73405,-10.80873c0,0 -6.30592,-1.57648 -4.72944,-7.88241c1.57648,-6.30593 7.88241,-4.72944 7.88241,-4.72944c8.47119,2.1178 16.62052,4.89323 24.75947,8.02244c4.93661,1.898 10.68565,3.12421 15.41861,5.4014c2.85155,1.37198 5.42645,3.12572 8.18321,4.74808c2.73524,1.6097 6.7688,1.70519 9.69254,2.90801c3.68565,1.51627 7.24034,3.60189 10.80906,5.38625c0.4158,0.2079 0.8316,0.4158 1.2474,0.6237z" fill="#6bc8ea" stroke="none" stroke-width="0.5" stroke-linecap="butt"/><path d="M219.77974,165.23698c1.15486,0.34139 2.2604,0.87481 3.21097,1.55051l3.91505,-1.79439c0.85664,-0.41576 1.81834,-0.64894 2.8345,-0.64894c0.44695,0 0.88336,0.04512 1.30494,0.13103c3.50666,-0.69246 8.42831,-1.05418 10.49242,1.83183c0.07527,0.10523 0.14863,0.212 0.22009,0.32021l0.24287,-0.1877c4.38948,0.40978 9.6229,-1.39071 13.16843,1.22934c2.56143,1.89282 4.00108,6.2116 3.03217,9.32684c1.30041,-0.88089 2.5643,-1.82659 3.90915,-2.63435l4.64292,-0.92629c0,0 6.5,0 6.5,6.5c0,5.22512 -4.20029,6.24995 -5.84794,6.45095c-2.05935,1.34867 -4.04076,2.8304 -6.23783,3.93355c-7.36139,3.69615 -15.62119,5.92931 -23.09562,9.25708c-2.86443,1.2753 -5.46379,3.17896 -8.452,4.12865c-1.30212,0.41383 -2.72593,0.31716 -4.04042,0.68983c-4.09563,1.16116 -7.9367,3.09175 -11.97561,4.437c-6.32898,2.10802 -12.83408,3.71394 -19.30007,5.33094c0,0 -6.30593,1.57648 -7.88241,-4.72944c-1.57648,-6.30593 4.72944,-7.88241 4.72944,-7.88241c0.93607,-0.23394 1.87017,-0.4744 2.80252,-0.7206c-3.63756,-6.13162 -0.21228,-13.20536 3.6408,-18.7023c-0.10306,-0.24847 -0.18757,-0.49222 -0.25524,-0.73104c-1.10282,-1.32948 -2.00379,-2.88831 -2.69376,-4.56681c-0.63018,-1.06061 -0.98646,-2.39522 -1.16433,-3.79707c-0.9094,-4.30275 -0.56736,-8.83651 1.15238,-12.08911c3.44473,-6.51513 11.56956,-12.98355 19.10764,-6.80738c1.58647,1.29984 2.29798,3.26108 2.88156,5.31902c0.42191,0.42056 0.84032,0.89088 1.25409,1.41411c0.988,1.24939 1.60576,2.74563 1.9033,4.36694z" fill="#6bc8ea" stroke="none" stroke-width="0.5" stroke-linecap="butt"/><path d="M197.27273,187.08442c-6.5,0 -6.5,-6.5 -6.5,-6.5v-2.5974c0,-5.47711 -0.10133,-10.81649 0.68098,-16.22491c0.21323,-1.47413 -0.36294,-3.20497 0.46315,-4.44436c1.70674,-2.56062 3.93905,-5.01139 6.71902,-6.33105c1.74197,-0.82692 3.84592,0.28845 5.77085,0.40208c5.52945,0.3264 9.61056,2.71494 14.52343,5.16043c3.4317,1.7082 6.38006,2.88084 9.5153,5.19885c0,0 5.2,3.9 1.3,9.1c-3.9,5.2 -9.1,1.3 -9.1,1.3c-3.36055,-2.57259 -7.69174,-4.56602 -11.51044,-6.31152c-1.38667,-0.63384 -2.78874,-1.27126 -4.26478,-1.65327c-0.17426,-0.0451 -0.35393,-0.03259 -0.53548,0.00126c-0.23235,4.5764 -0.56203,9.15124 -0.56203,13.8025v2.5974c0,0 0,6.5 -6.5,6.5z" fill="#ffffff" stroke="none" stroke-width="0.5" stroke-linecap="butt"/><path d="M94.66883,119.54546c0,-3.58985 2.91015,-6.5 6.5,-6.5c3.58985,0 6.5,2.91015 6.5,6.5c0,3.58985 -2.91015,6.5 -6.5,6.5c-3.58985,0 -6.5,-2.91015 -6.5,-6.5z" fill="#ffffff" stroke="none" stroke-width="0.5" stroke-linecap="butt"/><path d="M94.66883,162.4026c0,-3.58985 2.91015,-6.5 6.5,-6.5c3.58985,0 6.5,2.91015 6.5,6.5c0,3.58985 -2.91015,6.5 -6.5,6.5c-3.58985,0 -6.5,-2.91015 -6.5,-6.5z" fill="#ffffff" stroke="none" stroke-width="0.5" stroke-linecap="butt"/><path d="M93.37013,248.11689c0,-3.58985 2.91015,-6.5 6.5,-6.5c3.58985,0 6.5,2.91015 6.5,6.5c0,3.58985 -2.91015,6.5 -6.5,6.5c-3.58985,0 -6.5,-2.91015 -6.5,-6.5z" fill="#ffffff" stroke="none" stroke-width="0.5" stroke-linecap="butt"/><path d="M94.66883,204.61039c0,-3.58985 2.91015,-6.5 6.5,-6.5c3.58985,0 6.5,2.91015 6.5,6.5c0,3.58985 -2.91015,6.5 -6.5,6.5c-3.58985,0 -6.5,-2.91015 -6.5,-6.5z" fill="#ffffff" stroke="none" stroke-width="0.5" stroke-linecap="butt"/><path d="M219.35065,211.19805c2.24855,0 3.6178,0.87929 4.45159,1.95019c0.27231,0.00091 0.54477,0.00206 0.81734,0.00338c-0.36612,0.10417 -0.73157,0.20388 -1.09632,0.29839c-2.99436,0.77594 -6.67829,1.63486 -9.90502,3.16975c0.10357,-1.21984 0.81705,-5.42172 5.73241,-5.42172z" fill="#2b1d46" stroke="none" stroke-width="0.5" stroke-linecap="butt"/><path d="M176.44884,117.35006c13.8209,0 28.05329,-0.84165 41.84818,0.42617c0.0612,-0.06558 0.12016,-0.13398 0.177,-0.205c36.45398,0.602 72.58053,2.59585 109.13511,2.59585h1.59318c0.00006,3.06166 0.00951,6.12333 0.01964,9.18496c0.01101,3.32599 0.26473,6.91019 0.51196,10.23764c0.10231,1.37703 0.14087,3.12691 0.21108,5.06971h-2.33586c-43.06247,0 -85.5157,-2.76593 -128.61576,-2.76593c0,0 -1.53222,0 -3.51271,-0.54198c-0.47209,-0.01031 -0.81843,-0.12576 -0.81843,-0.12576l-0.59154,-0.28891c-2.65084,-0.15316 -5.27963,-0.46737 -7.91273,-0.76893c-0.19999,0.93499 -0.70799,1.92947 -1.70248,2.92395l-0.00001,-0.00001c-4.06587,4.06587 -8.13173,0 -8.13173,0l-2.26955,-2.29726c-0.38525,-0.53716 -0.76863,-1.07537 -1.15043,-1.61448c-1.02291,-0.31336 -1.76673,-1.26518 -1.76673,-2.39074c0,-0.04032 0.00095,-0.08042 0.00284,-0.12027c-0.32229,-0.46217 -0.64375,-0.9248 -0.96456,-1.38779c-0.72258,-0.12966 -1.43536,-0.3016 -2.13336,-0.53735h-4.40015c-1.08912,0 -2.01558,-0.69645 -2.35832,-1.66829c-0.12378,0.00796 -0.24862,0.01199 -0.37441,0.01199c-2.29542,0 -4.27668,-1.34503 -5.19867,-3.28994l-0.03843,-0.07685c-0.28847,-0.03754 -0.57581,-0.08156 -0.8618,-0.13335c-0.53532,0.16472 -1.10396,0.25338 -1.69331,0.25338c-0.85405,0 -1.66462,-0.1862 -2.39331,-0.52022c-0.80778,2.19855 -2.92018,3.76697 -5.3989,3.76697c-2.43888,0 -4.52311,-1.51841 -5.35894,-3.66146l-2.59934,-6.23842l-2.40162,3.0878c-0.8113,1.06395 -1.98527,1.83646 -3.33747,2.13309c-0.02149,0.94001 -0.03314,1.8816 -0.03314,2.8251v2.5974c0,0 0,5.75 -5.75,5.75c-5.75,0 -5.75,-5.75 -5.75,-5.75v-2.5974c0,-1.7417 -0.00365,-10.60408 0.01959,-10.86387c0.49684,-5.55308 1.73818,-11.04193 1.93211,-16.61382c0.20511,-5.89324 0.23121,-11.79801 0.00348,-17.69042c-0.21071,-5.45218 -1.87517,-10.29548 -1.95353,-15.7313c-0.0011,-0.04638 -0.00166,-0.0929 -0.00166,-0.13954c0,-0.72674 0.13482,-1.42199 0.38082,-2.0621c0.30526,-0.89844 0.8552,-1.91228 1.84595,-2.64925c0.32101,-0.74929 0.86699,-1.5127 1.72925,-2.25178c4.36572,-3.74205 8.10778,0.62367 8.10778,0.62367c4.6943,5.49501 7.86119,11.49222 12.02541,17.31671c5.66024,7.91696 11.94801,15.48585 17.98911,23.11839c3.38269,4.27382 6.54282,8.67805 9.63314,13.12444l0.03231,0.00047c1.24341,0.01843 2.48537,0.05132 3.72627,0.09625c0.48206,-0.16155 0.88465,-0.16155 0.88465,-0.16155z" fill="#2b1d46" stroke="none" stroke-width="0.5" stroke-linecap="butt"/><path d="M142.72727,232.62662c3.10451,0 4.53285,1.67618 5.19001,3.21854c0.70654,-0.35919 1.49724,-0.57667 2.33465,-0.61502c1.25592,-2.10918 2.51483,-4.21548 3.78357,-6.31378l0.68332,-0.16215c0.25829,0.29857 0.45496,0.95833 0.66211,1.5567c0.61575,-0.6108 1.26756,-1.18183 1.96929,-1.69678c0.35491,-0.26044 0.71792,-0.5073 1.08788,-0.74248l7.61394,-1.80675c-0.16627,0.64945 -0.30343,1.3098 -0.43037,1.97397l1.19245,-0.85915c-0.30335,1.1024 -0.57304,2.21699 -0.82916,3.33649c0.44456,-0.09479 0.88652,-0.19634 1.32176,-0.31529c0,0 1.74663,-0.43666 3.52953,0.15605c0.18397,-0.34799 0.35592,-0.69649 0.5143,-1.04531l2.37579,-2.79309c0,0 4.06586,-4.06586 8.13173,0c4.06586,4.06586 0,8.13173 0,8.13173l-0.22161,-0.19568c-2.99489,5.70997 -7.67792,10.79462 -11.63637,15.88501c-7.71137,9.91649 -14.77392,20.5135 -22.89974,30.08215c-1.81944,2.1425 -4.10699,3.8527 -5.95221,5.97303c-5.07651,5.8334 -9.2053,13.54605 -14.74886,18.99842l-1.0108,2.52701c-0.81541,2.1838 -2.92034,3.73886 -5.38848,3.73886c-3.17564,0 -5.75,-2.57436 -5.75,-5.75v-2.5974c0.0582,-4.45831 1.0529,-8.70322 0.66382,-13.22875c-1.24761,-14.51144 -1.75205,-30.13755 0.02994,-44.62731c0,0 0.7132,-5.7056 6.4188,-4.9924c3.33063,0.41633 4.47398,2.53388 4.84874,4.22461c0.13921,-0.60045 0.25722,-1.10952 0.34834,-1.50303l0.31914,-0.50722c0.34491,-0.20888 0.72367,-0.21806 1.12422,-0.09866c0.34146,-1.16892 0.77262,-2.29505 1.43893,-3.30428c1.02153,-1.54728 2.2942,-2.89354 3.63915,-4.18195c1.03681,1.62032 2.28775,3.17166 3.28189,4.80573l0.34367,-0.33651c0.28584,-0.6056 0.5781,-1.20863 0.87769,-1.80873l-0.60704,0.62343c0,0 0,-5.75 5.75,-5.75z" fill="#2b1d46" stroke="none" stroke-width="0.5" stroke-linecap="butt"/><path d="" fill="#2b1d46" stroke="none" stroke-width="0.5" stroke-linecap="butt"/><path d="M48.0573,178.61866c0.60634,2.42535 -1.81902,3.03169 -1.81902,3.03169l-4.30348,0.12393c-1.26656,-0.95788 -2.99794,-2.43955 -4.56723,-2.86259c-4.13663,-1.11512 -9.9479,0.48285 -14.05013,1.15693c-1.77498,-0.03292 -3.61763,0.38776 -5.32494,-0.09876c-3.17805,-0.90561 -7.23826,-4.88279 -9.40345,-7.34615c-1.24479,-1.41619 -1.85018,-3.43749 -3.38628,-4.53088c-4.93815,-3.51497 -12.28104,-0.17332 -17.48707,-1.87613c-2.51118,-0.82136 -6.97841,-4.34728 -8.43725,-6.48834c-1.05504,-1.54843 -0.88715,-3.75069 -2.01335,-5.24815c-0.73549,-0.97795 -2.49476,-0.22218 -3.58954,-0.76878c-1.10758,-0.553 -1.83095,-1.66666 -2.74643,-2.5c0.13474,-0.12265 0.26433,-0.25358 0.39105,-0.38914l1.87491,-1.86572c0.15138,-0.09584 0.31078,-0.17878 0.48047,-0.24514c0.08305,-0.03248 0.16741,-0.06158 0.25296,-0.08743c0.21933,-0.04366 0.44851,-0.08939 0.68549,-0.13762c2.31337,-0.25236 5.17842,1.38516 6.45772,2.75198c0.14506,0.15499 0.27397,0.30868 0.38899,0.4613c-2.4962,0.97536 -5.25337,1.54374 -7.53881,1.9996l-2.99277,-2.48783l0.39105,-0.38914c0.60757,-0.64993 1.14911,-1.40621 1.87491,-1.86572l0.23412,-0.23297c0.15964,-0.03205 0.32641,-0.06518 0.4993,-0.0996c0.22132,-0.06688 0.45056,-0.11199 0.68549,-0.13762c2.77015,-0.56375 6.60665,-1.46831 8.23112,-3.38727c2.55187,-3.01448 4.10725,-8.69738 7.62391,-10.8334c1.88272,-1.14356 4.73575,-0.92577 6.82579,-0.93427c5.34952,0 10.69352,-0.82635 13.80265,-5.95503c1.6838,-2.77753 0.75405,-6.28367 2.88876,-8.99496c2.83034,-3.59481 7.30016,-3.17643 11.32215,-3.17643c8.03301,0 13.93385,2.93658 18.98002,9.17755c0,0 1.56174,1.95217 -0.39043,3.51391c-1.95217,1.56174 -3.51391,-0.39043 -3.51391,-0.39043c-4.03612,-5.10995 -8.60597,-7.30102 -15.07567,-7.30102c-1.68538,0 -6.06614,-0.70229 -7.35356,1.21786c-1.64115,2.44773 -1.04868,5.97198 -2.60409,8.58218c-3.93791,6.60842 -11.04756,8.32638 -18.0559,8.32638c-1.3877,-0.00675 -3.0049,-0.60491 -4.15993,0.16431c-0.51645,0.34394 -0.62663,1.07263 -0.98078,1.58212c-1.85378,2.66687 -3.50101,6.08847 -5.67672,8.45731c-1.28173,1.39551 -3.06983,2.40377 -5.01668,3.16448c1.34254,1.7814 0.79462,3.41739 1.99194,5.27625c0.93768,1.45576 4.26042,3.95177 5.84418,4.49738c1.4825,0.51072 3.13427,-0.13109 4.70229,-0.1283c4.1041,0.00731 10.50025,0.1778 14.06348,2.64646c4.12299,2.85646 5.98707,9.64609 11.37882,11.19295c1.11022,0.31851 2.30908,-0.06584 3.46363,-0.09875c4.66819,-0.79074 10.90755,-2.33259 15.61129,-1.04021c2.73038,0.75018 4.29228,2.14547 6.41847,3.72884l0.0908,-0.97464c0,0 2.42535,-0.60634 3.03169,1.81902z" fill="#fff166" stroke="none" stroke-width="0.5" stroke-linecap="butt"/><path d="M40.94268,250.57311c-0.49029,2.45145 -2.94174,1.96116 -2.94174,1.96116l-2.50248,-0.51291c-5.46536,0.01251 -12.20555,-0.28629 -17.30665,-2.42763c-0.27551,-0.11566 -4.58772,-3.38557 -4.95785,-3.66442c-1.46585,-1.47604 -2.30737,-3.50925 -3.82792,-4.92889c-1.35467,-1.26476 -3.47733,-1.40231 -5.31725,-1.62462c-4.61543,-0.55766 -11.52083,1.62684 -15.74908,-0.86886c-3.42976,-2.0244 -4.30991,-6.60565 -6.31483,-9.56859c-1.22193,-1.80583 -3.96954,-2.1849 -5.17352,-4.00275c-1.12324,-1.69595 -2.71635,-3.82206 -2.05559,-5.74594c0.53733,-1.56449 6.5553,-0.68748 7.64258,-3.20792c1.3072,-3.03023 0.37932,-6.44516 2.29343,-9.50822c0.73914,-1.18282 1.96503,-1.97995 2.94754,-2.96992c2.13,-0.8848 3.98594,-2.42833 6.20175,-3.06861c2.63382,-0.76108 7.30612,-0.09589 10.00518,-0.09071c0.01128,0.00002 3.7045,0.11019 4.15992,-0.1643c1.66192,-1.00165 2.53731,-5.75908 3.84479,-7.22012c2.79887,-3.12759 7.50635,-5.21336 11.70145,-5.24821c3.73359,-0.03101 9.85513,0.79113 13.29911,2.47472c1.01204,0.49473 1.60005,1.65545 2.61897,2.13586c0.81775,0.38556 1.79163,0.24405 2.68744,0.36608c0,0 2.46599,0.411 2.05499,2.87698c-0.41099,2.46598 -2.87698,2.05499 -2.87698,2.05499c-1.30133,-0.24417 -2.69265,-0.19796 -3.90399,-0.7325c-1.11466,-0.49187 -1.78977,-1.70243 -2.87388,-2.25842c-3.36753,-1.72707 -9.99457,-2.56998 -13.53032,-1.47021c-1.85281,0.5763 -4.07159,1.56736 -5.41195,3.091c-2.18786,2.48704 -1.86613,6.20966 -4.94377,8.15986c-4.53562,2.87409 -10.83572,-0.63214 -15.4963,0.84356c-1.70432,0.53965 -3.11356,1.78731 -4.78396,2.42424c-3.20725,3.15765 -1.57836,6.92553 -3.54759,10.59185c-0.6898,1.28426 -1.84295,2.31383 -3.04383,3.14029c-0.50084,0.34468 -1.04045,0.67041 -1.60574,0.92741c0.23111,0.16019 0.45448,0.3308 0.66947,0.50782c1.20744,0.99422 2.38331,2.06982 3.295,3.34072c1.5484,2.15846 2.18885,6.47127 4.67088,8.00854c0.63676,0.39438 1.48824,0.18788 2.23678,0.21406c3.78789,0.13251 7.93506,-0.46491 11.67555,0.01564c1.1666,0.14988 6.75267,1.83382 7.8656,2.76967c1.60342,1.3483 2.37371,3.48392 3.86208,4.95825c1.28795,0.96104 2.34509,2.31436 3.83071,2.92701c4.57324,1.88593 10.77816,1.95609 15.65048,1.96665l2.99037,0.58567c0,0 2.45145,0.49029 1.96116,2.94174z" fill="#fff166" stroke="none" stroke-width="0.5" stroke-linecap="butt"/><path d="M42.63909,166.04215c0,2.5 -2.5,2.5 -2.5,2.5l-2.57633,-0.17881c-2.00194,-0.81607 -4.01898,-1.76357 -5.65309,-3.17898c-1.71749,-1.48763 -1.55614,-2.35932 -3.77834,-2.72946c-4.18399,-0.6969 -7.53315,0.19048 -11.62384,-1.86313c-2.47019,-1.24008 -4.06966,-2.36418 -5.80317,-4.54609c-1.19946,-1.50971 -1.08463,-2.89913 -2.89491,-3.65055c-1.46059,-0.60627 -3.92898,-0.22198 -5.26806,-0.34372c-0.69956,-0.06359 -1.67258,-0.27409 -2.69905,-0.53712h-2.54745c-1.38071,0 -2.5,-1.11929 -2.5,-2.5c0,-0.57191 0.19204,-1.09896 0.51515,-1.5202l1.6327,-2.17694l0.09203,0.06902l0.14021,-0.33679c4.35887,-3.25525 10.01969,-4.37726 15.02505,-6.55497c0.69305,-0.30153 1.57958,-0.22503 2.14964,-0.72128c2.34141,-2.03822 2.81608,-5.63547 5.57525,-7.75719c4.31978,-3.32178 10.46468,-3.71576 15.33236,-1.3425c3.70401,1.8059 6.03068,5.33264 8.84678,8.13667c0,0 1.76776,1.76777 0,3.53553c-1.76776,1.76776 -3.53553,0 -3.53553,0c-4.5249,-4.54226 -10.49485,-11.9871 -17.56655,-6.38868c-2.60159,2.0596 -3.00461,5.51126 -5.41046,7.62279c-0.91555,0.80355 -2.24097,0.95724 -3.34322,1.47586c-2.39785,1.12822 -3.83203,2.09664 -6.35391,2.86218c-1.61951,0.49162 -3.02855,0.71803 -4.39582,1.19217c2.49216,0.14079 3.75623,-0.47168 6.35174,0.72063c4.02869,1.85068 4.83261,6.26978 8.87905,8.28193c3.62642,1.80329 6.64402,0.61766 10.34757,1.43258c4.25137,0.93547 6.36849,4.62381 10.34285,6.17584l0.71938,-0.17881c0,0 2.5,0 2.5,2.5z" fill="#ff9343" stroke="none" stroke-width="0.5" stroke-linecap="butt"/><path d="M42.63909,238.54782c0,2.5 -2.5,2.5 -2.5,2.5l-2.13815,-0.04855c-3.18716,-0.67519 -3.9055,-0.46675 -6.67691,-2.7921c-1.96009,-1.64461 -1.31622,-2.88257 -3.73921,-3.968c-1.31228,-0.58786 -3.9721,-0.20489 -5.26921,-0.34423c-2.79872,-0.30063 -3.6131,-0.77156 -6.17498,-1.8145c-1.06852,-0.43499 -2.23109,-0.6975 -3.19418,-1.33266c-2.21554,-1.46116 -3.36763,-4.07134 -6.23725,-4.57578c-1.90357,-0.33462 -3.85259,-0.31853 -5.77557,-0.5127c-1.10536,-0.1116 -2.38618,0.46502 -3.33079,-0.11977c-1.65242,-1.02298 -2.58999,-2.89825 -3.88499,-4.34736c2.04788,-1.51328 4.43562,-2.67639 6.08885,-4.61306c1.60076,-1.87519 3.10654,-4.1156 5.37521,-5.08094c3.71225,-1.5796 8.20186,-1.17201 11.99071,-2.70807c3.71092,-1.50447 4.78789,-5.15509 7.46657,-7.71361c6.70971,-6.40871 14.53026,-1.54418 20.35735,3.11131c0,0 1.95217,1.56174 0.39043,3.51391c-1.56174,1.95217 -3.51391,0.39043 -3.51391,0.39043c-1.94111,-1.55508 -3.46068,-2.89511 -5.64427,-4.1339c-7.85593,-4.45681 -11.06334,6.86707 -17.06606,9.41873c-3.9031,1.65915 -8.26887,1.38134 -12.17784,2.78479c-1.95235,0.70095 -2.94974,3.1217 -4.25273,4.6952c0.66062,0.14947 1.31701,0.31363 1.90958,0.36866c2.21133,0.20536 4.5592,0.35197 6.51146,1.41064c1.76217,0.95559 2.88514,2.81439 4.5457,3.9373c1.43169,0.96814 3.17722,1.37931 4.82899,1.88789c3.00473,0.92515 6.14298,-0.14122 9.09548,1.21215c2.11535,0.96964 3.34478,3.2365 5.04936,4.82057c1.46046,1.35722 2.45551,1.26121 4.30879,1.60218l1.15757,-0.04855c0,0 2.5,0 2.5,2.5z" fill="#ff9343" stroke="none" stroke-width="0.5" stroke-linecap="butt"/><path d="M1.45485,144.9177c-0.13854,0.13412 -0.29301,0.2522 -0.46735,0.35027c-0.23982,0.13491 -0.5173,0.24156 -0.8207,0.33077c-0.23573,0.0789 -0.48016,0.13882 -0.73146,0.17795c-2.37769,0.48809 -5.6085,0.51591 -5.54734,3.92032c0.01696,0.94409 3.36048,0.73659 3.5408,0.74408c2.60526,0.10817 6.45317,0.17753 8.79356,1.34773c3.59912,1.79955 5.4086,5.22233 9.28871,7.02592c2.70336,1.2566 6.15721,0.47905 8.87721,0.5256c4.11718,0.07046 5.89839,3.12386 9.02363,5.18467c3.61708,2.38512 8.46232,0.93936 10.31187,5.38502c0.98319,2.36324 0.67124,3.31693 -1.38095,5.45835c-2.78815,2.90937 -10.0706,-2.39461 -13.34219,-2.31667c-2.62608,0.06257 -4.25834,1.72752 -7.22979,1.57045c-2.40195,-0.12696 -3.51877,-2.33403 -5.36067,-2.7605c-2.17396,-0.50335 -12.15069,-7.26775 -13.63149,-8.98757c-0.9449,-1.09742 -2.86494,0.52117 -4.3131,0.52117c-1.78756,0 -4.4244,-2.24447 -5.66164,-2.15694c-2.39099,0.16917 -4.01634,1.90432 -6.78613,0.51942c-4.19158,-2.09579 -3.04941,-3.98138 -4.34394,-7.83187c-0.32184,-0.95729 -1.34656,-1.55964 -1.70742,-2.50292c-0.39307,-1.02749 0.64728,-3.41979 1.19324,-4.37523c0.86366,-1.5114 3.68887,-0.77892 5.00385,-1.92339c4.13884,-3.60214 2.86048,-8.39584 10.51191,-8.29388c0.14666,0.00196 0.38857,-0.00598 0.68574,-0.01317c2.503,-2.30136 8.64712,-3.9619 11.5622,-5.35758c4.45012,-2.13063 5.38899,-7.31983 8.91897,-10.32449c3.39293,-2.88801 8.62111,-1.92107 12.60472,-1.8415c4.78084,0.09549 8.40311,3.26135 11.30807,6.79712c1.1918,-0.42014 2.33498,-1.00807 3.98839,0.56818c1.13295,1.08007 1.18587,2.87145 0.81415,4.72522v3.92614c0,1.38071 -1.11929,2.5 -2.5,2.5c-0.96237,0 -1.79774,-0.54378 -2.2156,-1.34083c-0.13082,0.02113 -0.26504,0.03213 -0.40182,0.03213c-0.23756,0 -0.46738,-0.03313 -0.68509,-0.09503c-0.03329,0.00072 -0.06668,0.00109 -0.10014,0.00109c-2.14832,1.34726 -6.16397,-5.0383 -7.07697,-6.15198c-2.40749,-2.93666 -7.03503,-1.99168 -10.16627,-1.96204c-0.33037,0.00313 -3.03753,5.11265 -3.04256,5.11866c-1.91262,2.28582 -4.55332,4.24067 -7.0169,5.92294c-2.72328,1.85961 -7.79573,4.64982 -11.66494,5.32514c-0.07236,0.09093 -0.14959,0.17696 -0.23252,0.25725z" fill="#fffdc9" stroke="none" stroke-width="0.5" stroke-linecap="butt"/><path d="M46.00722,144.22099c-4.8186,2.71051 -12.76038,-0.54095 -15.94044,-4.58226c-0.76343,-0.97018 -2.15543,-6.41347 -4.24215,-5.84843c-0.79768,0.21599 -1.80935,6.40208 -2.4035,7.15715c-3.43182,4.36126 -7.46785,6.22084 -13.03285,6.45347c-0.63088,0.02637 0.77947,1.01436 1.01165,1.60156c0.46368,1.17269 1.4556,2.15542 2.53405,2.80898c1.66951,1.01176 5.74803,-0.29155 7.805,-0.32341c4.12142,-0.06383 8.31579,4.09196 10.46697,7.06705c0.58826,0.81357 5.0288,-0.10283 5.93922,0.12477c1.52084,0.38021 8.2783,6.65229 8.6002,7.61799c0.47803,1.4341 0.9276,3.17595 0.25156,4.52803c-4.23376,8.46751 -9.65975,-2.7334 -11.64676,-3.1321c-2.37459,-0.47646 -5.21115,0.39893 -7.47776,-1.13726c-2.45997,-1.66725 -3.96948,-5.11607 -6.90212,-6.06849c-2.90101,-0.94215 -6.68111,1.19769 -9.97532,-0.13436c-2.12175,-0.85795 -4.56291,-2.22338 -6.08461,-3.944c-0.28423,-0.32139 -0.91923,-2.06772 -1.28758,-2.20346c-3.93742,-1.45103 -13.31141,1.89125 -13.31141,-5.02348c0,-4.88189 3.66993,-4.17076 6.54016,-4.5c0.04801,-0.00551 6.50694,-5.62128 7.75,-6.24281c2.89671,-1.44836 5.70181,0.46803 8.64596,-0.4127c4.93075,-1.47502 2.50042,-8.92128 6.38835,-11.39542c5.25597,-3.34471 11.41378,-1.80988 15.33111,2.76035c0.709,0.82717 1.50681,4.6144 2.50381,5.01216c2.20383,0.87924 3.92472,1.07241 5.87886,1.39739c0.13426,-0.01206 0.27021,-0.01821 0.4076,-0.01821c0.76701,0 1.4892,0.1919 2.12118,0.5303c0.06038,0.0151 0.13186,0.0375 0.16273,0.09153c1.32634,0.78278 2.21609,2.22657 2.21609,3.87817c0,1.46443 -0.69952,2.76548 -1.78264,3.58723c-0.13854,0.13412 -0.29301,0.2522 -0.46736,0.35027z" fill="#ffb663" stroke="none" stroke-width="0.5" stroke-linecap="butt"/><path d="M36.28099,160.51887c-0.65073,-0.13014 -1.33044,0.32632 -1.98118,0.19618c-0.88061,-0.17613 -1.74733,-0.54674 -2.46577,-1.08557c-0.67139,-0.50354 -0.48558,-1.9916 -1.30968,-2.15025c-1.13906,-0.21928 -3.19313,-0.58418 -4.18262,-1.14961c-1.19084,-0.68048 -1.45494,-2.44648 -1.95627,-3.55391c-0.11956,-0.26411 -0.56053,0.1572 -0.8242,0.27772c-1.19284,0.54527 -2.31081,0.86129 -3.62262,1.1528c-0.87704,0.1949 -9.73069,-1.4447 -9.84054,-1.60947c-1.43025,-2.14538 -3.40119,-4.4804 -1.26163,-6.97656c3.20526,-3.73946 8.93817,-1.75782 12.49486,-5.32843c1.5699,-1.57605 -0.20699,-7.42271 3.40015,-7.6976c1.33776,-0.10195 2.68535,-0.07442 4.02492,0c0.84763,0.04709 2.86278,3.30512 4.68573,6.1462c1.16177,0.67148 1.99547,1.84732 2.2018,3.22818c0.41848,0.52983 0.76377,0.87318 0.9981,0.92927c1.959,0.46893 3.53038,-2.40296 5.54472,-2.40296c1.51167,0 2.76361,1.29756 3.9375,2.25c1.60531,1.30247 0.38341,4.11667 0.5625,6.17613c0.39073,4.49341 2.33695,15.3975 -3.56396,16.79051c-0.96755,0.22841 -2.37717,0.42221 -3.45161,-0.19176c-1.96428,-1.12244 -1.87411,-3.71329 -3.17955,-5.23631z" fill="#63ffee" stroke="none" stroke-width="0.5" stroke-linecap="butt"/><path d="M46.3666,173.89992c-3.18198,3.18198 -6.36396,0 -6.36396,0l-1.95399,-1.99291c-0.97134,-1.76495 -1.71001,-1.14539 -3.78536,-1.14973c-3.93753,-0.00823 -4.99691,0.3849 -8.46532,-1.26861c-1.3082,-0.62366 -5.05061,-3.34911 -5.98308,-4.45749c-0.5054,-0.60073 -0.72126,-2.44545 -1.80873,-2.88551c-3.64288,-1.47417 -7.99339,0.36521 -11.85185,-1.06967c-2.55428,-0.94988 -5.28064,-3.68836 -7.56853,-5.22123c-1.18797,-0.79593 -2.83456,-0.65053 -4.06094,-1.3842l-2.93402,-0.36675c-2.25049,-0.24823 -4.00107,-2.15601 -4.00107,-4.47266c0,-2.48528 2.01472,-4.5 4.5,-4.5h3.24412c1.69249,0.1129 4.04815,-0.12942 4.21683,-2.10165c1.55946,-4.3991 0.99547,-5.39531 6.23907,-7.43763c1.92361,-0.74922 7.0042,1.16589 8.53615,-1.06851c0.97911,-1.42807 -0.00499,-3.6358 0.89092,-5.11748c1.0436,-1.72593 2.55177,-3.29048 4.34792,-4.20795c0.66216,-0.33823 7.67744,-0.46299 8.60771,-0.27033c4.02741,0.83406 7.69277,3.38417 10.14694,6.66278c2.01461,2.69137 0.97803,4.04064 4.45971,3.8084c0,0 4.5,0 4.5,4.5c0,4.5 -4.5,4.5 -4.5,4.5c-3.83082,-0.11909 -4.68168,0.39223 -8.10074,-2.21705c-2.83253,-2.16167 -3.14082,-5.89119 -6.28799,-7.69737c-1.83865,-1.05522 -3.70286,0.03788 -5.38149,-0.97151c-0.60634,-0.3646 0.40319,1.42285 0.23335,2.10968c-0.95419,3.85899 -1.81732,5.20901 -5.44274,7.39643c-1.17586,0.70946 -2.5495,1.08447 -3.90217,1.32172c-2.96294,0.51968 -5.45887,-1.6446 -5.74868,1.34873c-0.51128,1.27821 -0.67476,2.75887 -1.53383,3.83461c-0.23977,0.30025 -0.49062,0.58185 -0.75147,0.84588c1.21537,0.95557 2.43961,1.85195 3.79198,2.41496c1.45803,0.607 3.15842,0.04253 4.73773,0.05108c3.04698,0.0165 4.80873,-0.22584 7.74131,1.31234c3.2908,1.72608 4.68284,7.34493 8.79459,7.66709c4.08202,0.31983 7.65746,-0.84024 11.5046,1.50664c1.12978,0.6892 1.76194,1.97516 2.64291,2.96273l1.29013,1.25121c0,0 3.18198,3.18198 0,6.36396z" fill="#ff8800" stroke="none" stroke-width="0.5" stroke-linecap="butt"/><path d="M44.10456,214.73592c0.00059,0.27761 0.00115,0.55522 0.00164,0.83283c0.66866,1.66164 0.2846,5.39472 0.08919,7.95859c0.1889,0.83837 0.57118,1.82175 -0.05803,2.05026l0.26881,2.68815c0.01873,0.16674 0.02836,0.33625 0.02836,0.508c0,0.73001 -0.17383,1.41941 -0.48235,2.02908l0.81173,2.1646c0.20831,0.51831 0.32294,1.08435 0.32294,1.67716c0,2.48528 -2.01472,4.5 -4.5,4.5c-0.75581,0 -1.4681,-0.18633 -2.09343,-0.51556l-2.52829,-1.26415l0.17761,-0.35523l-0.93451,-0.12277c-1.13961,-1.27354 -1.96785,-2.97183 -3.48316,-3.76206c-0.38707,-0.20186 -1.47766,-0.22167 -2.35531,-0.20749c-0.17209,0.01998 -0.34715,0.03025 -0.5246,0.03025c-0.09629,0 -0.19187,-0.00303 -0.28665,-0.00898c-0.16969,0.00546 -0.29808,0.00951 -0.36566,0.00898c-3.66158,-0.02835 -4.33999,0.27963 -7.80697,-1.58848c-2.41529,-1.30143 -4.43665,-3.80602 -6.73196,-5.3477c-1.32517,-0.89007 -2.9816,-1.21724 -4.28767,-2.13401l-2.91757,-0.87528c-1.90463,-0.52389 -3.30377,-2.26818 -3.30377,-4.33927c0,-1.96616 1.26096,-3.63781 3.01831,-4.25036l2.37243,-0.88966c2.01762,-0.91318 4.27334,-1.21546 6.4603,-1.57087c2.80327,-0.45558 6.56584,-2.33497 9.03876,-3.73714c1.90065,-1.07769 7.4217,-5.68783 9.00552,-5.77831c2.4817,-0.14179 5.05544,1.59914 7.16017,3.66615c1.88609,0.391 3.33996,1.96249 3.55448,3.90733l0.06466,0.51729c0.26711,0.48896 1.17501,2.38862 0.28504,4.20865z" fill="#7df3e7" stroke="none" stroke-width="0.5" stroke-linecap="butt"/><path d="M45.08684,239.86312c0,4.5 -4.5,4.5 -4.5,4.5h-2.60927c-4.60254,-0.08031 -7.6297,-1.01179 -11.03178,-4.27561c-0.75921,-0.72835 -2.58824,-4.21197 -4.00846,-4.2576c-5.75991,-0.18506 -10.59671,0.35564 -15.96607,-2.86482c-1.15782,-0.69444 -2.19913,-1.60078 -3.10125,-2.60525c-0.1823,-0.20298 -1.42634,-2.85714 -2.24908,-3.34729c-1.98196,-1.18078 -4.94199,-0.04434 -6.64964,-0.92297c-0.08871,-0.04565 -0.17681,-0.09228 -0.26432,-0.13985l-0.01422,0.1138l-2.55004,-0.31876c-2.25049,-0.24823 -4.00107,-2.15601 -4.00107,-4.47265c0,-2.48528 2.01472,-4.5 4.5,-4.5h2.49932c0.27351,-0.01379 0.51383,-0.02752 0.72739,-0.04543c0.20341,-0.10958 0.46507,-0.13457 0.7574,-0.11146c0.7654,-0.19193 1.07596,-0.64283 1.76577,-1.90178c2.02684,-5.19474 5.13895,-8.74468 10.93072,-9.34816c1.70882,-0.17806 5.06515,0.6914 6.7223,-0.17335c3.04829,-1.5907 3.79441,-5.7862 6.95061,-7.70544c4.65282,-2.82931 10.47679,-3.38328 15.28778,-0.65232c2.88443,1.63735 4.91598,4.69768 7.02521,7.15844c0,0 2.92856,3.41665 -0.4881,6.34521c-3.41665,2.92856 -6.34522,-0.4881 -6.34522,-0.4881c-1.22301,-1.42684 -2.37382,-2.91783 -3.65704,-4.29077c-1.90519,-2.03839 -6.33744,-2.11497 -8.06857,0.33903c-1.15951,1.64369 -2.0996,3.48627 -3.5505,4.87949c-0.94449,0.90695 -1.90535,1.85913 -3.07934,2.43913c-2.76434,1.36572 -4.69807,1.12822 -7.5821,1.13997c-1.18999,0.00485 -2.52164,-0.69895 -3.56761,-0.13143c-1.23817,0.67182 -2.12463,3.39611 -2.50843,4.4732c-0.11667,0.17845 -0.23203,0.35235 -0.34633,0.52185c0.13763,0.07498 0.26436,0.15022 0.3785,0.22537c2.04155,1.34425 3.09049,4.82599 5.08672,5.78914c5.86208,2.82838 12.32682,0.25632 17.67003,3.84402c3.78275,2.53993 3.67267,6.43991 8.72744,6.28437h2.60927c0,0 4.5,0 4.5,4.5z" fill="#f28c00" stroke="none" stroke-width="0.5" stroke-linecap="butt"/><path d="M10.02828,238.12571c-0.07369,-0.29475 -0.09762,-0.55965 -0.0839,-0.79739c-1.9658,-1.27412 -4.38048,-1.70694 -6.27449,-3.17876c-0.42467,-0.33001 -0.53609,-0.97575 -0.97657,-1.28434c-0.21708,-0.15208 -0.89938,0.34749 -1.77205,0.99596c-0.19494,0.20863 -0.43111,0.3785 -0.69586,0.51366c-2.04623,1.48741 -4.65059,3.07404 -5.07937,-0.24037c-0.43425,-0.16848 -0.8136,-0.33838 -1.14271,-0.50947c-0.28528,0.43783 -0.6513,0.77326 -1.1627,0.92431c-1.62343,0.47951 -3.16844,-1.39618 -4.36763,-2.5909c-0.63544,-0.63307 -0.43481,-1.75125 -0.80901,-2.56645c-0.59201,-1.28971 -1.36282,-2.54846 -2.40178,-3.5151c-0.48044,-0.44699 -0.98795,-0.86283 -1.5066,-1.26583l-0.15426,0.35993l-2.23544,-0.95805c-0.82727,-0.33251 -1.41134,-1.1423 -1.41134,-2.0885c0,-1.15832 0.87529,-2.11221 2.00054,-2.23633l2.18026,-0.27253c1.55002,-1.10002 2.46171,-2.64243 3.13443,-4.46877c0.31702,-0.86065 0.10821,-1.94626 0.67479,-2.66751c0.06436,-0.08193 0.13047,-0.16218 0.19816,-0.2409l-0.06394,-0.03654l0.44608,-0.78064l-0.05411,-0.13529c0.55555,-1.28717 0.48631,-3.10506 1.66666,-3.86151c0.77242,-0.49502 1.96139,-0.83023 3.13538,-0.89734c0.12981,-0.07214 0.26987,-0.1274 0.42249,-0.16201c1.78803,-0.40542 3.21335,-0.30777 4.21426,0.16715c2.00059,-1.83883 4.21453,-3.10696 7.46016,-3.59538c2.42826,-0.34689 6.08155,-0.17621 8.1892,-1.59271c2.68782,-1.80642 3.38081,-5.64365 6.197,-7.50163c2.57865,-1.70127 5.49507,-1.69148 8.43689,-1.69148c7.28045,0 11.7539,2.79177 17.11986,7.39099c0,0 1.70833,1.46428 0.24405,3.17261c-1.46428,1.70833 -3.17261,0.24405 -3.17261,0.24405c-4.57033,-3.91757 -7.98976,-6.30764 -14.1913,-6.30764c-1.91889,0 -4.22031,-0.23259 -5.91406,0.91778c-2.71727,1.84553 -3.38373,5.63451 -6.197,7.50163c-2.85325,1.89366 -6.7946,1.85246 -10.07564,2.32118c-3.45313,0.45932 -5.19086,2.30633 -7.24295,4.76603c-0.16321,0.30853 -0.35129,0.62386 -0.56484,0.94475c-0.35409,0.53206 -0.81336,0.96046 -1.32978,1.33255l-0.5305,0.6366c-0.41265,0.50235 -1.03865,0.82279 -1.7395,0.82279c-0.08783,0 -0.17448,-0.00503 -0.25968,-0.01482c-0.46092,0.24582 -0.91273,0.50061 -1.33133,0.78813l-0.328,-1.6555c-0.17588,0.33614 -0.43423,0.62232 -0.74818,0.83167c-0.17684,2.09071 -2.2356,4.56873 -4.1472,6.32008c1.24967,0.93739 2.42842,2.68359 3.23695,4.12592c0.29325,-0.14 0.62156,-0.21838 0.96818,-0.21838c0.79338,0 1.49085,0.41063 1.89147,1.03096l0.17432,0.26148c0.40644,-0.58403 1.08263,-0.96629 1.8481,-0.96629c0.92658,0 1.72234,0.56009 2.0672,1.36018c0.89614,-0.38797 1.85091,-0.49033 2.58222,-0.11547c0.47201,0.24194 0.81261,0.65209 1.0395,1.15716c0.84177,-0.17094 1.7114,-0.20101 2.52422,-0.00329c0.9787,0.23806 1.47019,1.38513 2.28501,1.97724c2.11619,1.53775 4.74242,1.99041 6.84932,3.58774c0.31692,0.24027 0.58931,0.46997 0.83162,0.68808c0.82443,-0.16224 1.64887,-0.32448 2.4733,-0.48673c4.88659,0.0093 6.91564,1.46928 10.85598,3.90839c2.27452,1.40795 5.0756,2.21455 7.42654,3.54369c0.34552,0.19534 1.09578,0.5797 1.93171,1.07751c0.0802,-0.01527 0.16048,-0.02817 0.24085,-0.03834c1.01826,-0.12883 2.05704,0.10791 3.06364,0.30841c3.15928,0.62926 8.5517,1.2055 1.82721,6.54997c-2.06646,1.64237 -4.28815,-0.25419 -5.85514,-1.62801c-0.17651,0.08583 -0.35861,0.15229 -0.55184,0.18007c-1.41597,0.20353 -2.89022,0.25846 -4.29148,-0.02943c-0.72933,-0.14984 -1.11696,-1.24546 -1.86145,-1.23466c-1.15199,0.01672 -2.06085,1.48537 -3.19924,1.30809c-0.49128,-0.07651 -3.13423,-1.14712 -4.6721,-2.66417c-0.39524,-0.08165 -0.7781,-0.20254 -1.14119,-0.38612c-0.65678,-0.33208 0.00693,-1.84909 -0.68537,-2.09883c-0.96094,-0.34665 -2.07746,1.29197 -2.96302,0.78271c-0.44419,-0.25544 -1.9672,-1.8824 -2.822,-3.59831c-0.30169,-0.1939 -0.59426,-0.40479 -0.89222,-0.6335l-0.20967,0.05288c0,0 -2.18282,0.54571 -2.72853,-1.63712z" fill="#f0f2ca" stroke="none" stroke-width="0.5" stroke-linecap="butt"/><path d="M309.18081,178.35738l-127.18687,52.14662l-64.44135,82.08999l-3.39165,-59.35387l-25.86133,13.5666" fill="none" stroke="#ffffff" stroke-width="10" stroke-linecap="round"/><path d="M85.33192,267.65463l1.27187,-27.98111l-41.54771,16.95825l-0.42396,-64.8653l42.81958,15.26242v-43.66749l-39.00397,18.65407" fill="none" stroke="#ffffff" stroke-width="10" stroke-linecap="round"/><path d="M45.05608,181.59152v-60.20178l41.54771,12.29473l0.42396,-35.18837l32.64463,9.90851l0.42396,-52.14662l52.14662,57.23409l154.74402,3.81561v27.98111l-117.43587,-4.23956l103.02136,34.34045" fill="none" stroke="#ffffff" stroke-width="10" stroke-linecap="round"/></g></g></svg>