<svg version="1.1" xmlns="http://www.w3.org/2000/svg" xmlns:xlink="http://www.w3.org/1999/xlink" width="298.42018" height="260.3685" viewBox="0,0,298.42018,260.3685"><g transform="translate(-31.153,-50.07927)"><g data-paper-data="{&quot;isPaintingLayer&quot;:true}" fill-rule="nonzero" stroke-linejoin="miter" stroke-miterlimit="10" stroke-dasharray="" stroke-dashoffset="0" style="mix-blend-mode: normal"><path d="" fill="#9966ff" stroke="none" stroke-width="0.5" stroke-linecap="butt"/><path d="M87.72728,252.20779v-150l214.93506,71.42857v0.64935z" fill="#2c1d49" stroke="#301e52" stroke-width="8" stroke-linecap="butt"/><path d="M86.42857,102.20779l214.28572,71.42858l-212.33766,77.27272" fill="none" stroke="#000000" stroke-width="0.5" stroke-linecap="round"/><path d="M62.4026,134.67532v0" fill="none" stroke="#301e52" stroke-width="0.5" stroke-linecap="round"/><path d="M91.62338,134.02597l-49.79954,-14.54818" fill="none" stroke="#301e52" stroke-width="8" stroke-linecap="round"/><path d="M40.72643,172.09585l48.29955,-19.88806" fill="none" stroke="#301e52" stroke-width="8" stroke-linecap="round"/><path d="M85.12987,206.1039l-44.96384,-15.54305" fill="none" stroke="#301e52" stroke-width="8" stroke-linecap="round"/><path d="M38.50892,246.2645l44.6729,-17.43333" fill="none" stroke="#301e52" stroke-width="8" stroke-linecap="round"/><path d="M94.22728,145.06494l-6.5,8.44805c-3.60275,-0.09731 -6.96465,1.18331 -10.33782,2.28211c-2.40657,0.78394 -5.00886,0.77887 -7.46413,1.39352c-5.87672,1.47116 -11.68012,4.10667 -16.47782,7.90977c-2.98012,2.36232 -6.46375,6.11948 -10.79014,6.03038c-0.49318,0.82291 -1.16325,1.52768 -1.95766,2.06171c0.37855,-15.29138 0.53256,-30.59583 0.58832,-45.90186c0.27513,-2.66873 0.44343,-5.34579 0.54413,-8.0285c0.90246,0.21431 1.73206,0.61679 2.44505,1.16369l2.54488,1.90866c1.38871,0.52183 1.91813,2.54268 3.35028,2.92966c0.56482,0.15262 1.14401,-0.3559 1.7274,-0.31141c1.65998,0.12659 3.30881,0.42694 4.92682,0.81887c8.99664,2.17924 18.31679,2.81616 27.41293,5.4453l0.41987,0.50529l0.13062,-0.26123l2.47146,1.23573c2.19859,1.04224 3.71906,3.28194 3.71906,5.87676c0,0.23381 -0.01234,0.46474 -0.03642,0.69217c3.28318,1.67878 3.28318,5.80133 3.28318,5.80133z" fill="#2c1d49" stroke="none" stroke-width="0.5" stroke-linecap="butt"/><path d="M87.53211,222.14878c-0.83313,4.38649 -3.69102,8.69119 -8.59469,8.437c-0.11407,-0.00591 -0.22759,-0.01385 -0.34054,-0.02373c-1.18536,0.62479 -2.31056,1.40216 -3.59191,1.78348c-2.07205,0.61662 -7.07001,2.24507 -12.17279,2.86604c-4.30837,2.5016 -10.80546,5.8669 -14.06594,5.3144c-1.16564,-0.19752 -2.46359,-0.35961 -3.71109,-0.63361c-0.0947,0.05903 -0.18803,0.11562 -0.27993,0.16969c-0.23853,0.14033 -0.48154,0.27026 -0.72848,0.39108c-1.07314,1.90912 -3.08257,3.2214 -5.40577,3.31432c0.01882,-0.41126 0.03256,-0.76265 0.04033,-1.04279c0.38736,-13.95361 -0.52368,-14.51076 0.04963,-29.87942c0.21762,-5.83357 1.0085,-11.63567 1.24729,-17.46841c0.05548,-1.35512 0.10871,-2.71039 0.15978,-4.0658c1.2435,0.53449 2.48705,1.08712 3.62814,1.32388c0.76174,0.15805 1.57451,-0.22865 2.33321,-0.0566c1.39366,0.31604 2.66004,1.04978 4.0174,1.49672c5.33827,1.75774 11.21098,1.96558 16.48907,3.98455c4.23355,1.61942 7.48514,4.77602 11.68831,6.49351c4.5054,1.84099 9.22862,3.29894 13.63875,5.47728c0,0 5.81378,2.90689 2.90689,8.72066c-2.00691,4.01381 -5.39937,3.87094 -7.30764,3.39773z" fill="#2c1d49" stroke="none" stroke-width="0.5" stroke-linecap="butt"/><path d="M179.92857,201.55844c0,-3.58985 2.91015,-6.5 6.5,-6.5c3.58985,0 6.5,2.91015 6.5,6.5c0,3.58985 -2.91015,6.5 -6.5,6.5c-3.58985,0 -6.5,-2.91015 -6.5,-6.5z" fill="#6bc8ea" stroke="none" stroke-width="0.5" stroke-linecap="butt"/><path d="M255.9026,173.63637c0,-3.58985 2.91015,-6.5 6.5,-6.5c3.58985,0 6.5,2.91015 6.5,6.5c0,3.58985 -2.91015,6.5 -6.5,6.5c-3.58985,0 -6.5,-2.91015 -6.5,-6.5z" fill="#6bc8ea" stroke="none" stroke-width="0.5" stroke-linecap="butt"/><path d="M181.22728,147.01298c0,-3.58985 2.91015,-6.5 6.5,-6.5c3.58985,0 6.5,2.91015 6.5,6.5c0,3.58985 -2.91015,6.5 -6.5,6.5c-3.58985,0 -6.5,-2.91015 -6.5,-6.5z" fill="#6bc8ea" stroke="none" stroke-width="0.5" stroke-linecap="butt"/><path d="M187.72728,208.05844c-6.5,0 -6.5,-6.5 -6.5,-6.5v-2.5974c0,-17.2636 0.95657,-34.82244 -0.62266,-52.00892c0,0 -0.58848,-6.47331 5.88483,-7.06179c6.47331,-0.58848 7.06179,5.88483 7.06179,5.88483c1.58338,17.59169 0.67604,35.5196 0.67604,53.18588v2.5974c0,0 0,6.5 -6.5,6.5z" fill="#6bc8ea" stroke="none" stroke-width="0.5" stroke-linecap="butt"/><path d="M260.71273,166.49824c1.20779,0.08232 6.24181,0.76854 6.24181,6.48878c0,6.5 -6.5,6.5 -6.5,6.5l-4.20559,-0.68623c-0.8658,-0.4329 -1.7316,-0.8658 -2.5974,-1.2987c-3.3031,-1.65155 -6.57303,-3.56322 -9.97017,-5.00337c-3.70511,-1.5707 -7.44188,-1.64738 -11.08668,-3.5855c-2.5692,-1.36617 -4.80389,-2.9725 -7.40121,-4.34283c-1.84473,-0.97326 -4.06148,-0.99736 -6.00996,-1.74146c-10.49391,-4.00747 -20.80577,-8.07666 -31.73405,-10.80873c0,0 -6.30592,-1.57648 -4.72944,-7.88241c1.57648,-6.30593 7.88241,-4.72944 7.88241,-4.72944c8.47119,2.1178 16.62052,4.89323 24.75947,8.02244c4.93661,1.898 10.68565,3.12421 15.41861,5.4014c2.85155,1.37198 5.42645,3.12572 8.18321,4.74808c2.73524,1.6097 6.7688,1.70519 9.69254,2.90801c3.68565,1.51627 7.24034,3.60189 10.80906,5.38625c0.4158,0.2079 0.8316,0.4158 1.2474,0.6237z" fill="#6bc8ea" stroke="none" stroke-width="0.5" stroke-linecap="butt"/><path d="M214.77974,160.23698c1.15486,0.34139 2.2604,0.87481 3.21097,1.55051l3.91505,-1.79439c0.85664,-0.41576 1.81834,-0.64894 2.8345,-0.64894c0.44695,0 0.88336,0.04512 1.30494,0.13103c3.50666,-0.69246 8.42831,-1.05418 10.49242,1.83183c0.07527,0.10523 0.14863,0.212 0.22009,0.32021l0.24287,-0.1877c4.38948,0.40978 9.6229,-1.39071 13.16843,1.22934c2.56143,1.89282 4.00108,6.2116 3.03217,9.32684c1.30041,-0.88089 2.5643,-1.82659 3.90915,-2.63435l4.64292,-0.92629c0,0 6.5,0 6.5,6.5c0,5.22512 -4.20029,6.24995 -5.84794,6.45095c-2.05935,1.34867 -4.04076,2.8304 -6.23783,3.93355c-7.36139,3.69615 -15.62119,5.92931 -23.09562,9.25708c-2.86443,1.2753 -5.46379,3.17896 -8.452,4.12865c-1.30212,0.41383 -2.72593,0.31716 -4.04042,0.68983c-4.09563,1.16116 -7.9367,3.09175 -11.97561,4.437c-6.32898,2.10802 -12.83408,3.71394 -19.30007,5.33094c0,0 -6.30593,1.57648 -7.88241,-4.72944c-1.57648,-6.30593 4.72944,-7.88241 4.72944,-7.88241c0.93607,-0.23394 1.87017,-0.4744 2.80252,-0.7206c-3.63756,-6.13162 -0.21228,-13.20536 3.6408,-18.7023c-0.10306,-0.24847 -0.18757,-0.49222 -0.25524,-0.73104c-1.10282,-1.32948 -2.00379,-2.88831 -2.69376,-4.56681c-0.63018,-1.06061 -0.98646,-2.39522 -1.16433,-3.79707c-0.9094,-4.30275 -0.56736,-8.83651 1.15238,-12.08911c3.44473,-6.51513 11.56956,-12.98355 19.10764,-6.80738c1.58647,1.29984 2.29798,3.26108 2.88156,5.31902c0.42191,0.42056 0.84032,0.89088 1.25409,1.41411c0.988,1.24939 1.60576,2.74563 1.9033,4.36694z" fill="#6bc8ea" stroke="none" stroke-width="0.5" stroke-linecap="butt"/><path d="M192.27273,182.08442c-6.5,0 -6.5,-6.5 -6.5,-6.5v-2.5974c0,-5.47711 -0.10133,-10.81649 0.68098,-16.22491c0.21323,-1.47413 -0.36294,-3.20497 0.46315,-4.44436c1.70674,-2.56062 3.93905,-5.01139 6.71902,-6.33105c1.74197,-0.82692 3.84592,0.28845 5.77085,0.40208c5.52945,0.3264 9.61056,2.71494 14.52343,5.16043c3.4317,1.7082 6.38006,2.88084 9.5153,5.19885c0,0 5.2,3.9 1.3,9.1c-3.9,5.2 -9.1,1.3 -9.1,1.3c-3.36055,-2.57259 -7.69174,-4.56602 -11.51044,-6.31152c-1.38667,-0.63384 -2.78874,-1.27126 -4.26478,-1.65327c-0.17426,-0.0451 -0.35393,-0.03259 -0.53548,0.00126c-0.23235,4.5764 -0.56203,9.15124 -0.56203,13.8025v2.5974c0,0 0,6.5 -6.5,6.5z" fill="#ffffff" stroke="none" stroke-width="0.5" stroke-linecap="butt"/><path d="M89.66883,114.54546c0,-3.58985 2.91015,-6.5 6.5,-6.5c3.58985,0 6.5,2.91015 6.5,6.5c0,3.58985 -2.91015,6.5 -6.5,6.5c-3.58985,0 -6.5,-2.91015 -6.5,-6.5z" fill="#ffffff" stroke="none" stroke-width="0.5" stroke-linecap="butt"/><path d="M89.66883,157.4026c0,-3.58985 2.91015,-6.5 6.5,-6.5c3.58985,0 6.5,2.91015 6.5,6.5c0,3.58985 -2.91015,6.5 -6.5,6.5c-3.58985,0 -6.5,-2.91015 -6.5,-6.5z" fill="#ffffff" stroke="none" stroke-width="0.5" stroke-linecap="butt"/><path d="M88.37013,243.11689c0,-3.58985 2.91015,-6.5 6.5,-6.5c3.58985,0 6.5,2.91015 6.5,6.5c0,3.58985 -2.91015,6.5 -6.5,6.5c-3.58985,0 -6.5,-2.91015 -6.5,-6.5z" fill="#ffffff" stroke="none" stroke-width="0.5" stroke-linecap="butt"/><path d="M89.66883,199.61039c0,-3.58985 2.91015,-6.5 6.5,-6.5c3.58985,0 6.5,2.91015 6.5,6.5c0,3.58985 -2.91015,6.5 -6.5,6.5c-3.58985,0 -6.5,-2.91015 -6.5,-6.5z" fill="#ffffff" stroke="none" stroke-width="0.5" stroke-linecap="butt"/><path d="M214.35065,206.19805c2.24855,0 3.6178,0.87929 4.45159,1.95019c0.27231,0.00091 0.54477,0.00206 0.81734,0.00338c-0.36612,0.10417 -0.73157,0.20388 -1.09632,0.29839c-2.99436,0.77594 -6.67829,1.63486 -9.90502,3.16975c0.10357,-1.21984 0.81705,-5.42172 5.73241,-5.42172z" fill="#2b1d46" stroke="none" stroke-width="0.5" stroke-linecap="butt"/><path d="M171.44884,112.35006c13.8209,0 28.05329,-0.84165 41.84818,0.42617c0.0612,-0.06558 0.12016,-0.13398 0.177,-0.205c36.45398,0.602 72.58053,2.59585 109.13511,2.59585h1.59318c0.00006,3.06166 0.00951,6.12333 0.01964,9.18496c0.01101,3.32599 0.26473,6.91019 0.51196,10.23764c0.10231,1.37703 0.14087,3.12691 0.21108,5.06971h-2.33586c-43.06247,0 -85.5157,-2.76593 -128.61576,-2.76593c0,0 -1.53222,0 -3.51271,-0.54198c-0.47209,-0.01031 -0.81843,-0.12576 -0.81843,-0.12576l-0.59154,-0.28891c-2.65084,-0.15316 -5.27963,-0.46737 -7.91273,-0.76893c-0.19999,0.93499 -0.70799,1.92947 -1.70248,2.92395l-0.00001,-0.00001c-4.06587,4.06587 -8.13173,0 -8.13173,0l-2.26955,-2.29726c-0.38525,-0.53716 -0.76863,-1.07537 -1.15043,-1.61448c-1.02291,-0.31336 -1.76673,-1.26518 -1.76673,-2.39074c0,-0.04032 0.00095,-0.08042 0.00284,-0.12027c-0.32229,-0.46217 -0.64375,-0.9248 -0.96456,-1.38779c-0.72258,-0.12966 -1.43536,-0.3016 -2.13336,-0.53735h-4.40015c-1.08912,0 -2.01558,-0.69645 -2.35832,-1.66829c-0.12378,0.00796 -0.24862,0.01199 -0.37441,0.01199c-2.29542,0 -4.27668,-1.34503 -5.19867,-3.28994l-0.03843,-0.07685c-0.28847,-0.03754 -0.57581,-0.08156 -0.8618,-0.13335c-0.53532,0.16472 -1.10396,0.25338 -1.69331,0.25338c-0.85405,0 -1.66462,-0.1862 -2.39331,-0.52022c-0.80778,2.19855 -2.92018,3.76697 -5.3989,3.76697c-2.43888,0 -4.52311,-1.51841 -5.35894,-3.66146l-2.59934,-6.23842l-2.40162,3.0878c-0.8113,1.06395 -1.98527,1.83646 -3.33747,2.13309c-0.02149,0.94001 -0.03314,1.8816 -0.03314,2.8251v2.5974c0,0 0,5.75 -5.75,5.75c-5.75,0 -5.75,-5.75 -5.75,-5.75v-2.5974c0,-1.7417 -0.00365,-10.60408 0.01959,-10.86387c0.49684,-5.55308 1.73818,-11.04193 1.93211,-16.61382c0.20511,-5.89324 0.23121,-11.79801 0.00348,-17.69042c-0.21071,-5.45218 -1.87517,-10.29548 -1.95353,-15.7313c-0.0011,-0.04638 -0.00166,-0.0929 -0.00166,-0.13954c0,-0.72674 0.13482,-1.42199 0.38082,-2.0621c0.30526,-0.89844 0.8552,-1.91228 1.84595,-2.64925c0.32101,-0.74929 0.86699,-1.5127 1.72925,-2.25178c4.36572,-3.74205 8.10778,0.62367 8.10778,0.62367c4.6943,5.49501 7.86119,11.49222 12.02541,17.31671c5.66024,7.91696 11.94801,15.48585 17.98911,23.11839c3.38269,4.27382 6.54282,8.67805 9.63314,13.12444l0.03231,0.00047c1.24341,0.01843 2.48537,0.05132 3.72627,0.09625c0.48206,-0.16155 0.88465,-0.16155 0.88465,-0.16155z" fill="#2b1d46" stroke="none" stroke-width="0.5" stroke-linecap="butt"/><path d="M137.72727,227.62662c3.10451,0 4.53285,1.67618 5.19001,3.21854c0.70654,-0.35919 1.49724,-0.57667 2.33465,-0.61502c1.25592,-2.10918 2.51483,-4.21548 3.78357,-6.31378l0.68332,-0.16215c0.25829,0.29857 0.45496,0.95833 0.66211,1.5567c0.61575,-0.6108 1.26756,-1.18183 1.96929,-1.69678c0.35491,-0.26044 0.71792,-0.5073 1.08788,-0.74248l7.61394,-1.80675c-0.16627,0.64945 -0.30343,1.3098 -0.43037,1.97397l1.19245,-0.85915c-0.30335,1.1024 -0.57304,2.21699 -0.82916,3.33649c0.44456,-0.09479 0.88652,-0.19634 1.32176,-0.31529c0,0 1.74663,-0.43666 3.52953,0.15605c0.18397,-0.34799 0.35592,-0.69649 0.5143,-1.04531l2.37579,-2.79309c0,0 4.06586,-4.06586 8.13173,0c4.06586,4.06586 0,8.13173 0,8.13173l-0.22161,-0.19568c-2.99489,5.70997 -7.67792,10.79462 -11.63637,15.88501c-7.71137,9.91649 -14.77392,20.5135 -22.89974,30.08215c-1.81944,2.1425 -4.10699,3.8527 -5.95221,5.97303c-5.07651,5.8334 -9.2053,13.54605 -14.74886,18.99842l-1.0108,2.52701c-0.81541,2.1838 -2.92034,3.73886 -5.38848,3.73886c-3.17564,0 -5.75,-2.57436 -5.75,-5.75v-2.5974c0.0582,-4.45831 1.0529,-8.70322 0.66382,-13.22875c-1.24761,-14.51144 -1.75205,-30.13755 0.02994,-44.62731c0,0 0.7132,-5.7056 6.4188,-4.9924c3.33063,0.41633 4.47398,2.53388 4.84874,4.22461c0.13921,-0.60045 0.25722,-1.10952 0.34834,-1.50303l0.31914,-0.50722c0.34491,-0.20888 0.72367,-0.21806 1.12422,-0.09866c0.34146,-1.16892 0.77262,-2.29505 1.43893,-3.30428c1.02153,-1.54728 2.2942,-2.89354 3.63915,-4.18195c1.03681,1.62032 2.28775,3.17166 3.28189,4.80573l0.34367,-0.33651c0.28584,-0.6056 0.5781,-1.20863 0.87769,-1.80873l-0.60704,0.62343c0,0 0,-5.75 5.75,-5.75z" fill="#2b1d46" stroke="none" stroke-width="0.5" stroke-linecap="butt"/><path d="" fill="#2b1d46" stroke="none" stroke-width="0.5" stroke-linecap="butt"/><path d="M147.62951,79.38233l-28.42954,-25.58658l49.4674,60.27063l155.79388,0.56859l-0.5686,25.58658l-117.1297,-2.84295l100.07198,34.68404l-1.13718,4.54872l-127.93293,44.35008l-62.332,86.43022l66.13717,-85.63916l122.52335,-44.5154l-64.86531,36.88419" fill="none" stroke="#ffffff" stroke-width="10" stroke-linecap="round"/><path d="M113.73699,308.23957l-3.39165,-1.69583l-0.42395,-58.92991" fill="none" stroke="#ffffff" stroke-width="4" stroke-linecap="round"/><path d="M118.40051,55.13771l52.14662,57.65805h152.20028l0.42396,23.74155l-109.3807,-0.84791l92.84641,34.34045" fill="none" stroke="#ffffff" stroke-width="10" stroke-linecap="round"/><path d="M86.17984,257.36483l23.74155,-6.7833v54.69035" fill="none" stroke="#ffffff" stroke-width="10" stroke-linecap="round"/><path d="M83.21214,252.7013l0.84791,-18.65407l-46.63519,17.80616" fill="none" stroke="#ffffff" stroke-width="10" stroke-linecap="round"/><path d="M36.153,245.07009l2.11978,-56.38618l44.93936,11.87077v-39.42793l-42.39562,14.83847l1.69582,-61.0497l40.6998,11.44682l-1.27187,-30.52485l33.9165,11.02286v-46.21123" fill="none" stroke="#ffffff" stroke-width="10" stroke-linecap="round"/></g></g></svg>