<svg version="1.1" xmlns="http://www.w3.org/2000/svg" xmlns:xlink="http://www.w3.org/1999/xlink" width="62.05063" height="17.3273" viewBox="0,0,62.05063,17.3273"><defs><radialGradient cx="235.56289" cy="180.32436" r="7.66365" gradientUnits="userSpaceOnUse" id="color-1"><stop offset="0" stop-color="#9966ff"/><stop offset="1" stop-color="#66ebff"/></radialGradient></defs><g transform="translate(-181.77256,-171.6607)"><g data-paper-data="{&quot;isPaintingLayer&quot;:true}" fill-rule="nonzero" stroke-linejoin="miter" stroke-miterlimit="10" stroke-dasharray="" stroke-dashoffset="0" style="mix-blend-mode: normal"><path d="M242.82319,180.32436c0,4.23252 -3.25055,7.66365 -7.2603,7.66365c-4.00975,0 -7.2603,-3.43113 -7.2603,-7.66365c0,-0.31037 -0.26924,-0.61644 -0.23526,-0.91716c0.42936,-3.80013 3.77985,-6.74649 7.49556,-6.74649c4.00975,0 7.2603,3.43113 7.2603,7.66365z" fill="url(#color-1)" stroke="#ffffff" stroke-width="2" stroke-linecap="butt"/><path d="M229.41645,187.25625l-41.59882,-8.29748l43.52502,-5.92677" fill="none" stroke="#ffffff" stroke-width="2" stroke-linecap="round"/><path d="M214.94162,175.38841c0.09689,-0.03131 0.57676,-0.30212 0.68572,-0.30722c0.10605,-0.00497 0.23609,0.00461 0.38724,0.02767c0.19107,0.01878 0.62743,-0.56995 0.80341,-0.5106c0.49403,0.12959 0.47738,0.34018 1.15969,0.61391c0.99836,0.12733 1.19642,-0.04824 1.63645,-0.19255c1.21175,-0.39738 10.5885,-3.19747 10.96591,-0.05521l-2.36786,3.73772c0,1.68964 -0.25979,1.98146 -1.26531,2.60311c1.33772,1.19123 2.32615,3.38159 1.7946,4.31179c5.92588,2.53912 -3.01389,-0.0825 -8.50156,-1.97866c-1.62477,-0.56141 -2.94692,-1.05921 -3.49104,-1.34065c-0.21363,-0.1105 -1.6727,0.6591 -2.31106,0.36695c-0.2434,-0.02932 -1.35421,0.32399 -1.56878,0.30708c-1.31651,-0.10374 -21.62182,-2.50731 -21.62182,-4.26122c0,-1.4981 19.87132,-2.82526 20.95377,-3.05348c0.17792,-0.18085 2.51324,-0.19517 2.74062,-0.26865z" fill="#ffffff" stroke="none" stroke-width="0.5" stroke-linecap="butt"/><path d="" fill="#ffa9a9" stroke="#ff0000" stroke-width="2" stroke-linecap="butt"/><path d="" fill="#ffffff" stroke="#ff0000" stroke-width="2" stroke-linecap="butt"/><path d="" fill="#ffffff" stroke="none" stroke-width="0.5" stroke-linecap="butt"/></g></g></svg>