<svg version="1.1" xmlns="http://www.w3.org/2000/svg" xmlns:xlink="http://www.w3.org/1999/xlink" width="41.05388" height="46.69908" viewBox="0,0,41.05388,46.69908"><defs><radialGradient cx="228.18682" cy="136.05954" r="50.59894" gradientUnits="userSpaceOnUse" id="color-1"><stop offset="0" stop-color="#4d0a70"/><stop offset="1" stop-color="#334070"/></radialGradient><linearGradient x1="235.71342" y1="154.75623" x2="235.71342" y2="198.56201" gradientUnits="userSpaceOnUse" id="color-2"><stop offset="0" stop-color="#8ad8ff"/><stop offset="1" stop-color="#443846"/></linearGradient></defs><g transform="translate(-225.44168,-147.05771)"><g data-paper-data="{&quot;isPaintingLayer&quot;:true}" fill-rule="nonzero" stroke="none" stroke-width="0.5" stroke-linecap="butt" stroke-linejoin="miter" stroke-miterlimit="10" stroke-dasharray="" stroke-dashoffset="0" style="mix-blend-mode: normal"><path d="" fill="url(#color-1)"/><path d="" fill="#0f132a"/><path d="" fill="#0f132a"/><path d="" fill="#0f132a"/><path d="" fill="#0f132a"/><path d="" fill="#0f132a"/><path d="" fill="#0f132a"/><path d="" fill="#0f132a"/><path d="" fill="#0f132a"/><path d="" fill="#0f132a"/><path d="" fill="#0f132a"/><path d="" fill="#0f132a"/><path d="" fill="#0f132a"/><path d="" fill="#0f132a"/><path d="" fill="#0f132a"/><path d="" fill="#0f132a"/><path d="M263.09974,165.93038c1.01576,1.87774 -0.59387,5.38829 -1.11847,7.10522c-1.00261,3.28143 -0.20329,5.86386 -1.90632,9.09663c-0.82434,1.56481 -3.94352,0.40476 -5.21438,1.16726c-2.28896,1.37338 -3.78895,4.83053 -5.19523,7.10595c-0.00807,0.01307 0.37606,-1.804 0.36807,-1.79111c-3.14498,-0.2511 -2.3757,-1.80599 -2.95728,-1.47364c-0.02376,0.01358 -1.35441,-0.49543 -1.37763,-0.48129c-0.28913,-0.19949 -1.11016,-0.76407 -1.38227,-0.93724c-2.69955,-1.71789 -9.10554,2.38318 -10.97491,1.3412c-4.18204,-2.33107 -2.30224,-9.59843 -3.43871,-17.82421c-0.26221,-1.89794 2.1952,-2.75799 3.25816,-4.88393c1.01951,-2.03901 1.57827,-3.14292 3.97094,-4.1865c2.7788,-1.21197 4.67159,-5.35169 7.96527,-5.29499c3.15776,0.05435 5.42749,2.10771 9.51258,1.74855c0.50804,-0.04467 0.98617,-0.10384 1.43827,-0.17636c2.18184,3.23228 5.34855,6.33558 7.05191,9.48445z" fill="url(#color-2)"/><path d="M245.52661,171.29703c0,-2.80272 2.27205,-5.07477 5.07477,-5.07477c2.80272,0 5.07476,2.27205 5.07476,5.07477c0,2.80272 -2.27205,5.07477 -5.07476,5.07477c-2.80272,0 -5.07477,-2.27205 -5.07477,-5.07477z" fill="#0f132a"/><path d="M237.36991,179.6195c0.59703,0 0.59704,0.59703 0.59704,0.59703v0.50073c0,0.45014 0.0006,0.92203 -0.00472,1.40774c-0.41332,-0.22554 -0.80894,-0.44656 -1.18756,-0.66871c-0.00071,-0.25562 -0.00179,-0.50266 -0.00179,-0.73903v-0.50073c0,0 0,-0.59703 0.59703,-0.59703z" fill="#0f132a"/><path d="M259.63603,170.03575c0,0.59703 -0.59703,0.59703 -0.59703,0.59703h-0.38518c-1.6133,0 -3.46368,0.27142 -5.00357,-0.22323c0,0 -0.56639,-0.18879 -0.3776,-0.75519c0.18881,-0.56639 0.75519,-0.3776 0.75519,-0.3776c1.36301,0.47719 3.18283,0.16195 4.62596,0.16195h0.38518c0,0 0.59703,0.00001 0.59703,0.59704z" fill="#0f132a"/><path d="M251.72055,160.38694c0.59703,0 0.59703,0.59703 0.59703,0.59703v0.34666c0,2.13035 0.45631,5.48749 -0.67804,7.30296c0,0 -0.33118,0.49677 -0.82793,0.16559c-0.49676,-0.33118 -0.16559,-0.82794 -0.16559,-0.82794c0.9954,-1.34504 0.47749,-4.95959 0.47749,-6.64061v-0.34666c0,0 0.00001,-0.59703 0.59704,-0.59703z" fill="#0f132a"/><path d="M239.6425,163.58417c0.28867,-0.52262 0.81127,-0.23395 0.81127,-0.23395l0.04388,0.02424c2.85948,1.57941 5.51809,3.72724 8.40846,5.16432c0,0 0.534,0.26701 0.26699,0.80101c-0.26699,0.534 -0.801,0.267 -0.801,0.267c-2.90659,-1.46061 -5.57246,-3.59673 -8.45177,-5.18711l-0.04388,-0.02424c0,0 -0.52261,-0.28865 -0.23395,-0.81127z" fill="#0f132a"/><path d="M238.64104,173.70636c-0.20397,-0.5611 0.35713,-0.76508 0.35713,-0.76508l1.16348,-0.41708c2.17974,-0.17715 5.10432,-0.03347 7.13311,-0.74376c0,0 0.56639,-0.18881 0.75519,0.3776c0.18881,0.56639 -0.37759,0.75519 -0.37759,0.75519c-2.14404,0.68871 -4.98306,0.6144 -7.25862,0.77812l-1.00762,0.37214c0,0 -0.5611,0.20397 -0.76507,-0.35713z" fill="#0f132a"/><path d="M249.48762,181.21419c-0.58596,-0.11444 -0.47152,-0.7004 -0.47152,-0.7004l0.21435,-1.0972c0.23306,-1.42417 0.35236,-2.74108 0.35236,-4.18091c0,0 0,-0.59703 0.59703,-0.59703c0.59703,0 0.59703,0.59703 0.59703,0.59703c0,1.50913 -0.12682,2.8995 -0.37113,4.3918l-0.21773,1.11517c0,0 -0.11443,0.58597 -0.70039,0.47152z" fill="#0f132a"/><path d="M257.96257,176.95917c-0.37534,0.4643 -0.83963,0.08895 -0.83963,0.08895l-0.65811,-0.53449c-1.78479,-1.01725 -3.3406,-2.36922 -5.31826,-3.02264c0,0 -0.56639,-0.18881 -0.3776,-0.7552c0.18881,-0.56639 0.75518,-0.37758 0.75518,-0.37758c2.08697,0.70101 3.73023,2.09023 5.61439,3.16956l0.73507,0.59176c0,0 0.4643,0.37533 0.08896,0.83963z" fill="#0f132a"/><path d="M252.09958,161.16937c-0.77808,-0.03803 -2.83554,0.61417 -3.51378,0.2793c-2.41098,-1.19037 -1.43451,-6.82708 -4.26383,-6.81314c-1.77463,-0.03566 -2.78827,3.7484 -4.30707,4.80992c-1.10837,0.77467 -4.21483,2.15776 -4.59022,3.31253c-0.9721,4.86051 -8.6899,4.94497 -7.66326,10.05855c1.55554,3.94234 -4.56429,11.55579 -1.39476,13.99211c0.39018,0.29992 10.95239,-3.32348 11.43474,-3.08203c3.83883,1.27961 8.50108,3.65916 12.7238,3.28222c0.18044,-0.01611 -3.84797,4.97417 -3.49076,4.57926c1.97086,-2.17891 5.73913,-6.63799 6.56006,-7.28712c4.57945,-2.74767 5.56408,-1.72386 7.54697,-6.68112c0.58598,-2.92995 3.76065,-7.05505 2.48142,-10.12754c-0.54331,-1.30495 -1.72288,-2.16985 -2.54679,-3.27594c-0.74811,-1.50016 -1.5011,0.98297 -2.92478,0.06502c-1.02524,-0.66105 -3.26715,-6.33038 -4.49334,-6.48857zM264.37552,154.13657c0.21533,0.07258 -0.86805,4.5862 -0.6526,4.71913c1.61701,0.99759 -2.72398,4.62931 -1.89083,6.29131c0.87874,1.16195 2.09711,2.06484 2.64479,3.47312c1.38528,3.56202 -1.77743,7.53258 -2.45058,10.89836c-2.09474,5.23683 7.9708,10.40919 3.14334,13.30567c-4.51245,3.2546 -28.77274,-2.94239 -33.0199,-4.3581c-4.77679,-2.3862 4.97036,-10.00417 3.03836,-14.78981c-1.16667,-5.84922 -5.33971,-1.06139 -4.29404,-6.28978c0.52821,-1.54034 -0.80716,-18.67718 0.05577,-20.13604c0.97267,-1.64434 11.24948,7.77577 13.11239,7.74943c0.74863,0.00307 1.45831,0.09118 2.14244,0.23598c3.43167,0.72634 6.22045,1.58029 10.05777,1.58029c0,0 0.48509,1.29868 0.58076,1.73593z" fill="#ffffff"/></g></g></svg>